<?xml version="1.0" encoding="utf-8"?>
<svg version="1.1" xmlns:xlink="http://www.w3.org/1999/xlink" width="45px" height="45px" viewBox="1831 2163  45 45" xmlns="http://www.w3.org/2000/svg">
  <path d="M 1853.5 2163  C 1866.1 2163  1876 2172.9  1876 2185.5  C 1876 2198.1  1866.1 2208  1853.5 2208  C 1840.9 2208  1831 2198.1  1831 2185.5  C 1831 2172.9  1840.9 2163  1853.5 2163  Z " fill-rule="nonzero" fill="#ffffff" stroke="none" />
  <path d="M 1853.5 2163.5  C 1865.82 2163.5  1875.5 2173.18  1875.5 2185.5  C 1875.5 2197.82  1865.82 2207.5  1853.5 2207.5  C 1841.18 2207.5  1831.5 2197.82  1831.5 2185.5  C 1831.5 2173.18  1841.18 2163.5  1853.5 2163.5  Z " stroke-width="1" stroke="#797979" fill="none" />
  <path d="M 1853.5 2196.75  C 1847.2 2196.75  1842.25 2191.8  1842.25 2185.5  C 1842.25 2179.2  1847.2 2174.25  1853.5 2174.25  C 1859.8 2174.25  1864.75 2179.2  1864.75 2185.5  C 1864.75 2191.8  1859.8 2196.75  1853.5 2196.75  " fill-rule="nonzero" fill="#797979" stroke="none" />
</svg>