<?xml version="1.0" encoding="utf-8"?>
<svg version="1.1" xmlns:xlink="http://www.w3.org/1999/xlink" width="45px" height="45px" viewBox="1831 2095  45 45" xmlns="http://www.w3.org/2000/svg">
  <path d="M 1853.5 2095  C 1866.1 2095  1876 2104.9  1876 2117.5  C 1876 2130.1  1866.1 2140  1853.5 2140  C 1840.9 2140  1831 2130.1  1831 2117.5  C 1831 2104.9  1840.9 2095  1853.5 2095  Z " fill-rule="nonzero" fill="#ffffff" stroke="none" />
  <path d="M 1853.5 2095.5  C 1865.82 2095.5  1875.5 2105.18  1875.5 2117.5  C 1875.5 2129.82  1865.82 2139.5  1853.5 2139.5  C 1841.18 2139.5  1831.5 2129.82  1831.5 2117.5  C 1831.5 2105.18  1841.18 2095.5  1853.5 2095.5  Z " stroke-width="1" stroke="#797979" fill="none" />
  <path d="M 1853.5 2128.75  C 1847.2 2128.75  1842.25 2123.8  1842.25 2117.5  C 1842.25 2111.2  1847.2 2106.25  1853.5 2106.25  C 1859.8 2106.25  1864.75 2111.2  1864.75 2117.5  C 1864.75 2123.8  1859.8 2128.75  1853.5 2128.75  " fill-rule="nonzero" fill="#797979" stroke="none" />
</svg>