<?xml version="1.0" encoding="utf-8"?>
<svg version="1.1" xmlns:xlink="http://www.w3.org/1999/xlink" width="45px" height="45px" viewBox="1831 2016  45 45" xmlns="http://www.w3.org/2000/svg">
  <path d="M 1853.5 2016  C 1866.1 2016  1876 2025.9  1876 2038.5  C 1876 2051.1  1866.1 2061  1853.5 2061  C 1840.9 2061  1831 2051.1  1831 2038.5  C 1831 2025.9  1840.9 2016  1853.5 2016  Z " fill-rule="nonzero" fill="#f0f0f0" stroke="none" />
  <path d="M 1853.5 2016.5  C 1865.82 2016.5  1875.5 2026.18  1875.5 2038.5  C 1875.5 2050.82  1865.82 2060.5  1853.5 2060.5  C 1841.18 2060.5  1831.5 2050.82  1831.5 2038.5  C 1831.5 2026.18  1841.18 2016.5  1853.5 2016.5  Z " stroke-width="1" stroke="#797979" fill="none" />
  <path d="M 1853.5 2049.75  C 1847.2 2049.75  1842.25 2044.8  1842.25 2038.5  C 1842.25 2032.2  1847.2 2027.25  1853.5 2027.25  C 1859.8 2027.25  1864.75 2032.2  1864.75 2038.5  C 1864.75 2044.8  1859.8 2049.75  1853.5 2049.75  " fill-rule="nonzero" fill="#797979" stroke="none" />
</svg>