<?xml version="1.0" encoding="utf-8"?>
<svg version="1.1" xmlns:xlink="http://www.w3.org/1999/xlink" width="45px" height="45px" viewBox="1831 1938  45 45" xmlns="http://www.w3.org/2000/svg">
  <path d="M 1853.5 1938  C 1866.1 1938  1876 1947.9  1876 1960.5  C 1876 1973.1  1866.1 1983  1853.5 1983  C 1840.9 1983  1831 1973.1  1831 1960.5  C 1831 1947.9  1840.9 1938  1853.5 1938  Z " fill-rule="nonzero" fill="#ffffff" stroke="none" />
  <path d="M 1853.5 1938.5  C 1865.82 1938.5  1875.5 1948.18  1875.5 1960.5  C 1875.5 1972.82  1865.82 1982.5  1853.5 1982.5  C 1841.18 1982.5  1831.5 1972.82  1831.5 1960.5  C 1831.5 1948.18  1841.18 1938.5  1853.5 1938.5  Z " stroke-width="1" stroke="#797979" fill="none" />
  <path d="M 1853.5 1971.75  C 1847.2 1971.75  1842.25 1966.8  1842.25 1960.5  C 1842.25 1954.2  1847.2 1949.25  1853.5 1949.25  C 1859.8 1949.25  1864.75 1954.2  1864.75 1960.5  C 1864.75 1966.8  1859.8 1971.75  1853.5 1971.75  " fill-rule="nonzero" fill="#797979" stroke="none" />
</svg>