<?xml version="1.0" encoding="utf-8"?>
<svg version="1.1" xmlns:xlink="http://www.w3.org/1999/xlink" width="45px" height="45px" viewBox="1831 2237  45 45" xmlns="http://www.w3.org/2000/svg">
  <path d="M 1853.5 2237  C 1866.1 2237  1876 2246.9  1876 2259.5  C 1876 2272.1  1866.1 2282  1853.5 2282  C 1840.9 2282  1831 2272.1  1831 2259.5  C 1831 2246.9  1840.9 2237  1853.5 2237  Z " fill-rule="nonzero" fill="#f0f0f0" stroke="none" />
  <path d="M 1853.5 2237.5  C 1865.82 2237.5  1875.5 2247.18  1875.5 2259.5  C 1875.5 2271.82  1865.82 2281.5  1853.5 2281.5  C 1841.18 2281.5  1831.5 2271.82  1831.5 2259.5  C 1831.5 2247.18  1841.18 2237.5  1853.5 2237.5  Z " stroke-width="1" stroke="#797979" fill="none" />
  <path d="M 1853.5 2270.75  C 1847.2 2270.75  1842.25 2265.8  1842.25 2259.5  C 1842.25 2253.2  1847.2 2248.25  1853.5 2248.25  C 1859.8 2248.25  1864.75 2253.2  1864.75 2259.5  C 1864.75 2265.8  1859.8 2270.75  1853.5 2270.75  " fill-rule="nonzero" fill="#797979" stroke="none" />
</svg>