<?xml version="1.0" encoding="utf-8"?>
<svg version="1.1" xmlns:xlink="http://www.w3.org/1999/xlink" width="35px" height="35px" viewBox="2082 2912  35 35" xmlns="http://www.w3.org/2000/svg">
  <path d="M 2099.5 2912  C 2109.3 2912  2117 2919.7  2117 2929.5  C 2117 2939.3  2109.3 2947  2099.5 2947  C 2089.7 2947  2082 2939.3  2082 2929.5  C 2082 2919.7  2089.7 2912  2099.5 2912  Z " fill-rule="nonzero" fill="#f0f0f0" stroke="none" />
  <path d="M 2099.5 2912.5  C 2109.02 2912.5  2116.5 2919.98  2116.5 2929.5  C 2116.5 2939.02  2109.02 2946.5  2099.5 2946.5  C 2089.98 2946.5  2082.5 2939.02  2082.5 2929.5  C 2082.5 2919.98  2089.98 2912.5  2099.5 2912.5  Z " stroke-width="1" stroke="#797979" fill="none" />
  <path d="M 2099.5 2938.25  C 2094.6 2938.25  2090.75 2934.4  2090.75 2929.5  C 2090.75 2924.6  2094.6 2920.75  2099.5 2920.75  C 2104.4 2920.75  2108.25 2924.6  2108.25 2929.5  C 2108.25 2934.4  2104.4 2938.25  2099.5 2938.25  " fill-rule="nonzero" fill="#797979" stroke="none" />
</svg>