<?xml version="1.0" encoding="utf-8"?>
<svg version="1.1" xmlns:xlink="http://www.w3.org/1999/xlink" width="35px" height="35px" viewBox="2733 2920  35 35" xmlns="http://www.w3.org/2000/svg">
  <path d="M 2750.5 2920  C 2760.3 2920  2768 2927.7  2768 2937.5  C 2768 2947.3  2760.3 2955  2750.5 2955  C 2740.7 2955  2733 2947.3  2733 2937.5  C 2733 2927.7  2740.7 2920  2750.5 2920  Z " fill-rule="nonzero" fill="#f0f0f0" stroke="none" />
  <path d="M 2750.5 2920.5  C 2760.02 2920.5  2767.5 2927.98  2767.5 2937.5  C 2767.5 2947.02  2760.02 2954.5  2750.5 2954.5  C 2740.98 2954.5  2733.5 2947.02  2733.5 2937.5  C 2733.5 2927.98  2740.98 2920.5  2750.5 2920.5  Z " stroke-width="1" stroke="#797979" fill="none" />
  <path d="M 2750.5 2946.25  C 2745.6 2946.25  2741.75 2942.4  2741.75 2937.5  C 2741.75 2932.6  2745.6 2928.75  2750.5 2928.75  C 2755.4 2928.75  2759.25 2932.6  2759.25 2937.5  C 2759.25 2942.4  2755.4 2946.25  2750.5 2946.25  " fill-rule="nonzero" fill="#797979" stroke="none" />
</svg>