<?xml version="1.0" encoding="utf-8"?>
<svg version="1.1" xmlns:xlink="http://www.w3.org/1999/xlink" width="35px" height="35px" viewBox="3405 2920  35 35" xmlns="http://www.w3.org/2000/svg">
  <path d="M 3422.5 2920  C 3432.3 2920  3440 2927.7  3440 2937.5  C 3440 2947.3  3432.3 2955  3422.5 2955  C 3412.7 2955  3405 2947.3  3405 2937.5  C 3405 2927.7  3412.7 2920  3422.5 2920  Z " fill-rule="nonzero" fill="#f0f0f0" stroke="none" />
  <path d="M 3422.5 2920.5  C 3432.02 2920.5  3439.5 2927.98  3439.5 2937.5  C 3439.5 2947.02  3432.02 2954.5  3422.5 2954.5  C 3412.98 2954.5  3405.5 2947.02  3405.5 2937.5  C 3405.5 2927.98  3412.98 2920.5  3422.5 2920.5  Z " stroke-width="1" stroke="#797979" fill="none" />
  <path d="M 3422.5 2946.25  C 3417.6 2946.25  3413.75 2942.4  3413.75 2937.5  C 3413.75 2932.6  3417.6 2928.75  3422.5 2928.75  C 3427.4 2928.75  3431.25 2932.6  3431.25 2937.5  C 3431.25 2942.4  3427.4 2946.25  3422.5 2946.25  " fill-rule="nonzero" fill="#797979" stroke="none" />
</svg>