<?xml version="1.0" encoding="utf-8"?>
<svg version="1.1" xmlns:xlink="http://www.w3.org/1999/xlink" width="45px" height="45px" viewBox="5173 2199  45 45" xmlns="http://www.w3.org/2000/svg">
  <path d="M 5195.5 2199  C 5208.1 2199  5218 2208.9  5218 2221.5  C 5218 2234.1  5208.1 2244  5195.5 2244  C 5182.9 2244  5173 2234.1  5173 2221.5  C 5173 2208.9  5182.9 2199  5195.5 2199  Z " fill-rule="nonzero" fill="#f0f0f0" stroke="none" />
  <path d="M 5195.5 2199.5  C 5207.82 2199.5  5217.5 2209.18  5217.5 2221.5  C 5217.5 2233.82  5207.82 2243.5  5195.5 2243.5  C 5183.18 2243.5  5173.5 2233.82  5173.5 2221.5  C 5173.5 2209.18  5183.18 2199.5  5195.5 2199.5  Z " stroke-width="1" stroke="#797979" fill="none" />
  <path d="M 5195.5 2232.75  C 5189.2 2232.75  5184.25 2227.8  5184.25 2221.5  C 5184.25 2215.2  5189.2 2210.25  5195.5 2210.25  C 5201.8 2210.25  5206.75 2215.2  5206.75 2221.5  C 5206.75 2227.8  5201.8 2232.75  5195.5 2232.75  " fill-rule="nonzero" fill="#797979" stroke="none" />
</svg>