<?xml version="1.0" encoding="utf-8"?>
<svg version="1.1" xmlns:xlink="http://www.w3.org/1999/xlink" width="45px" height="45px" viewBox="5173 2267  45 45" xmlns="http://www.w3.org/2000/svg">
  <path d="M 5195.5 2267  C 5208.1 2267  5218 2276.9  5218 2289.5  C 5218 2302.1  5208.1 2312  5195.5 2312  C 5182.9 2312  5173 2302.1  5173 2289.5  C 5173 2276.9  5182.9 2267  5195.5 2267  Z " fill-rule="nonzero" fill="#ffffff" stroke="none" />
  <path d="M 5195.5 2267.5  C 5207.82 2267.5  5217.5 2277.18  5217.5 2289.5  C 5217.5 2301.82  5207.82 2311.5  5195.5 2311.5  C 5183.18 2311.5  5173.5 2301.82  5173.5 2289.5  C 5173.5 2277.18  5183.18 2267.5  5195.5 2267.5  Z " stroke-width="1" stroke="#797979" fill="none" />
  <path d="M 5195.5 2300.75  C 5189.2 2300.75  5184.25 2295.8  5184.25 2289.5  C 5184.25 2283.2  5189.2 2278.25  5195.5 2278.25  C 5201.8 2278.25  5206.75 2283.2  5206.75 2289.5  C 5206.75 2295.8  5201.8 2300.75  5195.5 2300.75  " fill-rule="nonzero" fill="#797979" stroke="none" />
</svg>