<?xml version="1.0" encoding="utf-8"?>
<svg version="1.1" xmlns:xlink="http://www.w3.org/1999/xlink" width="45px" height="45px" viewBox="5173 1900  45 45" xmlns="http://www.w3.org/2000/svg">
  <path d="M 5195.5 1900  C 5208.1 1900  5218 1909.9  5218 1922.5  C 5218 1935.1  5208.1 1945  5195.5 1945  C 5182.9 1945  5173 1935.1  5173 1922.5  C 5173 1909.9  5182.9 1900  5195.5 1900  Z " fill-rule="nonzero" fill="#ffffff" stroke="none" />
  <path d="M 5195.5 1900.5  C 5207.82 1900.5  5217.5 1910.18  5217.5 1922.5  C 5217.5 1934.82  5207.82 1944.5  5195.5 1944.5  C 5183.18 1944.5  5173.5 1934.82  5173.5 1922.5  C 5173.5 1910.18  5183.18 1900.5  5195.5 1900.5  Z " stroke-width="1" stroke="#797979" fill="none" />
  <path d="M 5195.5 1933.75  C 5189.2 1933.75  5184.25 1928.8  5184.25 1922.5  C 5184.25 1916.2  5189.2 1911.25  5195.5 1911.25  C 5201.8 1911.25  5206.75 1916.2  5206.75 1922.5  C 5206.75 1928.8  5201.8 1933.75  5195.5 1933.75  " fill-rule="nonzero" fill="#797979" stroke="none" />
</svg>