<?xml version="1.0" encoding="utf-8"?>
<svg version="1.1" xmlns:xlink="http://www.w3.org/1999/xlink" width="45px" height="45px" viewBox="8370 2191  45 45" xmlns="http://www.w3.org/2000/svg">
  <path d="M 8392.5 2191  C 8405.1 2191  8415 2200.9  8415 2213.5  C 8415 2226.1  8405.1 2236  8392.5 2236  C 8379.9 2236  8370 2226.1  8370 2213.5  C 8370 2200.9  8379.9 2191  8392.5 2191  Z " fill-rule="nonzero" fill="#ffffff" stroke="none" />
  <path d="M 8392.5 2191.5  C 8404.82 2191.5  8414.5 2201.18  8414.5 2213.5  C 8414.5 2225.82  8404.82 2235.5  8392.5 2235.5  C 8380.18 2235.5  8370.5 2225.82  8370.5 2213.5  C 8370.5 2201.18  8380.18 2191.5  8392.5 2191.5  Z " stroke-width="1" stroke="#797979" fill="none" />
  <path d="M 8392.5 2224.75  C 8386.2 2224.75  8381.25 2219.8  8381.25 2213.5  C 8381.25 2207.2  8386.2 2202.25  8392.5 2202.25  C 8398.8 2202.25  8403.75 2207.2  8403.75 2213.5  C 8403.75 2219.8  8398.8 2224.75  8392.5 2224.75  " fill-rule="nonzero" fill="#797979" stroke="none" />
</svg>