<?xml version="1.0" encoding="utf-8"?>
<svg version="1.1" xmlns:xlink="http://www.w3.org/1999/xlink" width="45px" height="45px" viewBox="8370 2049  45 45" xmlns="http://www.w3.org/2000/svg">
  <path d="M 8392.5 2049  C 8405.1 2049  8415 2058.9  8415 2071.5  C 8415 2084.1  8405.1 2094  8392.5 2094  C 8379.9 2094  8370 2084.1  8370 2071.5  C 8370 2058.9  8379.9 2049  8392.5 2049  Z " fill-rule="nonzero" fill="#f0f0f0" stroke="none" />
  <path d="M 8392.5 2049.5  C 8404.82 2049.5  8414.5 2059.18  8414.5 2071.5  C 8414.5 2083.82  8404.82 2093.5  8392.5 2093.5  C 8380.18 2093.5  8370.5 2083.82  8370.5 2071.5  C 8370.5 2059.18  8380.18 2049.5  8392.5 2049.5  Z " stroke-width="1" stroke="#797979" fill="none" />
  <path d="M 8392.5 2082.75  C 8386.2 2082.75  8381.25 2077.8  8381.25 2071.5  C 8381.25 2065.2  8386.2 2060.25  8392.5 2060.25  C 8398.8 2060.25  8403.75 2065.2  8403.75 2071.5  C 8403.75 2077.8  8398.8 2082.75  8392.5 2082.75  " fill-rule="nonzero" fill="#797979" stroke="none" />
</svg>