<?xml version="1.0" encoding="utf-8"?>
<svg version="1.1" xmlns:xlink="http://www.w3.org/1999/xlink" width="45px" height="45px" viewBox="8370 2117  45 45" xmlns="http://www.w3.org/2000/svg">
  <path d="M 8392.5 2117  C 8405.1 2117  8415 2126.9  8415 2139.5  C 8415 2152.1  8405.1 2162  8392.5 2162  C 8379.9 2162  8370 2152.1  8370 2139.5  C 8370 2126.9  8379.9 2117  8392.5 2117  Z " fill-rule="nonzero" fill="#f0f0f0" stroke="none" />
  <path d="M 8392.5 2117.5  C 8404.82 2117.5  8414.5 2127.18  8414.5 2139.5  C 8414.5 2151.82  8404.82 2161.5  8392.5 2161.5  C 8380.18 2161.5  8370.5 2151.82  8370.5 2139.5  C 8370.5 2127.18  8380.18 2117.5  8392.5 2117.5  Z " stroke-width="1" stroke="#797979" fill="none" />
  <path d="M 8392.5 2150.75  C 8386.2 2150.75  8381.25 2145.8  8381.25 2139.5  C 8381.25 2133.2  8386.2 2128.25  8392.5 2128.25  C 8398.8 2128.25  8403.75 2133.2  8403.75 2139.5  C 8403.75 2145.8  8398.8 2150.75  8392.5 2150.75  " fill-rule="nonzero" fill="#797979" stroke="none" />
</svg>