<?xml version="1.0" encoding="utf-8"?>
<svg version="1.1" xmlns:xlink="http://www.w3.org/1999/xlink" width="60px" height="60px" viewBox="2544 6263  60 60" xmlns="http://www.w3.org/2000/svg">
  <path d="M 2574 6263  C 2590.8 6263  2604 6276.2  2604 6293  C 2604 6309.8  2590.8 6323  2574 6323  C 2557.2 6323  2544 6309.8  2544 6293  C 2544 6276.2  2557.2 6263  2574 6263  Z " fill-rule="nonzero" fill="#f0f0f0" stroke="none" />
  <path d="M 2574 6263.5  C 2590.52 6263.5  2603.5 6276.48  2603.5 6293  C 2603.5 6309.52  2590.52 6322.5  2574 6322.5  C 2557.48 6322.5  2544.5 6309.52  2544.5 6293  C 2544.5 6276.48  2557.48 6263.5  2574 6263.5  Z " stroke-width="1" stroke="#797979" fill="none" />
  <path d="M 2574 6308  C 2565.6 6308  2559 6301.4  2559 6293  C 2559 6284.6  2565.6 6278  2574 6278  C 2582.4 6278  2589 6284.6  2589 6293  C 2589 6301.4  2582.4 6308  2574 6308  " fill-rule="nonzero" fill="#797979" stroke="none" />
</svg>