<?xml version="1.0" encoding="utf-8"?>
<svg version="1.1" xmlns:xlink="http://www.w3.org/1999/xlink" width="60px" height="60px" viewBox="2544 6119  60 60" xmlns="http://www.w3.org/2000/svg">
  <path d="M 2574 6119  C 2590.8 6119  2604 6132.2  2604 6149  C 2604 6165.8  2590.8 6179  2574 6179  C 2557.2 6179  2544 6165.8  2544 6149  C 2544 6132.2  2557.2 6119  2574 6119  Z " fill-rule="nonzero" fill="#ffffff" stroke="none" />
  <path d="M 2574 6119.5  C 2590.52 6119.5  2603.5 6132.48  2603.5 6149  C 2603.5 6165.52  2590.52 6178.5  2574 6178.5  C 2557.48 6178.5  2544.5 6165.52  2544.5 6149  C 2544.5 6132.48  2557.48 6119.5  2574 6119.5  Z " stroke-width="1" stroke="#797979" fill="none" />
  <path d="M 2574 6164  C 2565.6 6164  2559 6157.4  2559 6149  C 2559 6140.6  2565.6 6134  2574 6134  C 2582.4 6134  2589 6140.6  2589 6149  C 2589 6157.4  2582.4 6164  2574 6164  " fill-rule="nonzero" fill="#797979" stroke="none" />
</svg>