<?xml version="1.0" encoding="utf-8"?>
<svg version="1.1" xmlns:xlink="http://www.w3.org/1999/xlink" width="60px" height="60px" viewBox="2544 6052  60 60" xmlns="http://www.w3.org/2000/svg">
  <path d="M 2574 6052  C 2590.8 6052  2604 6065.2  2604 6082  C 2604 6098.8  2590.8 6112  2574 6112  C 2557.2 6112  2544 6098.8  2544 6082  C 2544 6065.2  2557.2 6052  2574 6052  Z " fill-rule="nonzero" fill="#f0f0f0" stroke="none" />
  <path d="M 2574 6052.5  C 2590.52 6052.5  2603.5 6065.48  2603.5 6082  C 2603.5 6098.52  2590.52 6111.5  2574 6111.5  C 2557.48 6111.5  2544.5 6098.52  2544.5 6082  C 2544.5 6065.48  2557.48 6052.5  2574 6052.5  Z " stroke-width="1" stroke="#797979" fill="none" />
  <path d="M 2574 6097  C 2565.6 6097  2559 6090.4  2559 6082  C 2559 6073.6  2565.6 6067  2574 6067  C 2582.4 6067  2589 6073.6  2589 6082  C 2589 6090.4  2582.4 6097  2574 6097  " fill-rule="nonzero" fill="#797979" stroke="none" />
</svg>