<?xml version="1.0" encoding="utf-8"?>
<svg version="1.1" xmlns:xlink="http://www.w3.org/1999/xlink" width="60px" height="60px" viewBox="2544 6332  60 60" xmlns="http://www.w3.org/2000/svg">
  <path d="M 2574 6332  C 2590.8 6332  2604 6345.2  2604 6362  C 2604 6378.8  2590.8 6392  2574 6392  C 2557.2 6392  2544 6378.8  2544 6362  C 2544 6345.2  2557.2 6332  2574 6332  Z " fill-rule="nonzero" fill="#ffffff" stroke="none" />
  <path d="M 2574 6332.5  C 2590.52 6332.5  2603.5 6345.48  2603.5 6362  C 2603.5 6378.52  2590.52 6391.5  2574 6391.5  C 2557.48 6391.5  2544.5 6378.52  2544.5 6362  C 2544.5 6345.48  2557.48 6332.5  2574 6332.5  Z " stroke-width="1" stroke="#797979" fill="none" />
  <path d="M 2574 6377  C 2565.6 6377  2559 6370.4  2559 6362  C 2559 6353.6  2565.6 6347  2574 6347  C 2582.4 6347  2589 6353.6  2589 6362  C 2589 6370.4  2582.4 6377  2574 6377  " fill-rule="nonzero" fill="#797979" stroke="none" />
</svg>