<?xml version="1.0" encoding="utf-8"?>
<svg version="1.1" xmlns:xlink="http://www.w3.org/1999/xlink" width="60px" height="60px" viewBox="2544 5981  60 60" xmlns="http://www.w3.org/2000/svg">
  <path d="M 2574 5981  C 2590.8 5981  2604 5994.2  2604 6011  C 2604 6027.8  2590.8 6041  2574 6041  C 2557.2 6041  2544 6027.8  2544 6011  C 2544 5994.2  2557.2 5981  2574 5981  Z " fill-rule="nonzero" fill="#ffffff" stroke="none" />
  <path d="M 2574 5981.5  C 2590.52 5981.5  2603.5 5994.48  2603.5 6011  C 2603.5 6027.52  2590.52 6040.5  2574 6040.5  C 2557.48 6040.5  2544.5 6027.52  2544.5 6011  C 2544.5 5994.48  2557.48 5981.5  2574 5981.5  Z " stroke-width="1" stroke="#797979" fill="none" />
  <path d="M 2574 6026  C 2565.6 6026  2559 6019.4  2559 6011  C 2559 6002.6  2565.6 5996  2574 5996  C 2582.4 5996  2589 6002.6  2589 6011  C 2589 6019.4  2582.4 6026  2574 6026  " fill-rule="nonzero" fill="#797979" stroke="none" />
</svg>