<?xml version="1.0" encoding="utf-8"?>
<svg version="1.1" xmlns:xlink="http://www.w3.org/1999/xlink" width="60px" height="60px" viewBox="2544 6193  60 60" xmlns="http://www.w3.org/2000/svg">
  <path d="M 2574 6193  C 2590.8 6193  2604 6206.2  2604 6223  C 2604 6239.8  2590.8 6253  2574 6253  C 2557.2 6253  2544 6239.8  2544 6223  C 2544 6206.2  2557.2 6193  2574 6193  Z " fill-rule="nonzero" fill="#f0f0f0" stroke="none" />
  <path d="M 2574 6193.5  C 2590.52 6193.5  2603.5 6206.48  2603.5 6223  C 2603.5 6239.52  2590.52 6252.5  2574 6252.5  C 2557.48 6252.5  2544.5 6239.52  2544.5 6223  C 2544.5 6206.48  2557.48 6193.5  2574 6193.5  Z " stroke-width="1" stroke="#797979" fill="none" />
  <path d="M 2574 6238  C 2565.6 6238  2559 6231.4  2559 6223  C 2559 6214.6  2565.6 6208  2574 6208  C 2582.4 6208  2589 6214.6  2589 6223  C 2589 6231.4  2582.4 6238  2574 6238  " fill-rule="nonzero" fill="#797979" stroke="none" />
</svg>