<?xml version="1.0" encoding="utf-8"?>
<svg version="1.1" xmlns:xlink="http://www.w3.org/1999/xlink" width="60px" height="60px" viewBox="354 3253  60 60" xmlns="http://www.w3.org/2000/svg">
  <path d="M 384 3253  C 400.8 3253  414 3266.2  414 3283  C 414 3299.8  400.8 3313  384 3313  C 367.2 3313  354 3299.8  354 3283  C 354 3266.2  367.2 3253  384 3253  Z " fill-rule="nonzero" fill="#ffffff" stroke="none" />
  <path d="M 384 3253.5  C 400.52 3253.5  413.5 3266.48  413.5 3283  C 413.5 3299.52  400.52 3312.5  384 3312.5  C 367.48 3312.5  354.5 3299.52  354.5 3283  C 354.5 3266.48  367.48 3253.5  384 3253.5  Z " stroke-width="1" stroke="#797979" fill="none" />
  <path d="M 384 3298  C 375.6 3298  369 3291.4  369 3283  C 369 3274.6  375.6 3268  384 3268  C 392.4 3268  399 3274.6  399 3283  C 399 3291.4  392.4 3298  384 3298  " fill-rule="nonzero" fill="#797979" stroke="none" />
</svg>