<?xml version="1.0" encoding="utf-8"?>
<svg version="1.1" xmlns:xlink="http://www.w3.org/1999/xlink" width="60px" height="60px" viewBox="354 3462  60 60" xmlns="http://www.w3.org/2000/svg">
  <path d="M 384 3462  C 400.8 3462  414 3475.2  414 3492  C 414 3508.8  400.8 3522  384 3522  C 367.2 3522  354 3508.8  354 3492  C 354 3475.2  367.2 3462  384 3462  Z " fill-rule="nonzero" fill="#f0f0f0" stroke="none" />
  <path d="M 384 3462.5  C 400.52 3462.5  413.5 3475.48  413.5 3492  C 413.5 3508.52  400.52 3521.5  384 3521.5  C 367.48 3521.5  354.5 3508.52  354.5 3492  C 354.5 3475.48  367.48 3462.5  384 3462.5  Z " stroke-width="1" stroke="#797979" fill="none" />
  <path d="M 384 3507  C 375.6 3507  369 3500.4  369 3492  C 369 3483.6  375.6 3477  384 3477  C 392.4 3477  399 3483.6  399 3492  C 399 3500.4  392.4 3507  384 3507  " fill-rule="nonzero" fill="#797979" stroke="none" />
</svg>