<?xml version="1.0" encoding="utf-8"?>
<svg version="1.1" xmlns:xlink="http://www.w3.org/1999/xlink" width="60px" height="60px" viewBox="354 3392  60 60" xmlns="http://www.w3.org/2000/svg">
  <path d="M 384 3392  C 400.8 3392  414 3405.2  414 3422  C 414 3438.8  400.8 3452  384 3452  C 367.2 3452  354 3438.8  354 3422  C 354 3405.2  367.2 3392  384 3392  Z " fill-rule="nonzero" fill="#f0f0f0" stroke="none" />
  <path d="M 384 3392.5  C 400.52 3392.5  413.5 3405.48  413.5 3422  C 413.5 3438.52  400.52 3451.5  384 3451.5  C 367.48 3451.5  354.5 3438.52  354.5 3422  C 354.5 3405.48  367.48 3392.5  384 3392.5  Z " stroke-width="1" stroke="#797979" fill="none" />
  <path d="M 384 3437  C 375.6 3437  369 3430.4  369 3422  C 369 3413.6  375.6 3407  384 3407  C 392.4 3407  399 3413.6  399 3422  C 399 3430.4  392.4 3437  384 3437  " fill-rule="nonzero" fill="#797979" stroke="none" />
</svg>