<?xml version="1.0" encoding="utf-8"?>
<svg version="1.1" xmlns:xlink="http://www.w3.org/1999/xlink" width="60px" height="60px" viewBox="354 3041  60 60" xmlns="http://www.w3.org/2000/svg">
  <path d="M 384 3041  C 400.8 3041  414 3054.2  414 3071  C 414 3087.8  400.8 3101  384 3101  C 367.2 3101  354 3087.8  354 3071  C 354 3054.2  367.2 3041  384 3041  Z " fill-rule="nonzero" fill="#ffffff" stroke="none" />
  <path d="M 384 3041.5  C 400.52 3041.5  413.5 3054.48  413.5 3071  C 413.5 3087.52  400.52 3100.5  384 3100.5  C 367.48 3100.5  354.5 3087.52  354.5 3071  C 354.5 3054.48  367.48 3041.5  384 3041.5  Z " stroke-width="1" stroke="#797979" fill="none" />
  <path d="M 384 3086  C 375.6 3086  369 3079.4  369 3071  C 369 3062.6  375.6 3056  384 3056  C 392.4 3056  399 3062.6  399 3071  C 399 3079.4  392.4 3086  384 3086  " fill-rule="nonzero" fill="#797979" stroke="none" />
</svg>