<?xml version="1.0" encoding="utf-8"?>
<svg version="1.1" xmlns:xlink="http://www.w3.org/1999/xlink" width="60px" height="60px" viewBox="354 3112  60 60" xmlns="http://www.w3.org/2000/svg">
  <path d="M 384 3112  C 400.8 3112  414 3125.2  414 3142  C 414 3158.8  400.8 3172  384 3172  C 367.2 3172  354 3158.8  354 3142  C 354 3125.2  367.2 3112  384 3112  Z " fill-rule="nonzero" fill="#ffffff" stroke="none" />
  <path d="M 384 3112.5  C 400.52 3112.5  413.5 3125.48  413.5 3142  C 413.5 3158.52  400.52 3171.5  384 3171.5  C 367.48 3171.5  354.5 3158.52  354.5 3142  C 354.5 3125.48  367.48 3112.5  384 3112.5  Z " stroke-width="1" stroke="#797979" fill="none" />
  <path d="M 384 3157  C 375.6 3157  369 3150.4  369 3142  C 369 3133.6  375.6 3127  384 3127  C 392.4 3127  399 3133.6  399 3142  C 399 3150.4  392.4 3157  384 3157  " fill-rule="nonzero" fill="#797979" stroke="none" />
</svg>