<?xml version="1.0" encoding="utf-8"?>
<svg version="1.1" xmlns:xlink="http://www.w3.org/1999/xlink" width="60px" height="60px" viewBox="384 2601  60 60" xmlns="http://www.w3.org/2000/svg">
  <path d="M 414 2601  C 430.8 2601  444 2614.2  444 2631  C 444 2647.8  430.8 2661  414 2661  C 397.2 2661  384 2647.8  384 2631  C 384 2614.2  397.2 2601  414 2601  Z " fill-rule="nonzero" fill="#ffffff" stroke="none" />
  <path d="M 414 2601.5  C 430.52 2601.5  443.5 2614.48  443.5 2631  C 443.5 2647.52  430.52 2660.5  414 2660.5  C 397.48 2660.5  384.5 2647.52  384.5 2631  C 384.5 2614.48  397.48 2601.5  414 2601.5  Z " stroke-width="1" stroke="#797979" fill="none" />
  <path d="M 414 2646  C 405.6 2646  399 2639.4  399 2631  C 399 2622.6  405.6 2616  414 2616  C 422.4 2616  429 2622.6  429 2631  C 429 2639.4  422.4 2646  414 2646  " fill-rule="nonzero" fill="#797979" stroke="none" />
</svg>