<?xml version="1.0" encoding="utf-8"?>
<svg version="1.1" xmlns:xlink="http://www.w3.org/1999/xlink" width="60px" height="60px" viewBox="214 1901  60 60" xmlns="http://www.w3.org/2000/svg">
  <path d="M 244 1901  C 260.8 1901  274 1914.2  274 1931  C 274 1947.8  260.8 1961  244 1961  C 227.2 1961  214 1947.8  214 1931  C 214 1914.2  227.2 1901  244 1901  Z " fill-rule="nonzero" fill="#f0f0f0" stroke="none" />
  <path d="M 244 1901.5  C 260.52 1901.5  273.5 1914.48  273.5 1931  C 273.5 1947.52  260.52 1960.5  244 1960.5  C 227.48 1960.5  214.5 1947.52  214.5 1931  C 214.5 1914.48  227.48 1901.5  244 1901.5  Z " stroke-width="1" stroke="#797979" fill="none" />
  <path d="M 244 1946  C 235.6 1946  229 1939.4  229 1931  C 229 1922.6  235.6 1916  244 1916  C 252.4 1916  259 1922.6  259 1931  C 259 1939.4  252.4 1946  244 1946  " fill-rule="nonzero" fill="#797979" stroke="none" />
</svg>