<?xml version="1.0" encoding="utf-8"?>
<svg version="1.1" xmlns:xlink="http://www.w3.org/1999/xlink" width="60px" height="60px" viewBox="214 1972  60 60" xmlns="http://www.w3.org/2000/svg">
  <path d="M 244 1972  C 260.8 1972  274 1985.2  274 2002  C 274 2018.8  260.8 2032  244 2032  C 227.2 2032  214 2018.8  214 2002  C 214 1985.2  227.2 1972  244 1972  Z " fill-rule="nonzero" fill="#ffffff" stroke="none" />
  <path d="M 244 1972.5  C 260.52 1972.5  273.5 1985.48  273.5 2002  C 273.5 2018.52  260.52 2031.5  244 2031.5  C 227.48 2031.5  214.5 2018.52  214.5 2002  C 214.5 1985.48  227.48 1972.5  244 1972.5  Z " stroke-width="1" stroke="#797979" fill="none" />
  <path d="M 244 2017  C 235.6 2017  229 2010.4  229 2002  C 229 1993.6  235.6 1987  244 1987  C 252.4 1987  259 1993.6  259 2002  C 259 2010.4  252.4 2017  244 2017  " fill-rule="nonzero" fill="#797979" stroke="none" />
</svg>