<?xml version="1.0" encoding="utf-8"?>
<svg version="1.1" xmlns:xlink="http://www.w3.org/1999/xlink" width="60px" height="60px" viewBox="214 2742  60 60" xmlns="http://www.w3.org/2000/svg">
  <path d="M 244 2742  C 260.8 2742  274 2755.2  274 2772  C 274 2788.8  260.8 2802  244 2802  C 227.2 2802  214 2788.8  214 2772  C 214 2755.2  227.2 2742  244 2742  Z " fill-rule="nonzero" fill="#f0f0f0" stroke="none" />
  <path d="M 244 2742.5  C 260.52 2742.5  273.5 2755.48  273.5 2772  C 273.5 2788.52  260.52 2801.5  244 2801.5  C 227.48 2801.5  214.5 2788.52  214.5 2772  C 214.5 2755.48  227.48 2742.5  244 2742.5  Z " stroke-width="1" stroke="#797979" fill="none" />
  <path d="M 244 2787  C 235.6 2787  229 2780.4  229 2772  C 229 2763.6  235.6 2757  244 2757  C 252.4 2757  259 2763.6  259 2772  C 259 2780.4  252.4 2787  244 2787  " fill-rule="nonzero" fill="#797979" stroke="none" />
</svg>