<?xml version="1.0" encoding="utf-8"?>
<svg version="1.1" xmlns:xlink="http://www.w3.org/1999/xlink" width="60px" height="60px" viewBox="214 2322  60 60" xmlns="http://www.w3.org/2000/svg">
  <path d="M 244 2322  C 260.8 2322  274 2335.2  274 2352  C 274 2368.8  260.8 2382  244 2382  C 227.2 2382  214 2368.8  214 2352  C 214 2335.2  227.2 2322  244 2322  Z " fill-rule="nonzero" fill="#ffffff" stroke="none" />
  <path d="M 244 2322.5  C 260.52 2322.5  273.5 2335.48  273.5 2352  C 273.5 2368.52  260.52 2381.5  244 2381.5  C 227.48 2381.5  214.5 2368.52  214.5 2352  C 214.5 2335.48  227.48 2322.5  244 2322.5  Z " stroke-width="1" stroke="#797979" fill="none" />
  <path d="M 244 2367  C 235.6 2367  229 2360.4  229 2352  C 229 2343.6  235.6 2337  244 2337  C 252.4 2337  259 2343.6  259 2352  C 259 2360.4  252.4 2367  244 2367  " fill-rule="nonzero" fill="#797979" stroke="none" />
</svg>