<?xml version="1.0" encoding="utf-8"?>
<svg version="1.1" xmlns:xlink="http://www.w3.org/1999/xlink" width="60px" height="60px" viewBox="214 2251  60 60" xmlns="http://www.w3.org/2000/svg">
  <path d="M 244 2251  C 260.8 2251  274 2264.2  274 2281  C 274 2297.8  260.8 2311  244 2311  C 227.2 2311  214 2297.8  214 2281  C 214 2264.2  227.2 2251  244 2251  Z " fill-rule="nonzero" fill="#ffffff" stroke="none" />
  <path d="M 244 2251.5  C 260.52 2251.5  273.5 2264.48  273.5 2281  C 273.5 2297.52  260.52 2310.5  244 2310.5  C 227.48 2310.5  214.5 2297.52  214.5 2281  C 214.5 2264.48  227.48 2251.5  244 2251.5  Z " stroke-width="1" stroke="#797979" fill="none" />
  <path d="M 244 2296  C 235.6 2296  229 2289.4  229 2281  C 229 2272.6  235.6 2266  244 2266  C 252.4 2266  259 2272.6  259 2281  C 259 2289.4  252.4 2296  244 2296  " fill-rule="nonzero" fill="#797979" stroke="none" />
</svg>