<?xml version="1.0" encoding="utf-8"?>
<svg version="1.1" xmlns:xlink="http://www.w3.org/1999/xlink" width="60px" height="60px" viewBox="214 2392  60 60" xmlns="http://www.w3.org/2000/svg">
  <path d="M 244 2392  C 260.8 2392  274 2405.2  274 2422  C 274 2438.8  260.8 2452  244 2452  C 227.2 2452  214 2438.8  214 2422  C 214 2405.2  227.2 2392  244 2392  Z " fill-rule="nonzero" fill="#ffffff" stroke="none" />
  <path d="M 244 2392.5  C 260.52 2392.5  273.5 2405.48  273.5 2422  C 273.5 2438.52  260.52 2451.5  244 2451.5  C 227.48 2451.5  214.5 2438.52  214.5 2422  C 214.5 2405.48  227.48 2392.5  244 2392.5  Z " stroke-width="1" stroke="#797979" fill="none" />
  <path d="M 244 2437  C 235.6 2437  229 2430.4  229 2422  C 229 2413.6  235.6 2407  244 2407  C 252.4 2407  259 2413.6  259 2422  C 259 2430.4  252.4 2437  244 2437  " fill-rule="nonzero" fill="#797979" stroke="none" />
</svg>