<?xml version="1.0" encoding="utf-8"?>
<svg version="1.1" xmlns:xlink="http://www.w3.org/1999/xlink" width="60px" height="60px" viewBox="214 2039  60 60" xmlns="http://www.w3.org/2000/svg">
  <path d="M 244 2039  C 260.8 2039  274 2052.2  274 2069  C 274 2085.8  260.8 2099  244 2099  C 227.2 2099  214 2085.8  214 2069  C 214 2052.2  227.2 2039  244 2039  Z " fill-rule="nonzero" fill="#ffffff" stroke="none" />
  <path d="M 244 2039.5  C 260.52 2039.5  273.5 2052.48  273.5 2069  C 273.5 2085.52  260.52 2098.5  244 2098.5  C 227.48 2098.5  214.5 2085.52  214.5 2069  C 214.5 2052.48  227.48 2039.5  244 2039.5  Z " stroke-width="1" stroke="#797979" fill="none" />
  <path d="M 244 2084  C 235.6 2084  229 2077.4  229 2069  C 229 2060.6  235.6 2054  244 2054  C 252.4 2054  259 2060.6  259 2069  C 259 2077.4  252.4 2084  244 2084  " fill-rule="nonzero" fill="#797979" stroke="none" />
</svg>