<?xml version="1.0" encoding="utf-8"?>
<svg version="1.1" xmlns:xlink="http://www.w3.org/1999/xlink" width="60px" height="60px" viewBox="214 2180  60 60" xmlns="http://www.w3.org/2000/svg">
  <path d="M 244 2180  C 260.8 2180  274 2193.2  274 2210  C 274 2226.8  260.8 2240  244 2240  C 227.2 2240  214 2226.8  214 2210  C 214 2193.2  227.2 2180  244 2180  Z " fill-rule="nonzero" fill="#ffffff" stroke="none" />
  <path d="M 244 2180.5  C 260.52 2180.5  273.5 2193.48  273.5 2210  C 273.5 2226.52  260.52 2239.5  244 2239.5  C 227.48 2239.5  214.5 2226.52  214.5 2210  C 214.5 2193.48  227.48 2180.5  244 2180.5  Z " stroke-width="1" stroke="#797979" fill="none" />
  <path d="M 244 2225  C 235.6 2225  229 2218.4  229 2210  C 229 2201.6  235.6 2195  244 2195  C 252.4 2195  259 2201.6  259 2210  C 259 2218.4  252.4 2225  244 2225  " fill-rule="nonzero" fill="#797979" stroke="none" />
</svg>