<?xml version="1.0" encoding="utf-8"?>
<svg version="1.1" xmlns:xlink="http://www.w3.org/1999/xlink" width="60px" height="60px" viewBox="214 2532  60 60" xmlns="http://www.w3.org/2000/svg">
  <path d="M 244 2532  C 260.8 2532  274 2545.2  274 2562  C 274 2578.8  260.8 2592  244 2592  C 227.2 2592  214 2578.8  214 2562  C 214 2545.2  227.2 2532  244 2532  Z " fill-rule="nonzero" fill="#ffffff" stroke="none" />
  <path d="M 244 2532.5  C 260.52 2532.5  273.5 2545.48  273.5 2562  C 273.5 2578.52  260.52 2591.5  244 2591.5  C 227.48 2591.5  214.5 2578.52  214.5 2562  C 214.5 2545.48  227.48 2532.5  244 2532.5  Z " stroke-width="1" stroke="#797979" fill="none" />
  <path d="M 244 2577  C 235.6 2577  229 2570.4  229 2562  C 229 2553.6  235.6 2547  244 2547  C 252.4 2547  259 2553.6  259 2562  C 259 2570.4  252.4 2577  244 2577  " fill-rule="nonzero" fill="#797979" stroke="none" />
</svg>