<?xml version="1.0" encoding="utf-8"?>
<svg version="1.1" xmlns:xlink="http://www.w3.org/1999/xlink" width="60px" height="60px" viewBox="214 2602  60 60" xmlns="http://www.w3.org/2000/svg">
  <path d="M 244 2602  C 260.8 2602  274 2615.2  274 2632  C 274 2648.8  260.8 2662  244 2662  C 227.2 2662  214 2648.8  214 2632  C 214 2615.2  227.2 2602  244 2602  Z " fill-rule="nonzero" fill="#f0f0f0" stroke="none" />
  <path d="M 244 2602.5  C 260.52 2602.5  273.5 2615.48  273.5 2632  C 273.5 2648.52  260.52 2661.5  244 2661.5  C 227.48 2661.5  214.5 2648.52  214.5 2632  C 214.5 2615.48  227.48 2602.5  244 2602.5  Z " stroke-width="1" stroke="#797979" fill="none" />
  <path d="M 244 2647  C 235.6 2647  229 2640.4  229 2632  C 229 2623.6  235.6 2617  244 2617  C 252.4 2617  259 2623.6  259 2632  C 259 2640.4  252.4 2647  244 2647  " fill-rule="nonzero" fill="#797979" stroke="none" />
</svg>