<?xml version="1.0" encoding="utf-8"?>
<svg version="1.1" xmlns:xlink="http://www.w3.org/1999/xlink" width="60px" height="60px" viewBox="214 2951  60 60" xmlns="http://www.w3.org/2000/svg">
  <path d="M 244 2951  C 260.8 2951  274 2964.2  274 2981  C 274 2997.8  260.8 3011  244 3011  C 227.2 3011  214 2997.8  214 2981  C 214 2964.2  227.2 2951  244 2951  Z " fill-rule="nonzero" fill="#ffffff" stroke="none" />
  <path d="M 244 2951.5  C 260.52 2951.5  273.5 2964.48  273.5 2981  C 273.5 2997.52  260.52 3010.5  244 3010.5  C 227.48 3010.5  214.5 2997.52  214.5 2981  C 214.5 2964.48  227.48 2951.5  244 2951.5  Z " stroke-width="1" stroke="#797979" fill="none" />
  <path d="M 244 2996  C 235.6 2996  229 2989.4  229 2981  C 229 2972.6  235.6 2966  244 2966  C 252.4 2966  259 2972.6  259 2981  C 259 2989.4  252.4 2996  244 2996  " fill-rule="nonzero" fill="#797979" stroke="none" />
</svg>