<?xml version="1.0" encoding="utf-8"?>
<svg version="1.1" xmlns:xlink="http://www.w3.org/1999/xlink" width="60px" height="60px" viewBox="214 3025  60 60" xmlns="http://www.w3.org/2000/svg">
  <path d="M 244 3025  C 260.8 3025  274 3038.2  274 3055  C 274 3071.8  260.8 3085  244 3085  C 227.2 3085  214 3071.8  214 3055  C 214 3038.2  227.2 3025  244 3025  Z " fill-rule="nonzero" fill="#ffffff" stroke="none" />
  <path d="M 244 3025.5  C 260.52 3025.5  273.5 3038.48  273.5 3055  C 273.5 3071.52  260.52 3084.5  244 3084.5  C 227.48 3084.5  214.5 3071.52  214.5 3055  C 214.5 3038.48  227.48 3025.5  244 3025.5  Z " stroke-width="1" stroke="#797979" fill="none" />
  <path d="M 244 3070  C 235.6 3070  229 3063.4  229 3055  C 229 3046.6  235.6 3040  244 3040  C 252.4 3040  259 3046.6  259 3055  C 259 3063.4  252.4 3070  244 3070  " fill-rule="nonzero" fill="#797979" stroke="none" />
</svg>