<?xml version="1.0" encoding="utf-8"?>
<svg version="1.1" xmlns:xlink="http://www.w3.org/1999/xlink" width="60px" height="60px" viewBox="2800 1074  60 60" xmlns="http://www.w3.org/2000/svg">
  <path d="M 2830 1074  C 2846.8 1074  2860 1087.2  2860 1104  C 2860 1120.8  2846.8 1134  2830 1134  C 2813.2 1134  2800 1120.8  2800 1104  C 2800 1087.2  2813.2 1074  2830 1074  Z " fill-rule="nonzero" fill="#ffffff" stroke="none" />
  <path d="M 2830 1074.5  C 2846.52 1074.5  2859.5 1087.48  2859.5 1104  C 2859.5 1120.52  2846.52 1133.5  2830 1133.5  C 2813.48 1133.5  2800.5 1120.52  2800.5 1104  C 2800.5 1087.48  2813.48 1074.5  2830 1074.5  Z " stroke-width="1" stroke="#797979" fill="none" />
  <path d="M 2830 1119  C 2821.6 1119  2815 1112.4  2815 1104  C 2815 1095.6  2821.6 1089  2830 1089  C 2838.4 1089  2845 1095.6  2845 1104  C 2845 1112.4  2838.4 1119  2830 1119  " fill-rule="nonzero" fill="#797979" stroke="none" />
</svg>