<?xml version="1.0" encoding="utf-8"?>
<svg version="1.1" xmlns:xlink="http://www.w3.org/1999/xlink" width="60px" height="60px" viewBox="2800 653  60 60" xmlns="http://www.w3.org/2000/svg">
  <path d="M 2830 653  C 2846.8 653  2860 666.2  2860 683  C 2860 699.8  2846.8 713  2830 713  C 2813.2 713  2800 699.8  2800 683  C 2800 666.2  2813.2 653  2830 653  Z " fill-rule="nonzero" fill="#ffffff" stroke="none" />
  <path d="M 2830 653.5  C 2846.52 653.5  2859.5 666.48  2859.5 683  C 2859.5 699.52  2846.52 712.5  2830 712.5  C 2813.48 712.5  2800.5 699.52  2800.5 683  C 2800.5 666.48  2813.48 653.5  2830 653.5  Z " stroke-width="1" stroke="#797979" fill="none" />
  <path d="M 2830 698  C 2821.6 698  2815 691.4  2815 683  C 2815 674.6  2821.6 668  2830 668  C 2838.4 668  2845 674.6  2845 683  C 2845 691.4  2838.4 698  2830 698  " fill-rule="nonzero" fill="#797979" stroke="none" />
</svg>