<?xml version="1.0" encoding="utf-8"?>
<svg version="1.1" xmlns:xlink="http://www.w3.org/1999/xlink" width="60px" height="60px" viewBox="2800 862  60 60" xmlns="http://www.w3.org/2000/svg">
  <path d="M 2830 862  C 2846.8 862  2860 875.2  2860 892  C 2860 908.8  2846.8 922  2830 922  C 2813.2 922  2800 908.8  2800 892  C 2800 875.2  2813.2 862  2830 862  Z " fill-rule="nonzero" fill="#ffffff" stroke="none" />
  <path d="M 2830 862.5  C 2846.52 862.5  2859.5 875.48  2859.5 892  C 2859.5 908.52  2846.52 921.5  2830 921.5  C 2813.48 921.5  2800.5 908.52  2800.5 892  C 2800.5 875.48  2813.48 862.5  2830 862.5  Z " stroke-width="1" stroke="#797979" fill="none" />
  <path d="M 2830 907  C 2821.6 907  2815 900.4  2815 892  C 2815 883.6  2821.6 877  2830 877  C 2838.4 877  2845 883.6  2845 892  C 2845 900.4  2838.4 907  2830 907  " fill-rule="nonzero" fill="#797979" stroke="none" />
</svg>