<?xml version="1.0" encoding="utf-8"?>
<svg version="1.1" xmlns:xlink="http://www.w3.org/1999/xlink" width="60px" height="60px" viewBox="2800 1284  60 60" xmlns="http://www.w3.org/2000/svg">
  <path d="M 2830 1284  C 2846.8 1284  2860 1297.2  2860 1314  C 2860 1330.8  2846.8 1344  2830 1344  C 2813.2 1344  2800 1330.8  2800 1314  C 2800 1297.2  2813.2 1284  2830 1284  Z " fill-rule="nonzero" fill="#ffffff" stroke="none" />
  <path d="M 2830 1284.5  C 2846.52 1284.5  2859.5 1297.48  2859.5 1314  C 2859.5 1330.52  2846.52 1343.5  2830 1343.5  C 2813.48 1343.5  2800.5 1330.52  2800.5 1314  C 2800.5 1297.48  2813.48 1284.5  2830 1284.5  Z " stroke-width="1" stroke="#797979" fill="none" />
  <path d="M 2830 1329  C 2821.6 1329  2815 1322.4  2815 1314  C 2815 1305.6  2821.6 1299  2830 1299  C 2838.4 1299  2845 1305.6  2845 1314  C 2845 1322.4  2838.4 1329  2830 1329  " fill-rule="nonzero" fill="#797979" stroke="none" />
</svg>