<?xml version="1.0" encoding="utf-8"?>
<svg version="1.1" xmlns:xlink="http://www.w3.org/1999/xlink" width="60px" height="60px" viewBox="2800 1354  60 60" xmlns="http://www.w3.org/2000/svg">
  <path d="M 2830 1354  C 2846.8 1354  2860 1367.2  2860 1384  C 2860 1400.8  2846.8 1414  2830 1414  C 2813.2 1414  2800 1400.8  2800 1384  C 2800 1367.2  2813.2 1354  2830 1354  Z " fill-rule="nonzero" fill="#f0f0f0" stroke="none" />
  <path d="M 2830 1354.5  C 2846.52 1354.5  2859.5 1367.48  2859.5 1384  C 2859.5 1400.52  2846.52 1413.5  2830 1413.5  C 2813.48 1413.5  2800.5 1400.52  2800.5 1384  C 2800.5 1367.48  2813.48 1354.5  2830 1354.5  Z " stroke-width="1" stroke="#797979" fill="none" />
  <path d="M 2830 1399  C 2821.6 1399  2815 1392.4  2815 1384  C 2815 1375.6  2821.6 1369  2830 1369  C 2838.4 1369  2845 1375.6  2845 1384  C 2845 1392.4  2838.4 1399  2830 1399  " fill-rule="nonzero" fill="#797979" stroke="none" />
</svg>