<?xml version="1.0" encoding="utf-8"?>
<svg version="1.1" xmlns:xlink="http://www.w3.org/1999/xlink" width="60px" height="60px" viewBox="2800 791  60 60" xmlns="http://www.w3.org/2000/svg">
  <path d="M 2830 791  C 2846.8 791  2860 804.2  2860 821  C 2860 837.8  2846.8 851  2830 851  C 2813.2 851  2800 837.8  2800 821  C 2800 804.2  2813.2 791  2830 791  Z " fill-rule="nonzero" fill="#ffffff" stroke="none" />
  <path d="M 2830 791.5  C 2846.52 791.5  2859.5 804.48  2859.5 821  C 2859.5 837.52  2846.52 850.5  2830 850.5  C 2813.48 850.5  2800.5 837.52  2800.5 821  C 2800.5 804.48  2813.48 791.5  2830 791.5  Z " stroke-width="1" stroke="#797979" fill="none" />
  <path d="M 2830 836  C 2821.6 836  2815 829.4  2815 821  C 2815 812.6  2821.6 806  2830 806  C 2838.4 806  2845 812.6  2845 821  C 2845 829.4  2838.4 836  2830 836  " fill-rule="nonzero" fill="#797979" stroke="none" />
</svg>