<?xml version="1.0" encoding="utf-8"?>
<svg version="1.1" xmlns:xlink="http://www.w3.org/1999/xlink" width="60px" height="60px" viewBox="2800 1144  60 60" xmlns="http://www.w3.org/2000/svg">
  <path d="M 2830 1144  C 2846.8 1144  2860 1157.2  2860 1174  C 2860 1190.8  2846.8 1204  2830 1204  C 2813.2 1204  2800 1190.8  2800 1174  C 2800 1157.2  2813.2 1144  2830 1144  Z " fill-rule="nonzero" fill="#f0f0f0" stroke="none" />
  <path d="M 2830 1144.5  C 2846.52 1144.5  2859.5 1157.48  2859.5 1174  C 2859.5 1190.52  2846.52 1203.5  2830 1203.5  C 2813.48 1203.5  2800.5 1190.52  2800.5 1174  C 2800.5 1157.48  2813.48 1144.5  2830 1144.5  Z " stroke-width="1" stroke="#797979" fill="none" />
  <path d="M 2830 1189  C 2821.6 1189  2815 1182.4  2815 1174  C 2815 1165.6  2821.6 1159  2830 1159  C 2838.4 1159  2845 1165.6  2845 1174  C 2845 1182.4  2838.4 1189  2830 1189  " fill-rule="nonzero" fill="#797979" stroke="none" />
</svg>