<?xml version="1.0" encoding="utf-8"?>
<svg version="1.1" xmlns:xlink="http://www.w3.org/1999/xlink" width="60px" height="60px" viewBox="2800 724  60 60" xmlns="http://www.w3.org/2000/svg">
  <path d="M 2830 724  C 2846.8 724  2860 737.2  2860 754  C 2860 770.8  2846.8 784  2830 784  C 2813.2 784  2800 770.8  2800 754  C 2800 737.2  2813.2 724  2830 724  Z " fill-rule="nonzero" fill="#ffffff" stroke="none" />
  <path d="M 2830 724.5  C 2846.52 724.5  2859.5 737.48  2859.5 754  C 2859.5 770.52  2846.52 783.5  2830 783.5  C 2813.48 783.5  2800.5 770.52  2800.5 754  C 2800.5 737.48  2813.48 724.5  2830 724.5  Z " stroke-width="1" stroke="#797979" fill="none" />
  <path d="M 2830 769  C 2821.6 769  2815 762.4  2815 754  C 2815 745.6  2821.6 739  2830 739  C 2838.4 739  2845 745.6  2845 754  C 2845 762.4  2838.4 769  2830 769  " fill-rule="nonzero" fill="#797979" stroke="none" />
</svg>