<?xml version="1.0" encoding="utf-8"?>
<svg version="1.1" xmlns:xlink="http://www.w3.org/1999/xlink" width="60px" height="60px" viewBox="2800 1003  60 60" xmlns="http://www.w3.org/2000/svg">
  <path d="M 2830 1003  C 2846.8 1003  2860 1016.2  2860 1033  C 2860 1049.8  2846.8 1063  2830 1063  C 2813.2 1063  2800 1049.8  2800 1033  C 2800 1016.2  2813.2 1003  2830 1003  Z " fill-rule="nonzero" fill="#f0f0f0" stroke="none" />
  <path d="M 2830 1003.5  C 2846.52 1003.5  2859.5 1016.48  2859.5 1033  C 2859.5 1049.52  2846.52 1062.5  2830 1062.5  C 2813.48 1062.5  2800.5 1049.52  2800.5 1033  C 2800.5 1016.48  2813.48 1003.5  2830 1003.5  Z " stroke-width="1" stroke="#797979" fill="none" />
  <path d="M 2830 1048  C 2821.6 1048  2815 1041.4  2815 1033  C 2815 1024.6  2821.6 1018  2830 1018  C 2838.4 1018  2845 1024.6  2845 1033  C 2845 1041.4  2838.4 1048  2830 1048  " fill-rule="nonzero" fill="#797979" stroke="none" />
</svg>