<?xml version="1.0" encoding="utf-8"?>
<svg version="1.1" xmlns:xlink="http://www.w3.org/1999/xlink" width="60px" height="60px" viewBox="2800 932  60 60" xmlns="http://www.w3.org/2000/svg">
  <path d="M 2830 932  C 2846.8 932  2860 945.2  2860 962  C 2860 978.8  2846.8 992  2830 992  C 2813.2 992  2800 978.8  2800 962  C 2800 945.2  2813.2 932  2830 932  Z " fill-rule="nonzero" fill="#f0f0f0" stroke="none" />
  <path d="M 2830 932.5  C 2846.52 932.5  2859.5 945.48  2859.5 962  C 2859.5 978.52  2846.52 991.5  2830 991.5  C 2813.48 991.5  2800.5 978.52  2800.5 962  C 2800.5 945.48  2813.48 932.5  2830 932.5  Z " stroke-width="1" stroke="#797979" fill="none" />
  <path d="M 2830 977  C 2821.6 977  2815 970.4  2815 962  C 2815 953.6  2821.6 947  2830 947  C 2838.4 947  2845 953.6  2845 962  C 2845 970.4  2838.4 977  2830 977  " fill-rule="nonzero" fill="#797979" stroke="none" />
</svg>