<?xml version="1.0" encoding="utf-8"?>
<svg version="1.1" xmlns:xlink="http://www.w3.org/1999/xlink" width="60px" height="60px" viewBox="294 1362  60 60" xmlns="http://www.w3.org/2000/svg">
  <path d="M 324 1362  C 340.8 1362  354 1375.2  354 1392  C 354 1408.8  340.8 1422  324 1422  C 307.2 1422  294 1408.8  294 1392  C 294 1375.2  307.2 1362  324 1362  Z " fill-rule="nonzero" fill="#ffffff" stroke="none" />
  <path d="M 324 1362.5  C 340.52 1362.5  353.5 1375.48  353.5 1392  C 353.5 1408.52  340.52 1421.5  324 1421.5  C 307.48 1421.5  294.5 1408.52  294.5 1392  C 294.5 1375.48  307.48 1362.5  324 1362.5  Z " stroke-width="1" stroke="#797979" fill="none" />
  <path d="M 324 1407  C 315.6 1407  309 1400.4  309 1392  C 309 1383.6  315.6 1377  324 1377  C 332.4 1377  339 1383.6  339 1392  C 339 1400.4  332.4 1407  324 1407  " fill-rule="nonzero" fill="#797979" stroke="none" />
</svg>