<?xml version="1.0" encoding="utf-8"?>
<svg version="1.1" xmlns:xlink="http://www.w3.org/1999/xlink" width="60px" height="60px" viewBox="354 1903  60 60" xmlns="http://www.w3.org/2000/svg">
  <path d="M 384 1903  C 400.8 1903  414 1916.2  414 1933  C 414 1949.8  400.8 1963  384 1963  C 367.2 1963  354 1949.8  354 1933  C 354 1916.2  367.2 1903  384 1903  Z " fill-rule="nonzero" fill="#ffffff" stroke="none" />
  <path d="M 384 1903.5  C 400.52 1903.5  413.5 1916.48  413.5 1933  C 413.5 1949.52  400.52 1962.5  384 1962.5  C 367.48 1962.5  354.5 1949.52  354.5 1933  C 354.5 1916.48  367.48 1903.5  384 1903.5  Z " stroke-width="1" stroke="#797979" fill="none" />
  <path d="M 384 1948  C 375.6 1948  369 1941.4  369 1933  C 369 1924.6  375.6 1918  384 1918  C 392.4 1918  399 1924.6  399 1933  C 399 1941.4  392.4 1948  384 1948  " fill-rule="nonzero" fill="#797979" stroke="none" />
</svg>