<?xml version="1.0" encoding="utf-8"?>
<svg version="1.1" xmlns:xlink="http://www.w3.org/1999/xlink" width="60px" height="60px" viewBox="354 1692  60 60" xmlns="http://www.w3.org/2000/svg">
  <path d="M 384 1692  C 400.8 1692  414 1705.2  414 1722  C 414 1738.8  400.8 1752  384 1752  C 367.2 1752  354 1738.8  354 1722  C 354 1705.2  367.2 1692  384 1692  Z " fill-rule="nonzero" fill="#f0f0f0" stroke="none" />
  <path d="M 384 1692.5  C 400.52 1692.5  413.5 1705.48  413.5 1722  C 413.5 1738.52  400.52 1751.5  384 1751.5  C 367.48 1751.5  354.5 1738.52  354.5 1722  C 354.5 1705.48  367.48 1692.5  384 1692.5  Z " stroke-width="1" stroke="#797979" fill="none" />
  <path d="M 384 1737  C 375.6 1737  369 1730.4  369 1722  C 369 1713.6  375.6 1707  384 1707  C 392.4 1707  399 1713.6  399 1722  C 399 1730.4  392.4 1737  384 1737  " fill-rule="nonzero" fill="#797979" stroke="none" />
</svg>