<?xml version="1.0" encoding="utf-8"?>
<svg version="1.1" xmlns:xlink="http://www.w3.org/1999/xlink" width="60px" height="60px" viewBox="354 1621  60 60" xmlns="http://www.w3.org/2000/svg">
  <path d="M 384 1621  C 400.8 1621  414 1634.2  414 1651  C 414 1667.8  400.8 1681  384 1681  C 367.2 1681  354 1667.8  354 1651  C 354 1634.2  367.2 1621  384 1621  Z " fill-rule="nonzero" fill="#f0f0f0" stroke="none" />
  <path d="M 384 1621.5  C 400.52 1621.5  413.5 1634.48  413.5 1651  C 413.5 1667.52  400.52 1680.5  384 1680.5  C 367.48 1680.5  354.5 1667.52  354.5 1651  C 354.5 1634.48  367.48 1621.5  384 1621.5  Z " stroke-width="1" stroke="#797979" fill="none" />
  <path d="M 384 1666  C 375.6 1666  369 1659.4  369 1651  C 369 1642.6  375.6 1636  384 1636  C 392.4 1636  399 1642.6  399 1651  C 399 1659.4  392.4 1666  384 1666  " fill-rule="nonzero" fill="#797979" stroke="none" />
</svg>