<?xml version="1.0" encoding="utf-8"?>
<svg version="1.1" xmlns:xlink="http://www.w3.org/1999/xlink" width="60px" height="60px" viewBox="354 1972  60 60" xmlns="http://www.w3.org/2000/svg">
  <path d="M 384 1972  C 400.8 1972  414 1985.2  414 2002  C 414 2018.8  400.8 2032  384 2032  C 367.2 2032  354 2018.8  354 2002  C 354 1985.2  367.2 1972  384 1972  Z " fill-rule="nonzero" fill="#ffffff" stroke="none" />
  <path d="M 384 1972.5  C 400.52 1972.5  413.5 1985.48  413.5 2002  C 413.5 2018.52  400.52 2031.5  384 2031.5  C 367.48 2031.5  354.5 2018.52  354.5 2002  C 354.5 1985.48  367.48 1972.5  384 1972.5  Z " stroke-width="1" stroke="#797979" fill="none" />
  <path d="M 384 2017  C 375.6 2017  369 2010.4  369 2002  C 369 1993.6  375.6 1987  384 1987  C 392.4 1987  399 1993.6  399 2002  C 399 2010.4  392.4 2017  384 2017  " fill-rule="nonzero" fill="#797979" stroke="none" />
</svg>