<?xml version="1.0" encoding="utf-8"?>
<svg version="1.1" xmlns:xlink="http://www.w3.org/1999/xlink" width="60px" height="60px" viewBox="2248 1833  60 60" xmlns="http://www.w3.org/2000/svg">
  <path d="M 2278 1833  C 2294.8 1833  2308 1846.2  2308 1863  C 2308 1879.8  2294.8 1893  2278 1893  C 2261.2 1893  2248 1879.8  2248 1863  C 2248 1846.2  2261.2 1833  2278 1833  Z " fill-rule="nonzero" fill="#ffffff" stroke="none" />
  <path d="M 2278 1833.5  C 2294.52 1833.5  2307.5 1846.48  2307.5 1863  C 2307.5 1879.52  2294.52 1892.5  2278 1892.5  C 2261.48 1892.5  2248.5 1879.52  2248.5 1863  C 2248.5 1846.48  2261.48 1833.5  2278 1833.5  Z " stroke-width="1" stroke="#797979" fill="none" />
  <path d="M 2278 1878  C 2269.6 1878  2263 1871.4  2263 1863  C 2263 1854.6  2269.6 1848  2278 1848  C 2286.4 1848  2293 1854.6  2293 1863  C 2293 1871.4  2286.4 1878  2278 1878  " fill-rule="nonzero" fill="#797979" stroke="none" />
</svg>