<?xml version="1.0" encoding="utf-8"?>
<svg version="1.1" xmlns:xlink="http://www.w3.org/1999/xlink" width="60px" height="60px" viewBox="2248 1759  60 60" xmlns="http://www.w3.org/2000/svg">
  <path d="M 2278 1759  C 2294.8 1759  2308 1772.2  2308 1789  C 2308 1805.8  2294.8 1819  2278 1819  C 2261.2 1819  2248 1805.8  2248 1789  C 2248 1772.2  2261.2 1759  2278 1759  Z " fill-rule="nonzero" fill="#ffffff" stroke="none" />
  <path d="M 2278 1759.5  C 2294.52 1759.5  2307.5 1772.48  2307.5 1789  C 2307.5 1805.52  2294.52 1818.5  2278 1818.5  C 2261.48 1818.5  2248.5 1805.52  2248.5 1789  C 2248.5 1772.48  2261.48 1759.5  2278 1759.5  Z " stroke-width="1" stroke="#797979" fill="none" />
  <path d="M 2278 1804  C 2269.6 1804  2263 1797.4  2263 1789  C 2263 1780.6  2269.6 1774  2278 1774  C 2286.4 1774  2293 1780.6  2293 1789  C 2293 1797.4  2286.4 1804  2278 1804  " fill-rule="nonzero" fill="#797979" stroke="none" />
</svg>