<?xml version="1.0" encoding="utf-8"?>
<svg version="1.1" xmlns:xlink="http://www.w3.org/1999/xlink" width="60px" height="60px" viewBox="2248 1692  60 60" xmlns="http://www.w3.org/2000/svg">
  <path d="M 2278 1692  C 2294.8 1692  2308 1705.2  2308 1722  C 2308 1738.8  2294.8 1752  2278 1752  C 2261.2 1752  2248 1738.8  2248 1722  C 2248 1705.2  2261.2 1692  2278 1692  Z " fill-rule="nonzero" fill="#ffffff" stroke="none" />
  <path d="M 2278 1692.5  C 2294.52 1692.5  2307.5 1705.48  2307.5 1722  C 2307.5 1738.52  2294.52 1751.5  2278 1751.5  C 2261.48 1751.5  2248.5 1738.52  2248.5 1722  C 2248.5 1705.48  2261.48 1692.5  2278 1692.5  Z " stroke-width="1" stroke="#797979" fill="none" />
  <path d="M 2278 1737  C 2269.6 1737  2263 1730.4  2263 1722  C 2263 1713.6  2269.6 1707  2278 1707  C 2286.4 1707  2293 1713.6  2293 1722  C 2293 1730.4  2286.4 1737  2278 1737  " fill-rule="nonzero" fill="#797979" stroke="none" />
</svg>