<?xml version="1.0" encoding="utf-8"?>
<svg version="1.1" xmlns:xlink="http://www.w3.org/1999/xlink" width="60px" height="60px" viewBox="353 2112  60 60" xmlns="http://www.w3.org/2000/svg">
  <path d="M 383 2112  C 399.8 2112  413 2125.2  413 2142  C 413 2158.8  399.8 2172  383 2172  C 366.2 2172  353 2158.8  353 2142  C 353 2125.2  366.2 2112  383 2112  Z " fill-rule="nonzero" fill="#f0f0f0" stroke="none" />
  <path d="M 383 2112.5  C 399.52 2112.5  412.5 2125.48  412.5 2142  C 412.5 2158.52  399.52 2171.5  383 2171.5  C 366.48 2171.5  353.5 2158.52  353.5 2142  C 353.5 2125.48  366.48 2112.5  383 2112.5  Z " stroke-width="1" stroke="#797979" fill="none" />
  <path d="M 383 2157  C 374.6 2157  368 2150.4  368 2142  C 368 2133.6  374.6 2127  383 2127  C 391.4 2127  398 2133.6  398 2142  C 398 2150.4  391.4 2157  383 2157  " fill-rule="nonzero" fill="#797979" stroke="none" />
</svg>