<?xml version="1.0" encoding="utf-8"?>
<svg version="1.1" xmlns:xlink="http://www.w3.org/1999/xlink" width="60px" height="60px" viewBox="2248 1903  60 60" xmlns="http://www.w3.org/2000/svg">
  <path d="M 2278 1903  C 2294.8 1903  2308 1916.2  2308 1933  C 2308 1949.8  2294.8 1963  2278 1963  C 2261.2 1963  2248 1949.8  2248 1933  C 2248 1916.2  2261.2 1903  2278 1903  Z " fill-rule="nonzero" fill="#ffffff" stroke="none" />
  <path d="M 2278 1903.5  C 2294.52 1903.5  2307.5 1916.48  2307.5 1933  C 2307.5 1949.52  2294.52 1962.5  2278 1962.5  C 2261.48 1962.5  2248.5 1949.52  2248.5 1933  C 2248.5 1916.48  2261.48 1903.5  2278 1903.5  Z " stroke-width="1" stroke="#797979" fill="none" />
  <path d="M 2278 1948  C 2269.6 1948  2263 1941.4  2263 1933  C 2263 1924.6  2269.6 1918  2278 1918  C 2286.4 1918  2293 1924.6  2293 1933  C 2293 1941.4  2286.4 1948  2278 1948  " fill-rule="nonzero" fill="#797979" stroke="none" />
</svg>