<?xml version="1.0" encoding="utf-8"?>
<svg version="1.1" xmlns:xlink="http://www.w3.org/1999/xlink" width="60px" height="60px" viewBox="354 2042  60 60" xmlns="http://www.w3.org/2000/svg">
  <path d="M 384 2042  C 400.8 2042  414 2055.2  414 2072  C 414 2088.8  400.8 2102  384 2102  C 367.2 2102  354 2088.8  354 2072  C 354 2055.2  367.2 2042  384 2042  Z " fill-rule="nonzero" fill="#f0f0f0" stroke="none" />
  <path d="M 384 2042.5  C 400.52 2042.5  413.5 2055.48  413.5 2072  C 413.5 2088.52  400.52 2101.5  384 2101.5  C 367.48 2101.5  354.5 2088.52  354.5 2072  C 354.5 2055.48  367.48 2042.5  384 2042.5  Z " stroke-width="1" stroke="#797979" fill="none" />
  <path d="M 384 2087  C 375.6 2087  369 2080.4  369 2072  C 369 2063.6  375.6 2057  384 2057  C 392.4 2057  399 2063.6  399 2072  C 399 2080.4  392.4 2087  384 2087  " fill-rule="nonzero" fill="#797979" stroke="none" />
</svg>