<?xml version="1.0" encoding="utf-8"?>
<svg version="1.1" xmlns:xlink="http://www.w3.org/1999/xlink" width="60px" height="60px" viewBox="2248 1621  60 60" xmlns="http://www.w3.org/2000/svg">
  <path d="M 2278 1621  C 2294.8 1621  2308 1634.2  2308 1651  C 2308 1667.8  2294.8 1681  2278 1681  C 2261.2 1681  2248 1667.8  2248 1651  C 2248 1634.2  2261.2 1621  2278 1621  Z " fill-rule="nonzero" fill="#ffffff" stroke="none" />
  <path d="M 2278 1621.5  C 2294.52 1621.5  2307.5 1634.48  2307.5 1651  C 2307.5 1667.52  2294.52 1680.5  2278 1680.5  C 2261.48 1680.5  2248.5 1667.52  2248.5 1651  C 2248.5 1634.48  2261.48 1621.5  2278 1621.5  Z " stroke-width="1" stroke="#797979" fill="none" />
  <path d="M 2278 1666  C 2269.6 1666  2263 1659.4  2263 1651  C 2263 1642.6  2269.6 1636  2278 1636  C 2286.4 1636  2293 1642.6  2293 1651  C 2293 1659.4  2286.4 1666  2278 1666  " fill-rule="nonzero" fill="#797979" stroke="none" />
</svg>