<?xml version="1.0" encoding="utf-8"?>
<svg version="1.1" xmlns:xlink="http://www.w3.org/1999/xlink" width="60px" height="60px" viewBox="354 4331  60 60" xmlns="http://www.w3.org/2000/svg">
  <path d="M 384 4331  C 400.8 4331  414 4344.2  414 4361  C 414 4377.8  400.8 4391  384 4391  C 367.2 4391  354 4377.8  354 4361  C 354 4344.2  367.2 4331  384 4331  Z " fill-rule="nonzero" fill="#f0f0f0" stroke="none" />
  <path d="M 384 4331.5  C 400.52 4331.5  413.5 4344.48  413.5 4361  C 413.5 4377.52  400.52 4390.5  384 4390.5  C 367.48 4390.5  354.5 4377.52  354.5 4361  C 354.5 4344.48  367.48 4331.5  384 4331.5  Z " stroke-width="1" stroke="#797979" fill="none" />
  <path d="M 384 4376  C 375.6 4376  369 4369.4  369 4361  C 369 4352.6  375.6 4346  384 4346  C 392.4 4346  399 4352.6  399 4361  C 399 4369.4  392.4 4376  384 4376  " fill-rule="nonzero" fill="#797979" stroke="none" />
</svg>