<?xml version="1.0" encoding="utf-8"?>
<svg version="1.1" xmlns:xlink="http://www.w3.org/1999/xlink" width="60px" height="60px" viewBox="354 4613  60 60" xmlns="http://www.w3.org/2000/svg">
  <path d="M 384 4613  C 400.8 4613  414 4626.2  414 4643  C 414 4659.8  400.8 4673  384 4673  C 367.2 4673  354 4659.8  354 4643  C 354 4626.2  367.2 4613  384 4613  Z " fill-rule="nonzero" fill="#f0f0f0" stroke="none" />
  <path d="M 384 4613.5  C 400.52 4613.5  413.5 4626.48  413.5 4643  C 413.5 4659.52  400.52 4672.5  384 4672.5  C 367.48 4672.5  354.5 4659.52  354.5 4643  C 354.5 4626.48  367.48 4613.5  384 4613.5  Z " stroke-width="1" stroke="#797979" fill="none" />
  <path d="M 384 4658  C 375.6 4658  369 4651.4  369 4643  C 369 4634.6  375.6 4628  384 4628  C 392.4 4628  399 4634.6  399 4643  C 399 4651.4  392.4 4658  384 4658  " fill-rule="nonzero" fill="#797979" stroke="none" />
</svg>