<?xml version="1.0" encoding="utf-8"?>
<svg version="1.1" xmlns:xlink="http://www.w3.org/1999/xlink" width="60px" height="60px" viewBox="354 4402  60 60" xmlns="http://www.w3.org/2000/svg">
  <path d="M 384 4402  C 400.8 4402  414 4415.2  414 4432  C 414 4448.8  400.8 4462  384 4462  C 367.2 4462  354 4448.8  354 4432  C 354 4415.2  367.2 4402  384 4402  Z " fill-rule="nonzero" fill="#f0f0f0" stroke="none" />
  <path d="M 384 4402.5  C 400.52 4402.5  413.5 4415.48  413.5 4432  C 413.5 4448.52  400.52 4461.5  384 4461.5  C 367.48 4461.5  354.5 4448.52  354.5 4432  C 354.5 4415.48  367.48 4402.5  384 4402.5  Z " stroke-width="1" stroke="#797979" fill="none" />
  <path d="M 384 4447  C 375.6 4447  369 4440.4  369 4432  C 369 4423.6  375.6 4417  384 4417  C 392.4 4417  399 4423.6  399 4432  C 399 4440.4  392.4 4447  384 4447  " fill-rule="nonzero" fill="#797979" stroke="none" />
</svg>