<?xml version="1.0" encoding="utf-8"?>
<svg version="1.1" xmlns:xlink="http://www.w3.org/1999/xlink" width="60px" height="60px" viewBox="354 4682  60 60" xmlns="http://www.w3.org/2000/svg">
  <path d="M 384 4682  C 400.8 4682  414 4695.2  414 4712  C 414 4728.8  400.8 4742  384 4742  C 367.2 4742  354 4728.8  354 4712  C 354 4695.2  367.2 4682  384 4682  Z " fill-rule="nonzero" fill="#f0f0f0" stroke="none" />
  <path d="M 384 4682.5  C 400.52 4682.5  413.5 4695.48  413.5 4712  C 413.5 4728.52  400.52 4741.5  384 4741.5  C 367.48 4741.5  354.5 4728.52  354.5 4712  C 354.5 4695.48  367.48 4682.5  384 4682.5  Z " stroke-width="1" stroke="#797979" fill="none" />
  <path d="M 384 4727  C 375.6 4727  369 4720.4  369 4712  C 369 4703.6  375.6 4697  384 4697  C 392.4 4697  399 4703.6  399 4712  C 399 4720.4  392.4 4727  384 4727  " fill-rule="nonzero" fill="#797979" stroke="none" />
</svg>