<?xml version="1.0" encoding="utf-8"?>
<svg version="1.1" xmlns:xlink="http://www.w3.org/1999/xlink" width="60px" height="60px" viewBox="354 4469  60 60" xmlns="http://www.w3.org/2000/svg">
  <path d="M 384 4469  C 400.8 4469  414 4482.2  414 4499  C 414 4515.8  400.8 4529  384 4529  C 367.2 4529  354 4515.8  354 4499  C 354 4482.2  367.2 4469  384 4469  Z " fill-rule="nonzero" fill="#f0f0f0" stroke="none" />
  <path d="M 384 4469.5  C 400.52 4469.5  413.5 4482.48  413.5 4499  C 413.5 4515.52  400.52 4528.5  384 4528.5  C 367.48 4528.5  354.5 4515.52  354.5 4499  C 354.5 4482.48  367.48 4469.5  384 4469.5  Z " stroke-width="1" stroke="#797979" fill="none" />
  <path d="M 384 4514  C 375.6 4514  369 4507.4  369 4499  C 369 4490.6  375.6 4484  384 4484  C 392.4 4484  399 4490.6  399 4499  C 399 4507.4  392.4 4514  384 4514  " fill-rule="nonzero" fill="#797979" stroke="none" />
</svg>