<?xml version="1.0" encoding="utf-8"?>
<svg version="1.1" xmlns:xlink="http://www.w3.org/1999/xlink" width="60px" height="60px" viewBox="354 4543  60 60" xmlns="http://www.w3.org/2000/svg">
  <path d="M 384 4543  C 400.8 4543  414 4556.2  414 4573  C 414 4589.8  400.8 4603  384 4603  C 367.2 4603  354 4589.8  354 4573  C 354 4556.2  367.2 4543  384 4543  Z " fill-rule="nonzero" fill="#f0f0f0" stroke="none" />
  <path d="M 384 4543.5  C 400.52 4543.5  413.5 4556.48  413.5 4573  C 413.5 4589.52  400.52 4602.5  384 4602.5  C 367.48 4602.5  354.5 4589.52  354.5 4573  C 354.5 4556.48  367.48 4543.5  384 4543.5  Z " stroke-width="1" stroke="#797979" fill="none" />
  <path d="M 384 4588  C 375.6 4588  369 4581.4  369 4573  C 369 4564.6  375.6 4558  384 4558  C 392.4 4558  399 4564.6  399 4573  C 399 4581.4  392.4 4588  384 4588  " fill-rule="nonzero" fill="#797979" stroke="none" />
</svg>