<?xml version="1.0" encoding="utf-8"?>
<svg version="1.1" xmlns:xlink="http://www.w3.org/1999/xlink" width="60px" height="60px" viewBox="2248 2042  60 60" xmlns="http://www.w3.org/2000/svg">
  <path d="M 2278 2042  C 2294.8 2042  2308 2055.2  2308 2072  C 2308 2088.8  2294.8 2102  2278 2102  C 2261.2 2102  2248 2088.8  2248 2072  C 2248 2055.2  2261.2 2042  2278 2042  Z " fill-rule="nonzero" fill="#f0f0f0" stroke="none" />
  <path d="M 2278 2042.5  C 2294.52 2042.5  2307.5 2055.48  2307.5 2072  C 2307.5 2088.52  2294.52 2101.5  2278 2101.5  C 2261.48 2101.5  2248.5 2088.52  2248.5 2072  C 2248.5 2055.48  2261.48 2042.5  2278 2042.5  Z " stroke-width="1" stroke="#797979" fill="none" />
  <path d="M 2278 2087  C 2269.6 2087  2263 2080.4  2263 2072  C 2263 2063.6  2269.6 2057  2278 2057  C 2286.4 2057  2293 2063.6  2293 2072  C 2293 2080.4  2286.4 2087  2278 2087  " fill-rule="nonzero" fill="#797979" stroke="none" />
</svg>