<?xml version="1.0" encoding="utf-8"?>
<svg version="1.1" xmlns:xlink="http://www.w3.org/1999/xlink" width="60px" height="60px" viewBox="353 4822  60 60" xmlns="http://www.w3.org/2000/svg">
  <path d="M 383 4822  C 399.8 4822  413 4835.2  413 4852  C 413 4868.8  399.8 4882  383 4882  C 366.2 4882  353 4868.8  353 4852  C 353 4835.2  366.2 4822  383 4822  Z " fill-rule="nonzero" fill="#ffffff" stroke="none" />
  <path d="M 383 4822.5  C 399.52 4822.5  412.5 4835.48  412.5 4852  C 412.5 4868.52  399.52 4881.5  383 4881.5  C 366.48 4881.5  353.5 4868.52  353.5 4852  C 353.5 4835.48  366.48 4822.5  383 4822.5  Z " stroke-width="1" stroke="#797979" fill="none" />
  <path d="M 383 4867  C 374.6 4867  368 4860.4  368 4852  C 368 4843.6  374.6 4837  383 4837  C 391.4 4837  398 4843.6  398 4852  C 398 4860.4  391.4 4867  383 4867  " fill-rule="nonzero" fill="#797979" stroke="none" />
</svg>