<?xml version="1.0" encoding="utf-8"?>
<svg version="1.1" xmlns:xlink="http://www.w3.org/1999/xlink" width="50px" height="46px" xmlns="http://www.w3.org/2000/svg">
  <g transform="matrix(1 0 0 1 -1509 -4855 )">
    <path d="M 13 30  L 13 42  L 37 42  L 37 30  L 13 30  Z M 41 29.7083333333333  L 41 42.1666666666667  L 45 42.1666666666667  L 45 15.3333333333333  C 45.8333333333333 15.0538194444444  45.7248263888889 14.6694878472222  45.5078125 14.1803385416667  C 45.2907986111111 13.6911892361111  45.0737847222222 13.3467881944444  44.8567708333333 13.1471354166667  L 35.7096354166667 4.73177083333333  C 35.4926215277778 4.53211805555555  35.1236979166667 4.33246527777777  34.6028645833333 4.1328125  C 34.08203125 3.93315972222222  33.6588541666667 3.83333333333333  33 3.83333333333333  L 33 16.2916666666667  C 33.3333333333333 17.0902777777778  33.0295138888889 17.7690972222222  32.421875 18.328125  C 31.8142361111111 18.8871527777778  31.0763888888889 19.1666666666667  30.2083333333333 20  L 11.4583333333333 20  C 10.5902777777778 19.1666666666667  9.85243055555556 18.8871527777778  9.24479166666667 18.328125  C 8.63715277777778 17.7690972222222  8.33333333333333 17.0902777777778  9 16.2916666666667  L 9 3.83333333333333  L 5 3.83333333333333  L 5 42.1666666666667  L 9 42.1666666666667  L 9 29.7083333333333  C 8.33333333333333 28.9097222222222  8.63715277777778 28.2309027777778  9.24479166666667 27.671875  C 9.85243055555556 27.1128472222222  10.5902777777778 26.8333333333333  11.4583333333333 26  L 38.5416666666667 26  C 39.4097222222222 26.8333333333333  40.1475694444445 27.1128472222222  40.7552083333333 27.671875  C 41.3628472222222 28.2309027777778  41.6666666666667 28.9097222222222  41 29.7083333333333  Z M 28.857421875 15.048828125  C 29.0635850694444 14.8591579861111  29.1666666666667 14.6345486111111  29.1666666666667 14.375  L 29.1666666666667 4.79166666666667  C 29.1666666666667 4.53211805555555  29.0635850694444 4.30750868055555  28.857421875 4.11783854166667  C 28.6512586805556 3.92816840277777  28.4071180555556 3.83333333333333  28.125 3.83333333333333  L 21.875 3.83333333333333  C 21.5928819444444 3.83333333333333  21.3487413194444 3.92816840277777  21.142578125 4.11783854166667  C 20.9364149305556 4.30750868055555  20.8333333333333 4.53211805555555  20.8333333333333 4.79166666666667  L 20.8333333333333 14.375  C 20.8333333333333 14.6345486111111  20.9364149305556 14.8591579861111  21.142578125 15.048828125  C 21.3487413194444 15.2384982638889  21.5928819444444 15.3333333333333  21.875 15.3333333333333  L 28.125 15.3333333333333  C 28.4071180555556 15.3333333333333  28.6512586805556 15.2384982638889  28.857421875 15.048828125  Z M 49.3489583333333 12.6979166666667  C 49.7829861111111 13.65625  50 14.5347222222222  50 15.3333333333333  L 50 43.125  C 50 43.9236111111111  49.6961805555556 44.6024305555556  49.0885416666667 45.1614583333333  C 48.4809027777778 45.7204861111111  47.7430555555556 46  46.875 46  L 3.125 46  C 2.25694444444444 46  1.51909722222222 45.7204861111111  0.911458333333333 45.1614583333333  C 0.303819444444444 44.6024305555556  0 43.9236111111111  0 43.125  L 0 2.875  C 0 2.07638888888889  0.303819444444444 1.39756944444444  0.911458333333333 0.838541666666665  C 1.51909722222222 0.279513888888887  2.25694444444444 0  3.125 0  L 33.3333333333333 0  C 34.2013888888889 0  35.15625 0.199652777777773  36.1979166666667 0.598958333333335  C 37.2395833333333 0.998263888888887  38.0642361111111 1.47743055555555  38.671875 2.03645833333333  L 47.7864583333333 10.421875  C 48.3940972222222 10.9809027777778  48.9149305555556 11.7395833333333  49.3489583333333 12.6979166666667  Z " fill-rule="nonzero" fill="#000000" stroke="none" transform="matrix(1 0 0 1 1509 4855 )" />
  </g>
</svg>