<?xml version="1.0" encoding="utf-8"?>
<svg version="1.1" xmlns:xlink="http://www.w3.org/1999/xlink" width="50px" height="41px" xmlns="http://www.w3.org/2000/svg">
  <g transform="matrix(1 0 0 1 -1364 -4850 )">
    <path d="M 46.0486778846154 3.82919034090909  C 48.6828926282051 6.38198390151515  50 9.45407196969697  50 13.0454545454545  L 50 20.5  C 50 21.0047348484848  49.8096955128205 21.4415246212121  49.4290865384615 21.8103693181818  C 49.0484775641026 22.1792140151515  48.5977564102564 22.3636363636364  48.0769230769231 22.3636363636364  L 46.1538461538462 22.3636363636364  C 45.6330128205128 22.3636363636364  45.1822916666667 22.1792140151515  44.8016826923077 21.8103693181818  C 44.4210737179487 21.4415246212121  44.2307692307692 21.0047348484848  44.2307692307692 20.5  L 44.2307692307692 13.0454545454545  C 44.2307692307692 10.9876893939394  43.4795673076923 9.23082386363636  41.9771634615385 7.77485795454545  C 40.4747596153846 6.31889204545455  38.661858974359 5.59090909090909  36.5384615384615 5.59090909090909  C 34.4150641025641 5.59090909090909  32.6021634615385 6.31889204545455  31.0997596153846 7.77485795454545  C 29.5973557692308 9.23082386363636  28.8461538461539 10.9876893939394  28.8461538461538 13.0454545454545  L 28.8461538461538 18.6363636363636  L 31.7307692307692 18.6363636363636  C 32.5320512820513 18.6363636363636  33.213141025641 18.9081439393939  33.7740384615385 19.4517045454545  C 34.3349358974359 19.9952651515152  34.6153846153846 20.655303030303  34 21.4318181818182  L 34 38.2045454545455  C 34.6153846153846 38.9810606060606  34.3349358974359 39.6410984848485  33.7740384615385 40.1846590909091  C 33.213141025641 40.7282196969697  32.5320512820513 41  31.7307692307692 41  L 2.88461538461538 41  C 2.08333333333333 41  1.40224358974359 40.7282196969697  0.841346153846154 40.1846590909091  C 0.280448717948718 39.6410984848485  0 38.9810606060606  0 38.2045454545455  L 0 21.4318181818182  C 0 20.655303030303  0.280448717948718 19.9952651515152  0.841346153846154 19.4517045454545  C 1.40224358974359 18.9081439393939  2.08333333333333 18.6363636363636  2.88461538461538 19  L 23.0769230769231 19  L 23.0769230769231 13.0454545454545  C 23.0769230769231 9.45407196969697  24.3940304487179 6.38198390151515  27.0282451923077 3.82919034090909  C 29.6624599358974 1.27639678030303  32.8325320512821 0  36.5384615384615 0  C 40.244391025641 0  43.4144631410256 1.27639678030303  46.0486778846154 3.82919034090909  Z " fill-rule="nonzero" fill="#000000" stroke="none" transform="matrix(1 0 0 1 1364 4850 )" />
  </g>
</svg>