<?xml version="1.0" encoding="utf-8"?>
<svg version="1.1" xmlns:xlink="http://www.w3.org/1999/xlink" width="1316px" height="32px" xmlns="http://www.w3.org/2000/svg">
  <g transform="matrix(1 0 0 1 -382 -418 )">
    <path d="M 383 422  A 3 3 0 0 1 386 419 L 1694 419  A 3 3 0 0 1 1697 422 L 1697 446  A 3 3 0 0 1 1694 449 L 386 449  A 3 3 0 0 1 383 446 L 383 422  Z " fill-rule="nonzero" fill="#ffffff" stroke="none" />
    <path d="M 382.5 422  A 3.5 3.5 0 0 1 386 418.5 L 1694 418.5  A 3.5 3.5 0 0 1 1697.5 422 L 1697.5 446  A 3.5 3.5 0 0 1 1694 449.5 L 386 449.5  A 3.5 3.5 0 0 1 382.5 446 L 382.5 422  Z " stroke-width="1" stroke-dasharray="9,4" stroke="#d9d9d9" fill="none" stroke-dashoffset="0.5" />
  </g>
</svg>