<?xml version="1.0" encoding="utf-8"?>
<svg version="1.1" xmlns:xlink="http://www.w3.org/1999/xlink" width="1316px" height="32px" xmlns="http://www.w3.org/2000/svg">
  <defs>
    <mask fill="white" id="clip26">
      <path d="M 0 28  L 0 4  C 0 1.76000000000022  1.75999999999999 0  4 0  L 1312 0  C 1314.24 0  1316 1.76000000000022  1316 4  L 1316 28  C 1316 30.2399999999998  1314.24 32  1312 32  L 703.935483870968 32  L 4 32  C 1.75999999999999 32  0 30.2399999999998  0 28  Z " fill-rule="evenodd" />
    </mask>
  </defs>
  <g transform="matrix(1 0 0 1 -383 -656 )">
    <path d="M 0 28  L 0 4  C 0 1.76000000000022  1.75999999999999 0  4 0  L 1312 0  C 1314.24 0  1316 1.76000000000022  1316 4  L 1316 28  C 1316 30.2399999999998  1314.24 32  1312 32  L 703.935483870968 32  L 4 32  C 1.75999999999999 32  0 30.2399999999998  0 28  Z " fill-rule="nonzero" fill="#ffffff" stroke="none" transform="matrix(1 0 0 1 383 656 )" />
    <path d="M 0 28  L 0 4  C 0 1.76000000000022  1.75999999999999 0  4 0  L 1312 0  C 1314.24 0  1316 1.76000000000022  1316 4  L 1316 28  C 1316 30.2399999999998  1314.24 32  1312 32  L 703.935483870968 32  L 4 32  C 1.75999999999999 32  0 30.2399999999998  0 28  Z " stroke-width="2" stroke-dasharray="9,4" stroke="#d9d9d9" fill="none" transform="matrix(1 0 0 1 383 656 )" mask="url(#clip26)" />
  </g>
</svg>