<?xml version="1.0" encoding="utf-8"?>
<svg version="1.1" xmlns:xlink="http://www.w3.org/1999/xlink" width="60px" height="60px" viewBox="206 1264  60 60" xmlns="http://www.w3.org/2000/svg">
  <path d="M 236 1264  C 252.8 1264  266 1277.2  266 1294  C 266 1310.8  252.8 1324  236 1324  C 219.2 1324  206 1310.8  206 1294  C 206 1277.2  219.2 1264  236 1264  Z " fill-rule="nonzero" fill="#ffffff" stroke="none" />
  <path d="M 236 1264.5  C 252.52 1264.5  265.5 1277.48  265.5 1294  C 265.5 1310.52  252.52 1323.5  236 1323.5  C 219.48 1323.5  206.5 1310.52  206.5 1294  C 206.5 1277.48  219.48 1264.5  236 1264.5  Z " stroke-width="1" stroke="#797979" fill="none" />
  <path d="M 236 1309  C 227.6 1309  221 1302.4  221 1294  C 221 1285.6  227.6 1279  236 1279  C 244.4 1279  251 1285.6  251 1294  C 251 1302.4  244.4 1309  236 1309  " fill-rule="nonzero" fill="#797979" stroke="none" />
</svg>