<?xml version="1.0" encoding="utf-8"?>
<svg version="1.1" xmlns:xlink="http://www.w3.org/1999/xlink" width="60px" height="60px" viewBox="206 1194  60 60" xmlns="http://www.w3.org/2000/svg">
  <path d="M 236 1194  C 252.8 1194  266 1207.2  266 1224  C 266 1240.8  252.8 1254  236 1254  C 219.2 1254  206 1240.8  206 1224  C 206 1207.2  219.2 1194  236 1194  Z " fill-rule="nonzero" fill="#ffffff" stroke="none" />
  <path d="M 236 1194.5  C 252.52 1194.5  265.5 1207.48  265.5 1224  C 265.5 1240.52  252.52 1253.5  236 1253.5  C 219.48 1253.5  206.5 1240.52  206.5 1224  C 206.5 1207.48  219.48 1194.5  236 1194.5  Z " stroke-width="1" stroke="#797979" fill="none" />
  <path d="M 236 1239  C 227.6 1239  221 1232.4  221 1224  C 221 1215.6  227.6 1209  236 1209  C 244.4 1209  251 1215.6  251 1224  C 251 1232.4  244.4 1239  236 1239  " fill-rule="nonzero" fill="#797979" stroke="none" />
</svg>