<?xml version="1.0" encoding="utf-8"?>
<svg version="1.1" xmlns:xlink="http://www.w3.org/1999/xlink" width="60px" height="60px" viewBox="294 799  60 60" xmlns="http://www.w3.org/2000/svg">
  <path d="M 324 799  C 340.8 799  354 812.2  354 829  C 354 845.8  340.8 859  324 859  C 307.2 859  294 845.8  294 829  C 294 812.2  307.2 799  324 799  Z " fill-rule="nonzero" fill="#ffffff" stroke="none" />
  <path d="M 324 799.5  C 340.52 799.5  353.5 812.48  353.5 829  C 353.5 845.52  340.52 858.5  324 858.5  C 307.48 858.5  294.5 845.52  294.5 829  C 294.5 812.48  307.48 799.5  324 799.5  Z " stroke-width="1" stroke="#797979" fill="none" />
  <path d="M 324 844  C 315.6 844  309 837.4  309 829  C 309 820.6  315.6 814  324 814  C 332.4 814  339 820.6  339 829  C 339 837.4  332.4 844  324 844  " fill-rule="nonzero" fill="#797979" stroke="none" />
</svg>