<?xml version="1.0" encoding="utf-8"?>
<svg version="1.1" xmlns:xlink="http://www.w3.org/1999/xlink" width="60px" height="60px" viewBox="294 661  60 60" xmlns="http://www.w3.org/2000/svg">
  <path d="M 324 661  C 340.8 661  354 674.2  354 691  C 354 707.8  340.8 721  324 721  C 307.2 721  294 707.8  294 691  C 294 674.2  307.2 661  324 661  Z " fill-rule="nonzero" fill="#ffffff" stroke="none" />
  <path d="M 324 661.5  C 340.52 661.5  353.5 674.48  353.5 691  C 353.5 707.52  340.52 720.5  324 720.5  C 307.48 720.5  294.5 707.52  294.5 691  C 294.5 674.48  307.48 661.5  324 661.5  Z " stroke-width="1" stroke="#797979" fill="none" />
  <path d="M 324 706  C 315.6 706  309 699.4  309 691  C 309 682.6  315.6 676  324 676  C 332.4 676  339 682.6  339 691  C 339 699.4  332.4 706  324 706  " fill-rule="nonzero" fill="#797979" stroke="none" />
</svg>