<?xml version="1.0" encoding="utf-8"?>
<svg version="1.1" xmlns:xlink="http://www.w3.org/1999/xlink" width="60px" height="60px" viewBox="294 1292  60 60" xmlns="http://www.w3.org/2000/svg">
  <path d="M 324 1292  C 340.8 1292  354 1305.2  354 1322  C 354 1338.8  340.8 1352  324 1352  C 307.2 1352  294 1338.8  294 1322  C 294 1305.2  307.2 1292  324 1292  Z " fill-rule="nonzero" fill="#f0f0f0" stroke="none" />
  <path d="M 324 1292.5  C 340.52 1292.5  353.5 1305.48  353.5 1322  C 353.5 1338.52  340.52 1351.5  324 1351.5  C 307.48 1351.5  294.5 1338.52  294.5 1322  C 294.5 1305.48  307.48 1292.5  324 1292.5  Z " stroke-width="1" stroke="#797979" fill="none" />
  <path d="M 324 1337  C 315.6 1337  309 1330.4  309 1322  C 309 1313.6  315.6 1307  324 1307  C 332.4 1307  339 1313.6  339 1322  C 339 1330.4  332.4 1337  324 1337  " fill-rule="nonzero" fill="#797979" stroke="none" />
</svg>