<?xml version="1.0" encoding="utf-8"?>
<svg version="1.1" xmlns:xlink="http://www.w3.org/1999/xlink" width="60px" height="60px" viewBox="294 1152  60 60" xmlns="http://www.w3.org/2000/svg">
  <path d="M 324 1152  C 340.8 1152  354 1165.2  354 1182  C 354 1198.8  340.8 1212  324 1212  C 307.2 1212  294 1198.8  294 1182  C 294 1165.2  307.2 1152  324 1152  Z " fill-rule="nonzero" fill="#ffffff" stroke="none" />
  <path d="M 324 1152.5  C 340.52 1152.5  353.5 1165.48  353.5 1182  C 353.5 1198.52  340.52 1211.5  324 1211.5  C 307.48 1211.5  294.5 1198.52  294.5 1182  C 294.5 1165.48  307.48 1152.5  324 1152.5  Z " stroke-width="1" stroke="#797979" fill="none" />
  <path d="M 324 1197  C 315.6 1197  309 1190.4  309 1182  C 309 1173.6  315.6 1167  324 1167  C 332.4 1167  339 1173.6  339 1182  C 339 1190.4  332.4 1197  324 1197  " fill-rule="nonzero" fill="#797979" stroke="none" />
</svg>