<?xml version="1.0" encoding="utf-8"?>
<svg version="1.1" xmlns:xlink="http://www.w3.org/1999/xlink" width="60px" height="60px" viewBox="294 1011  60 60" xmlns="http://www.w3.org/2000/svg">
  <path d="M 324 1011  C 340.8 1011  354 1024.2  354 1041  C 354 1057.8  340.8 1071  324 1071  C 307.2 1071  294 1057.8  294 1041  C 294 1024.2  307.2 1011  324 1011  Z " fill-rule="nonzero" fill="#ffffff" stroke="none" />
  <path d="M 324 1011.5  C 340.52 1011.5  353.5 1024.48  353.5 1041  C 353.5 1057.52  340.52 1070.5  324 1070.5  C 307.48 1070.5  294.5 1057.52  294.5 1041  C 294.5 1024.48  307.48 1011.5  324 1011.5  Z " stroke-width="1" stroke="#797979" fill="none" />
  <path d="M 324 1056  C 315.6 1056  309 1049.4  309 1041  C 309 1032.6  315.6 1026  324 1026  C 332.4 1026  339 1032.6  339 1041  C 339 1049.4  332.4 1056  324 1056  " fill-rule="nonzero" fill="#797979" stroke="none" />
</svg>