<?xml version="1.0" encoding="utf-8"?>
<svg version="1.1" xmlns:xlink="http://www.w3.org/1999/xlink" width="60px" height="60px" viewBox="294 1082  60 60" xmlns="http://www.w3.org/2000/svg">
  <path d="M 324 1082  C 340.8 1082  354 1095.2  354 1112  C 354 1128.8  340.8 1142  324 1142  C 307.2 1142  294 1128.8  294 1112  C 294 1095.2  307.2 1082  324 1082  Z " fill-rule="nonzero" fill="#f0f0f0" stroke="none" />
  <path d="M 324 1082.5  C 340.52 1082.5  353.5 1095.48  353.5 1112  C 353.5 1128.52  340.52 1141.5  324 1141.5  C 307.48 1141.5  294.5 1128.52  294.5 1112  C 294.5 1095.48  307.48 1082.5  324 1082.5  Z " stroke-width="1" stroke="#797979" fill="none" />
  <path d="M 324 1127  C 315.6 1127  309 1120.4  309 1112  C 309 1103.6  315.6 1097  324 1097  C 332.4 1097  339 1103.6  339 1112  C 339 1120.4  332.4 1127  324 1127  " fill-rule="nonzero" fill="#797979" stroke="none" />
</svg>