<?xml version="1.0" encoding="utf-8"?>
<svg version="1.1" xmlns:xlink="http://www.w3.org/1999/xlink" width="60px" height="60px" viewBox="384 2671  60 60" xmlns="http://www.w3.org/2000/svg">
  <path d="M 414 2671  C 430.8 2671  444 2684.2  444 2701  C 444 2717.8  430.8 2731  414 2731  C 397.2 2731  384 2717.8  384 2701  C 384 2684.2  397.2 2671  414 2671  Z " fill-rule="nonzero" fill="#f0f0f0" stroke="none" />
  <path d="M 414 2671.5  C 430.52 2671.5  443.5 2684.48  443.5 2701  C 443.5 2717.52  430.52 2730.5  414 2730.5  C 397.48 2730.5  384.5 2717.52  384.5 2701  C 384.5 2684.48  397.48 2671.5  414 2671.5  Z " stroke-width="1" stroke="#797979" fill="none" />
  <path d="M 414 2716  C 405.6 2716  399 2709.4  399 2701  C 399 2692.6  405.6 2686  414 2686  C 422.4 2686  429 2692.6  429 2701  C 429 2709.4  422.4 2716  414 2716  " fill-rule="nonzero" fill="#797979" stroke="none" />
</svg>