<?xml version="1.0" encoding="utf-8"?>
<svg version="1.1" xmlns:xlink="http://www.w3.org/1999/xlink" width="60px" height="60px" viewBox="384 2816  60 60" xmlns="http://www.w3.org/2000/svg">
  <path d="M 414 2816  C 430.8 2816  444 2829.2  444 2846  C 444 2862.8  430.8 2876  414 2876  C 397.2 2876  384 2862.8  384 2846  C 384 2829.2  397.2 2816  414 2816  Z " fill-rule="nonzero" fill="#ffffff" stroke="none" />
  <path d="M 414 2816.5  C 430.52 2816.5  443.5 2829.48  443.5 2846  C 443.5 2862.52  430.52 2875.5  414 2875.5  C 397.48 2875.5  384.5 2862.52  384.5 2846  C 384.5 2829.48  397.48 2816.5  414 2816.5  Z " stroke-width="1" stroke="#797979" fill="none" />
  <path d="M 414 2861  C 405.6 2861  399 2854.4  399 2846  C 399 2837.6  405.6 2831  414 2831  C 422.4 2831  429 2837.6  429 2846  C 429 2854.4  422.4 2861  414 2861  " fill-rule="nonzero" fill="#797979" stroke="none" />
</svg>