<?xml version="1.0" encoding="utf-8"?>
<svg version="1.1" xmlns:xlink="http://www.w3.org/1999/xlink" width="60px" height="60px" viewBox="384 2741  60 60" xmlns="http://www.w3.org/2000/svg">
  <path d="M 414 2741  C 430.8 2741  444 2754.2  444 2771  C 444 2787.8  430.8 2801  414 2801  C 397.2 2801  384 2787.8  384 2771  C 384 2754.2  397.2 2741  414 2741  Z " fill-rule="nonzero" fill="#f0f0f0" stroke="none" />
  <path d="M 414 2741.5  C 430.52 2741.5  443.5 2754.48  443.5 2771  C 443.5 2787.52  430.52 2800.5  414 2800.5  C 397.48 2800.5  384.5 2787.52  384.5 2771  C 384.5 2754.48  397.48 2741.5  414 2741.5  Z " stroke-width="1" stroke="#797979" fill="none" />
  <path d="M 414 2786  C 405.6 2786  399 2779.4  399 2771  C 399 2762.6  405.6 2756  414 2756  C 422.4 2756  429 2762.6  429 2771  C 429 2779.4  422.4 2786  414 2786  " fill-rule="nonzero" fill="#797979" stroke="none" />
</svg>