<?xml version="1.0" encoding="utf-8"?>
<svg version="1.1" xmlns:xlink="http://www.w3.org/1999/xlink" width="95px" height="60px" xmlns="http://www.w3.org/2000/svg">
  <g transform="matrix(1 0 0 1 -3660 -1616 )">
    <path d="M 3660 1616  L 3755 1616  L 3755 1676  L 3660 1676  L 3660 1616  " fill-rule="nonzero" fill="#cccccc" stroke="none" />
    <path d="M 3664 1620  L 3751 1620  L 3751 1672  L 3664 1672  L 3664 1620  " fill-rule="nonzero" fill="#ffffff" stroke="none" />
    <path d="M 3713.9 1634  C 3711.38 1634  3709.4 1632.02  3709.4 1629.5  C 3709.4 1626.98  3711.38 1625  3713.9 1625  C 3716.42 1625  3718.4 1626.98  3718.4 1629.5  C 3718.4 1632.02  3716.42 1634  3713.9 1634  " fill-rule="nonzero" fill="#cccccc" stroke="none" />
    <path d="M 3666 1671  L 3666 1644.05  L 3687 1631.8  L 3716.4 1652.43157894737  L 3733.2 1639.15  L 3750 1652.43157894737  L 3750 1671  L 3666 1671  " fill-rule="nonzero" fill="#169bd5" stroke="none" />
  </g>
</svg>