<?xml version="1.0" encoding="utf-8"?>
<svg version="1.1" xmlns:xlink="http://www.w3.org/1999/xlink" width="60px" height="60px" viewBox="384 4693  60 60" xmlns="http://www.w3.org/2000/svg">
  <path d="M 414 4693  C 430.8 4693  444 4706.2  444 4723  C 444 4739.8  430.8 4753  414 4753  C 397.2 4753  384 4739.8  384 4723  C 384 4706.2  397.2 4693  414 4693  Z " fill-rule="nonzero" fill="#ffffff" stroke="none" />
  <path d="M 414 4693.5  C 430.52 4693.5  443.5 4706.48  443.5 4723  C 443.5 4739.52  430.52 4752.5  414 4752.5  C 397.48 4752.5  384.5 4739.52  384.5 4723  C 384.5 4706.48  397.48 4693.5  414 4693.5  Z " stroke-width="1" stroke="#797979" fill="none" />
  <path d="M 414 4738  C 405.6 4738  399 4731.4  399 4723  C 399 4714.6  405.6 4708  414 4708  C 422.4 4708  429 4714.6  429 4723  C 429 4731.4  422.4 4738  414 4738  " fill-rule="nonzero" fill="#797979" stroke="none" />
</svg>