<?xml version="1.0" encoding="utf-8"?>
<svg version="1.1" xmlns:xlink="http://www.w3.org/1999/xlink" width="60px" height="60px" viewBox="384 4622  60 60" xmlns="http://www.w3.org/2000/svg">
  <path d="M 414 4622  C 430.8 4622  444 4635.2  444 4652  C 444 4668.8  430.8 4682  414 4682  C 397.2 4682  384 4668.8  384 4652  C 384 4635.2  397.2 4622  414 4622  Z " fill-rule="nonzero" fill="#ffffff" stroke="none" />
  <path d="M 414 4622.5  C 430.52 4622.5  443.5 4635.48  443.5 4652  C 443.5 4668.52  430.52 4681.5  414 4681.5  C 397.48 4681.5  384.5 4668.52  384.5 4652  C 384.5 4635.48  397.48 4622.5  414 4622.5  Z " stroke-width="1" stroke="#797979" fill="none" />
  <path d="M 414 4667  C 405.6 4667  399 4660.4  399 4652  C 399 4643.6  405.6 4637  414 4637  C 422.4 4637  429 4643.6  429 4652  C 429 4660.4  422.4 4667  414 4667  " fill-rule="nonzero" fill="#797979" stroke="none" />
</svg>