<?xml version="1.0" encoding="utf-8"?>
<svg version="1.1" xmlns:xlink="http://www.w3.org/1999/xlink" width="60px" height="60px" viewBox="384 4904  60 60" xmlns="http://www.w3.org/2000/svg">
  <path d="M 414 4904  C 430.8 4904  444 4917.2  444 4934  C 444 4950.8  430.8 4964  414 4964  C 397.2 4964  384 4950.8  384 4934  C 384 4917.2  397.2 4904  414 4904  Z " fill-rule="nonzero" fill="#ffffff" stroke="none" />
  <path d="M 414 4904.5  C 430.52 4904.5  443.5 4917.48  443.5 4934  C 443.5 4950.52  430.52 4963.5  414 4963.5  C 397.48 4963.5  384.5 4950.52  384.5 4934  C 384.5 4917.48  397.48 4904.5  414 4904.5  Z " stroke-width="1" stroke="#797979" fill="none" />
  <path d="M 414 4949  C 405.6 4949  399 4942.4  399 4934  C 399 4925.6  405.6 4919  414 4919  C 422.4 4919  429 4925.6  429 4934  C 429 4942.4  422.4 4949  414 4949  " fill-rule="nonzero" fill="#797979" stroke="none" />
</svg>