<?xml version="1.0" encoding="utf-8"?>
<svg version="1.1" xmlns:xlink="http://www.w3.org/1999/xlink" width="60px" height="60px" viewBox="384 4760  60 60" xmlns="http://www.w3.org/2000/svg">
  <path d="M 414 4760  C 430.8 4760  444 4773.2  444 4790  C 444 4806.8  430.8 4820  414 4820  C 397.2 4820  384 4806.8  384 4790  C 384 4773.2  397.2 4760  414 4760  Z " fill-rule="nonzero" fill="#ffffff" stroke="none" />
  <path d="M 414 4760.5  C 430.52 4760.5  443.5 4773.48  443.5 4790  C 443.5 4806.52  430.52 4819.5  414 4819.5  C 397.48 4819.5  384.5 4806.52  384.5 4790  C 384.5 4773.48  397.48 4760.5  414 4760.5  Z " stroke-width="1" stroke="#797979" fill="none" />
  <path d="M 414 4805  C 405.6 4805  399 4798.4  399 4790  C 399 4781.6  405.6 4775  414 4775  C 422.4 4775  429 4781.6  429 4790  C 429 4798.4  422.4 4805  414 4805  " fill-rule="nonzero" fill="#797979" stroke="none" />
</svg>