<?xml version="1.0" encoding="utf-8"?>
<svg version="1.1" xmlns:xlink="http://www.w3.org/1999/xlink" width="60px" height="60px" viewBox="384 4834  60 60" xmlns="http://www.w3.org/2000/svg">
  <path d="M 414 4834  C 430.8 4834  444 4847.2  444 4864  C 444 4880.8  430.8 4894  414 4894  C 397.2 4894  384 4880.8  384 4864  C 384 4847.2  397.2 4834  414 4834  Z " fill-rule="nonzero" fill="#f0f0f0" stroke="none" />
  <path d="M 414 4834.5  C 430.52 4834.5  443.5 4847.48  443.5 4864  C 443.5 4880.52  430.52 4893.5  414 4893.5  C 397.48 4893.5  384.5 4880.52  384.5 4864  C 384.5 4847.48  397.48 4834.5  414 4834.5  Z " stroke-width="1" stroke="#797979" fill="none" />
  <path d="M 414 4879  C 405.6 4879  399 4872.4  399 4864  C 399 4855.6  405.6 4849  414 4849  C 422.4 4849  429 4855.6  429 4864  C 429 4872.4  422.4 4879  414 4879  " fill-rule="nonzero" fill="#797979" stroke="none" />
</svg>