<?xml version="1.0" encoding="utf-8"?>
<svg version="1.1" xmlns:xlink="http://www.w3.org/1999/xlink" width="60px" height="60px" viewBox="384 4973  60 60" xmlns="http://www.w3.org/2000/svg">
  <path d="M 414 4973  C 430.8 4973  444 4986.2  444 5003  C 444 5019.8  430.8 5033  414 5033  C 397.2 5033  384 5019.8  384 5003  C 384 4986.2  397.2 4973  414 4973  Z " fill-rule="nonzero" fill="#f0f0f0" stroke="none" />
  <path d="M 414 4973.5  C 430.52 4973.5  443.5 4986.48  443.5 5003  C 443.5 5019.52  430.52 5032.5  414 5032.5  C 397.48 5032.5  384.5 5019.52  384.5 5003  C 384.5 4986.48  397.48 4973.5  414 4973.5  Z " stroke-width="1" stroke="#797979" fill="none" />
  <path d="M 414 5018  C 405.6 5018  399 5011.4  399 5003  C 399 4994.6  405.6 4988  414 4988  C 422.4 4988  429 4994.6  429 5003  C 429 5011.4  422.4 5018  414 5018  " fill-rule="nonzero" fill="#797979" stroke="none" />
</svg>