<?xml version="1.0" encoding="utf-8"?>
<svg version="1.1" xmlns:xlink="http://www.w3.org/1999/xlink" width="60px" height="60px" viewBox="384 5043  60 60" xmlns="http://www.w3.org/2000/svg">
  <path d="M 414 5043  C 430.8 5043  444 5056.2  444 5073  C 444 5089.8  430.8 5103  414 5103  C 397.2 5103  384 5089.8  384 5073  C 384 5056.2  397.2 5043  414 5043  Z " fill-rule="nonzero" fill="#ffffff" stroke="none" />
  <path d="M 414 5043.5  C 430.52 5043.5  443.5 5056.48  443.5 5073  C 443.5 5089.52  430.52 5102.5  414 5102.5  C 397.48 5102.5  384.5 5089.52  384.5 5073  C 384.5 5056.48  397.48 5043.5  414 5043.5  Z " stroke-width="1" stroke="#797979" fill="none" />
  <path d="M 414 5088  C 405.6 5088  399 5081.4  399 5073  C 399 5064.6  405.6 5058  414 5058  C 422.4 5058  429 5064.6  429 5073  C 429 5081.4  422.4 5088  414 5088  " fill-rule="nonzero" fill="#797979" stroke="none" />
</svg>