<?xml version="1.0" encoding="utf-8"?>
<svg version="1.1" xmlns:xlink="http://www.w3.org/1999/xlink" width="60px" height="60px" viewBox="384 5113  60 60" xmlns="http://www.w3.org/2000/svg">
  <path d="M 414 5113  C 430.8 5113  444 5126.2  444 5143  C 444 5159.8  430.8 5173  414 5173  C 397.2 5173  384 5159.8  384 5143  C 384 5126.2  397.2 5113  414 5113  Z " fill-rule="nonzero" fill="#ffffff" stroke="none" />
  <path d="M 414 5113.5  C 430.52 5113.5  443.5 5126.48  443.5 5143  C 443.5 5159.52  430.52 5172.5  414 5172.5  C 397.48 5172.5  384.5 5159.52  384.5 5143  C 384.5 5126.48  397.48 5113.5  414 5113.5  Z " stroke-width="1" stroke="#797979" fill="none" />
  <path d="M 414 5158  C 405.6 5158  399 5151.4  399 5143  C 399 5134.6  405.6 5128  414 5128  C 422.4 5128  429 5134.6  429 5143  C 429 5151.4  422.4 5158  414 5158  " fill-rule="nonzero" fill="#797979" stroke="none" />
</svg>