<?xml version="1.0" encoding="utf-8"?>
<svg version="1.1" xmlns:xlink="http://www.w3.org/1999/xlink" width="60px" height="60px" viewBox="384 5180  60 60" xmlns="http://www.w3.org/2000/svg">
  <path d="M 414 5180  C 430.8 5180  444 5193.2  444 5210  C 444 5226.8  430.8 5240  414 5240  C 397.2 5240  384 5226.8  384 5210  C 384 5193.2  397.2 5180  414 5180  Z " fill-rule="nonzero" fill="#ffffff" stroke="none" />
  <path d="M 414 5180.5  C 430.52 5180.5  443.5 5193.48  443.5 5210  C 443.5 5226.52  430.52 5239.5  414 5239.5  C 397.48 5239.5  384.5 5226.52  384.5 5210  C 384.5 5193.48  397.48 5180.5  414 5180.5  Z " stroke-width="1" stroke="#797979" fill="none" />
  <path d="M 414 5225  C 405.6 5225  399 5218.4  399 5210  C 399 5201.6  405.6 5195  414 5195  C 422.4 5195  429 5201.6  429 5210  C 429 5218.4  422.4 5225  414 5225  " fill-rule="nonzero" fill="#797979" stroke="none" />
</svg>