<?xml version="1.0" encoding="utf-8"?>
<svg version="1.1" xmlns:xlink="http://www.w3.org/1999/xlink" width="60px" height="60px" viewBox="384 5533  60 60" xmlns="http://www.w3.org/2000/svg">
  <path d="M 414 5533  C 430.8 5533  444 5546.2  444 5563  C 444 5579.8  430.8 5593  414 5593  C 397.2 5593  384 5579.8  384 5563  C 384 5546.2  397.2 5533  414 5533  Z " fill-rule="nonzero" fill="#ffffff" stroke="none" />
  <path d="M 414 5533.5  C 430.52 5533.5  443.5 5546.48  443.5 5563  C 443.5 5579.52  430.52 5592.5  414 5592.5  C 397.48 5592.5  384.5 5579.52  384.5 5563  C 384.5 5546.48  397.48 5533.5  414 5533.5  Z " stroke-width="1" stroke="#797979" fill="none" />
  <path d="M 414 5578  C 405.6 5578  399 5571.4  399 5563  C 399 5554.6  405.6 5548  414 5548  C 422.4 5548  429 5554.6  429 5563  C 429 5571.4  422.4 5578  414 5578  " fill-rule="nonzero" fill="#797979" stroke="none" />
</svg>