<?xml version="1.0" encoding="utf-8"?>
<svg version="1.1" xmlns:xlink="http://www.w3.org/1999/xlink" width="60px" height="60px" viewBox="384 5323  60 60" xmlns="http://www.w3.org/2000/svg">
  <path d="M 414 5323  C 430.8 5323  444 5336.2  444 5353  C 444 5369.8  430.8 5383  414 5383  C 397.2 5383  384 5369.8  384 5353  C 384 5336.2  397.2 5323  414 5323  Z " fill-rule="nonzero" fill="#ffffff" stroke="none" />
  <path d="M 414 5323.5  C 430.52 5323.5  443.5 5336.48  443.5 5353  C 443.5 5369.52  430.52 5382.5  414 5382.5  C 397.48 5382.5  384.5 5369.52  384.5 5353  C 384.5 5336.48  397.48 5323.5  414 5323.5  Z " stroke-width="1" stroke="#797979" fill="none" />
  <path d="M 414 5368  C 405.6 5368  399 5361.4  399 5353  C 399 5344.6  405.6 5338  414 5338  C 422.4 5338  429 5344.6  429 5353  C 429 5361.4  422.4 5368  414 5368  " fill-rule="nonzero" fill="#797979" stroke="none" />
</svg>