<?xml version="1.0" encoding="utf-8"?>
<svg version="1.1" xmlns:xlink="http://www.w3.org/1999/xlink" width="60px" height="60px" viewBox="384 5463  60 60" xmlns="http://www.w3.org/2000/svg">
  <path d="M 414 5463  C 430.8 5463  444 5476.2  444 5493  C 444 5509.8  430.8 5523  414 5523  C 397.2 5523  384 5509.8  384 5493  C 384 5476.2  397.2 5463  414 5463  Z " fill-rule="nonzero" fill="#f0f0f0" stroke="none" />
  <path d="M 414 5463.5  C 430.52 5463.5  443.5 5476.48  443.5 5493  C 443.5 5509.52  430.52 5522.5  414 5522.5  C 397.48 5522.5  384.5 5509.52  384.5 5493  C 384.5 5476.48  397.48 5463.5  414 5463.5  Z " stroke-width="1" stroke="#797979" fill="none" />
  <path d="M 414 5508  C 405.6 5508  399 5501.4  399 5493  C 399 5484.6  405.6 5478  414 5478  C 422.4 5478  429 5484.6  429 5493  C 429 5501.4  422.4 5508  414 5508  " fill-rule="nonzero" fill="#797979" stroke="none" />
</svg>