<?xml version="1.0" encoding="utf-8"?>
<svg version="1.1" xmlns:xlink="http://www.w3.org/1999/xlink" width="60px" height="60px" viewBox="384 5393  60 60" xmlns="http://www.w3.org/2000/svg">
  <path d="M 414 5393  C 430.8 5393  444 5406.2  444 5423  C 444 5439.8  430.8 5453  414 5453  C 397.2 5453  384 5439.8  384 5423  C 384 5406.2  397.2 5393  414 5393  Z " fill-rule="nonzero" fill="#ffffff" stroke="none" />
  <path d="M 414 5393.5  C 430.52 5393.5  443.5 5406.48  443.5 5423  C 443.5 5439.52  430.52 5452.5  414 5452.5  C 397.48 5452.5  384.5 5439.52  384.5 5423  C 384.5 5406.48  397.48 5393.5  414 5393.5  Z " stroke-width="1" stroke="#797979" fill="none" />
  <path d="M 414 5438  C 405.6 5438  399 5431.4  399 5423  C 399 5414.6  405.6 5408  414 5408  C 422.4 5408  429 5414.6  429 5423  C 429 5431.4  422.4 5438  414 5438  " fill-rule="nonzero" fill="#797979" stroke="none" />
</svg>