<?xml version="1.0" encoding="utf-8"?>
<svg version="1.1" xmlns:xlink="http://www.w3.org/1999/xlink" width="60px" height="60px" viewBox="384 5602  60 60" xmlns="http://www.w3.org/2000/svg">
  <path d="M 414 5602  C 430.8 5602  444 5615.2  444 5632  C 444 5648.8  430.8 5662  414 5662  C 397.2 5662  384 5648.8  384 5632  C 384 5615.2  397.2 5602  414 5602  Z " fill-rule="nonzero" fill="#f0f0f0" stroke="none" />
  <path d="M 414 5602.5  C 430.52 5602.5  443.5 5615.48  443.5 5632  C 443.5 5648.52  430.52 5661.5  414 5661.5  C 397.48 5661.5  384.5 5648.52  384.5 5632  C 384.5 5615.48  397.48 5602.5  414 5602.5  Z " stroke-width="1" stroke="#797979" fill="none" />
  <path d="M 414 5647  C 405.6 5647  399 5640.4  399 5632  C 399 5623.6  405.6 5617  414 5617  C 422.4 5617  429 5623.6  429 5632  C 429 5640.4  422.4 5647  414 5647  " fill-rule="nonzero" fill="#797979" stroke="none" />
</svg>