<?xml version="1.0" encoding="utf-8"?>
<svg version="1.1" xmlns:xlink="http://www.w3.org/1999/xlink" width="60px" height="60px" viewBox="384 5742  60 60" xmlns="http://www.w3.org/2000/svg">
  <path d="M 414 5742  C 430.8 5742  444 5755.2  444 5772  C 444 5788.8  430.8 5802  414 5802  C 397.2 5802  384 5788.8  384 5772  C 384 5755.2  397.2 5742  414 5742  Z " fill-rule="nonzero" fill="#ffffff" stroke="none" />
  <path d="M 414 5742.5  C 430.52 5742.5  443.5 5755.48  443.5 5772  C 443.5 5788.52  430.52 5801.5  414 5801.5  C 397.48 5801.5  384.5 5788.52  384.5 5772  C 384.5 5755.48  397.48 5742.5  414 5742.5  Z " stroke-width="1" stroke="#797979" fill="none" />
  <path d="M 414 5787  C 405.6 5787  399 5780.4  399 5772  C 399 5763.6  405.6 5757  414 5757  C 422.4 5757  429 5763.6  429 5772  C 429 5780.4  422.4 5787  414 5787  " fill-rule="nonzero" fill="#797979" stroke="none" />
</svg>