<?xml version="1.0" encoding="utf-8"?>
<svg version="1.1" xmlns:xlink="http://www.w3.org/1999/xlink" width="60px" height="60px" viewBox="384 5812  60 60" xmlns="http://www.w3.org/2000/svg">
  <path d="M 414 5812  C 430.8 5812  444 5825.2  444 5842  C 444 5858.8  430.8 5872  414 5872  C 397.2 5872  384 5858.8  384 5842  C 384 5825.2  397.2 5812  414 5812  Z " fill-rule="nonzero" fill="#ffffff" stroke="none" />
  <path d="M 414 5812.5  C 430.52 5812.5  443.5 5825.48  443.5 5842  C 443.5 5858.52  430.52 5871.5  414 5871.5  C 397.48 5871.5  384.5 5858.52  384.5 5842  C 384.5 5825.48  397.48 5812.5  414 5812.5  Z " stroke-width="1" stroke="#797979" fill="none" />
  <path d="M 414 5857  C 405.6 5857  399 5850.4  399 5842  C 399 5833.6  405.6 5827  414 5827  C 422.4 5827  429 5833.6  429 5842  C 429 5850.4  422.4 5857  414 5857  " fill-rule="nonzero" fill="#797979" stroke="none" />
</svg>