<?xml version="1.0" encoding="utf-8"?>
<svg version="1.1" xmlns:xlink="http://www.w3.org/1999/xlink" width="60px" height="60px" viewBox="384 5882  60 60" xmlns="http://www.w3.org/2000/svg">
  <path d="M 414 5882  C 430.8 5882  444 5895.2  444 5912  C 444 5928.8  430.8 5942  414 5942  C 397.2 5942  384 5928.8  384 5912  C 384 5895.2  397.2 5882  414 5882  Z " fill-rule="nonzero" fill="#f0f0f0" stroke="none" />
  <path d="M 414 5882.5  C 430.52 5882.5  443.5 5895.48  443.5 5912  C 443.5 5928.52  430.52 5941.5  414 5941.5  C 397.48 5941.5  384.5 5928.52  384.5 5912  C 384.5 5895.48  397.48 5882.5  414 5882.5  Z " stroke-width="1" stroke="#797979" fill="none" />
  <path d="M 414 5927  C 405.6 5927  399 5920.4  399 5912  C 399 5903.6  405.6 5897  414 5897  C 422.4 5897  429 5903.6  429 5912  C 429 5920.4  422.4 5927  414 5927  " fill-rule="nonzero" fill="#797979" stroke="none" />
</svg>