<?xml version="1.0" encoding="utf-8"?>
<svg version="1.1" xmlns:xlink="http://www.w3.org/1999/xlink" width="60px" height="60px" viewBox="2889 1569  60 60" xmlns="http://www.w3.org/2000/svg">
  <path d="M 2919 1569  C 2935.8 1569  2949 1582.2  2949 1599  C 2949 1615.8  2935.8 1629  2919 1629  C 2902.2 1629  2889 1615.8  2889 1599  C 2889 1582.2  2902.2 1569  2919 1569  Z " fill-rule="nonzero" fill="#ffffff" stroke="none" />
  <path d="M 2919 1569.5  C 2935.52 1569.5  2948.5 1582.48  2948.5 1599  C 2948.5 1615.52  2935.52 1628.5  2919 1628.5  C 2902.48 1628.5  2889.5 1615.52  2889.5 1599  C 2889.5 1582.48  2902.48 1569.5  2919 1569.5  Z " stroke-width="1" stroke="#797979" fill="none" />
  <path d="M 2919 1614  C 2910.6 1614  2904 1607.4  2904 1599  C 2904 1590.6  2910.6 1584  2919 1584  C 2927.4 1584  2934 1590.6  2934 1599  C 2934 1607.4  2927.4 1614  2919 1614  " fill-rule="nonzero" fill="#797979" stroke="none" />
</svg>