<?xml version="1.0" encoding="utf-8"?>
<svg version="1.1" xmlns:xlink="http://www.w3.org/1999/xlink" width="60px" height="60px" viewBox="2889 1778  60 60" xmlns="http://www.w3.org/2000/svg">
  <path d="M 2919 1778  C 2935.8 1778  2949 1791.2  2949 1808  C 2949 1824.8  2935.8 1838  2919 1838  C 2902.2 1838  2889 1824.8  2889 1808  C 2889 1791.2  2902.2 1778  2919 1778  Z " fill-rule="nonzero" fill="#ffffff" stroke="none" />
  <path d="M 2919 1778.5  C 2935.52 1778.5  2948.5 1791.48  2948.5 1808  C 2948.5 1824.52  2935.52 1837.5  2919 1837.5  C 2902.48 1837.5  2889.5 1824.52  2889.5 1808  C 2889.5 1791.48  2902.48 1778.5  2919 1778.5  Z " stroke-width="1" stroke="#797979" fill="none" />
  <path d="M 2919 1823  C 2910.6 1823  2904 1816.4  2904 1808  C 2904 1799.6  2910.6 1793  2919 1793  C 2927.4 1793  2934 1799.6  2934 1808  C 2934 1816.4  2927.4 1823  2919 1823  " fill-rule="nonzero" fill="#797979" stroke="none" />
</svg>