<?xml version="1.0" encoding="utf-8"?>
<svg version="1.1" xmlns:xlink="http://www.w3.org/1999/xlink" width="60px" height="60px" viewBox="2889 1707  60 60" xmlns="http://www.w3.org/2000/svg">
  <path d="M 2919 1707  C 2935.8 1707  2949 1720.2  2949 1737  C 2949 1753.8  2935.8 1767  2919 1767  C 2902.2 1767  2889 1753.8  2889 1737  C 2889 1720.2  2902.2 1707  2919 1707  Z " fill-rule="nonzero" fill="#ffffff" stroke="none" />
  <path d="M 2919 1707.5  C 2935.52 1707.5  2948.5 1720.48  2948.5 1737  C 2948.5 1753.52  2935.52 1766.5  2919 1766.5  C 2902.48 1766.5  2889.5 1753.52  2889.5 1737  C 2889.5 1720.48  2902.48 1707.5  2919 1707.5  Z " stroke-width="1" stroke="#797979" fill="none" />
  <path d="M 2919 1752  C 2910.6 1752  2904 1745.4  2904 1737  C 2904 1728.6  2910.6 1722  2919 1722  C 2927.4 1722  2934 1728.6  2934 1737  C 2934 1745.4  2927.4 1752  2919 1752  " fill-rule="nonzero" fill="#797979" stroke="none" />
</svg>