<?xml version="1.0" encoding="utf-8"?>
<svg version="1.1" xmlns:xlink="http://www.w3.org/1999/xlink" width="60px" height="60px" viewBox="2889 1849  60 60" xmlns="http://www.w3.org/2000/svg">
  <path d="M 2919 1849  C 2935.8 1849  2949 1862.2  2949 1879  C 2949 1895.8  2935.8 1909  2919 1909  C 2902.2 1909  2889 1895.8  2889 1879  C 2889 1862.2  2902.2 1849  2919 1849  Z " fill-rule="nonzero" fill="#f0f0f0" stroke="none" />
  <path d="M 2919 1849.5  C 2935.52 1849.5  2948.5 1862.48  2948.5 1879  C 2948.5 1895.52  2935.52 1908.5  2919 1908.5  C 2902.48 1908.5  2889.5 1895.52  2889.5 1879  C 2889.5 1862.48  2902.48 1849.5  2919 1849.5  Z " stroke-width="1" stroke="#797979" fill="none" />
  <path d="M 2919 1894  C 2910.6 1894  2904 1887.4  2904 1879  C 2904 1870.6  2910.6 1864  2919 1864  C 2927.4 1864  2934 1870.6  2934 1879  C 2934 1887.4  2927.4 1894  2919 1894  " fill-rule="nonzero" fill="#797979" stroke="none" />
</svg>