<?xml version="1.0" encoding="utf-8"?>
<svg version="1.1" xmlns:xlink="http://www.w3.org/1999/xlink" width="60px" height="60px" viewBox="2889 1640  60 60" xmlns="http://www.w3.org/2000/svg">
  <path d="M 2919 1640  C 2935.8 1640  2949 1653.2  2949 1670  C 2949 1686.8  2935.8 1700  2919 1700  C 2902.2 1700  2889 1686.8  2889 1670  C 2889 1653.2  2902.2 1640  2919 1640  Z " fill-rule="nonzero" fill="#ffffff" stroke="none" />
  <path d="M 2919 1640.5  C 2935.52 1640.5  2948.5 1653.48  2948.5 1670  C 2948.5 1686.52  2935.52 1699.5  2919 1699.5  C 2902.48 1699.5  2889.5 1686.52  2889.5 1670  C 2889.5 1653.48  2902.48 1640.5  2919 1640.5  Z " stroke-width="1" stroke="#797979" fill="none" />
  <path d="M 2919 1685  C 2910.6 1685  2904 1678.4  2904 1670  C 2904 1661.6  2910.6 1655  2919 1655  C 2927.4 1655  2934 1661.6  2934 1670  C 2934 1678.4  2927.4 1685  2919 1685  " fill-rule="nonzero" fill="#797979" stroke="none" />
</svg>