<?xml version="1.0" encoding="utf-8"?>
<svg version="1.1" xmlns:xlink="http://www.w3.org/1999/xlink" width="60px" height="60px" viewBox="294 2102  60 60" xmlns="http://www.w3.org/2000/svg">
  <path d="M 324 2102  C 340.8 2102  354 2115.2  354 2132  C 354 2148.8  340.8 2162  324 2162  C 307.2 2162  294 2148.8  294 2132  C 294 2115.2  307.2 2102  324 2102  Z " fill-rule="nonzero" fill="#ffffff" stroke="none" />
  <path d="M 324 2102.5  C 340.52 2102.5  353.5 2115.48  353.5 2132  C 353.5 2148.52  340.52 2161.5  324 2161.5  C 307.48 2161.5  294.5 2148.52  294.5 2132  C 294.5 2115.48  307.48 2102.5  324 2102.5  Z " stroke-width="1" stroke="#797979" fill="none" />
  <path d="M 324 2147  C 315.6 2147  309 2140.4  309 2132  C 309 2123.6  315.6 2117  324 2117  C 332.4 2117  339 2123.6  339 2132  C 339 2140.4  332.4 2147  324 2147  " fill-rule="nonzero" fill="#797979" stroke="none" />
</svg>