<?xml version="1.0" encoding="utf-8"?>
<svg version="1.1" xmlns:xlink="http://www.w3.org/1999/xlink" width="60px" height="60px" viewBox="206 1827  60 60" xmlns="http://www.w3.org/2000/svg">
  <path d="M 236 1827  C 252.8 1827  266 1840.2  266 1857  C 266 1873.8  252.8 1887  236 1887  C 219.2 1887  206 1873.8  206 1857  C 206 1840.2  219.2 1827  236 1827  Z " fill-rule="nonzero" fill="#f0f0f0" stroke="none" />
  <path d="M 236 1827.5  C 252.52 1827.5  265.5 1840.48  265.5 1857  C 265.5 1873.52  252.52 1886.5  236 1886.5  C 219.48 1886.5  206.5 1873.52  206.5 1857  C 206.5 1840.48  219.48 1827.5  236 1827.5  Z " stroke-width="1" stroke="#797979" fill="none" />
  <path d="M 236 1872  C 227.6 1872  221 1865.4  221 1857  C 221 1848.6  227.6 1842  236 1842  C 244.4 1842  251 1848.6  251 1857  C 251 1865.4  244.4 1872  236 1872  " fill-rule="nonzero" fill="#797979" stroke="none" />
</svg>