<?xml version="1.0" encoding="utf-8"?>
<svg version="1.1" xmlns:xlink="http://www.w3.org/1999/xlink" width="60px" height="60px" viewBox="206 2174  60 60" xmlns="http://www.w3.org/2000/svg">
  <path d="M 236 2174  C 252.8 2174  266 2187.2  266 2204  C 266 2220.8  252.8 2234  236 2234  C 219.2 2234  206 2220.8  206 2204  C 206 2187.2  219.2 2174  236 2174  Z " fill-rule="nonzero" fill="#ffffff" stroke="none" />
  <path d="M 236 2174.5  C 252.52 2174.5  265.5 2187.48  265.5 2204  C 265.5 2220.52  252.52 2233.5  236 2233.5  C 219.48 2233.5  206.5 2220.52  206.5 2204  C 206.5 2187.48  219.48 2174.5  236 2174.5  Z " stroke-width="1" stroke="#797979" fill="none" />
  <path d="M 236 2219  C 227.6 2219  221 2212.4  221 2204  C 221 2195.6  227.6 2189  236 2189  C 244.4 2189  251 2195.6  251 2204  C 251 2212.4  244.4 2219  236 2219  " fill-rule="nonzero" fill="#797979" stroke="none" />
</svg>