<?xml version="1.0" encoding="utf-8"?>
<svg version="1.1" xmlns:xlink="http://www.w3.org/1999/xlink" width="60px" height="60px" viewBox="206 1685  60 60" xmlns="http://www.w3.org/2000/svg">
  <path d="M 236 1685  C 252.8 1685  266 1698.2  266 1715  C 266 1731.8  252.8 1745  236 1745  C 219.2 1745  206 1731.8  206 1715  C 206 1698.2  219.2 1685  236 1685  Z " fill-rule="nonzero" fill="#f0f0f0" stroke="none" />
  <path d="M 236 1685.5  C 252.52 1685.5  265.5 1698.48  265.5 1715  C 265.5 1731.52  252.52 1744.5  236 1744.5  C 219.48 1744.5  206.5 1731.52  206.5 1715  C 206.5 1698.48  219.48 1685.5  236 1685.5  Z " stroke-width="1" stroke="#797979" fill="none" />
  <path d="M 236 1730  C 227.6 1730  221 1723.4  221 1715  C 221 1706.6  227.6 1700  236 1700  C 244.4 1700  251 1706.6  251 1715  C 251 1723.4  244.4 1730  236 1730  " fill-rule="nonzero" fill="#797979" stroke="none" />
</svg>