<?xml version="1.0" encoding="utf-8"?>
<svg version="1.1" xmlns:xlink="http://www.w3.org/1999/xlink" width="60px" height="60px" viewBox="206 1966  60 60" xmlns="http://www.w3.org/2000/svg">
  <path d="M 236 1966  C 252.8 1966  266 1979.2  266 1996  C 266 2012.8  252.8 2026  236 2026  C 219.2 2026  206 2012.8  206 1996  C 206 1979.2  219.2 1966  236 1966  Z " fill-rule="nonzero" fill="#f0f0f0" stroke="none" />
  <path d="M 236 1966.5  C 252.52 1966.5  265.5 1979.48  265.5 1996  C 265.5 2012.52  252.52 2025.5  236 2025.5  C 219.48 2025.5  206.5 2012.52  206.5 1996  C 206.5 1979.48  219.48 1966.5  236 1966.5  Z " stroke-width="1" stroke="#797979" fill="none" />
  <path d="M 236 2011  C 227.6 2011  221 2004.4  221 1996  C 221 1987.6  227.6 1981  236 1981  C 244.4 1981  251 1987.6  251 1996  C 251 2004.4  244.4 2011  236 2011  " fill-rule="nonzero" fill="#797979" stroke="none" />
</svg>