<?xml version="1.0" encoding="utf-8"?>
<svg version="1.1" xmlns:xlink="http://www.w3.org/1999/xlink" width="60px" height="60px" viewBox="206 2104  60 60" xmlns="http://www.w3.org/2000/svg">
  <path d="M 236 2104  C 252.8 2104  266 2117.2  266 2134  C 266 2150.8  252.8 2164  236 2164  C 219.2 2164  206 2150.8  206 2134  C 206 2117.2  219.2 2104  236 2104  Z " fill-rule="nonzero" fill="#ffffff" stroke="none" />
  <path d="M 236 2104.5  C 252.52 2104.5  265.5 2117.48  265.5 2134  C 265.5 2150.52  252.52 2163.5  236 2163.5  C 219.48 2163.5  206.5 2150.52  206.5 2134  C 206.5 2117.48  219.48 2104.5  236 2104.5  Z " stroke-width="1" stroke="#797979" fill="none" />
  <path d="M 236 2149  C 227.6 2149  221 2142.4  221 2134  C 221 2125.6  227.6 2119  236 2119  C 244.4 2119  251 2125.6  251 2134  C 251 2142.4  244.4 2149  236 2149  " fill-rule="nonzero" fill="#797979" stroke="none" />
</svg>