<?xml version="1.0" encoding="utf-8"?>
<svg version="1.1" xmlns:xlink="http://www.w3.org/1999/xlink" width="60px" height="60px" viewBox="206 2034  60 60" xmlns="http://www.w3.org/2000/svg">
  <path d="M 236 2034  C 252.8 2034  266 2047.2  266 2064  C 266 2080.8  252.8 2094  236 2094  C 219.2 2094  206 2080.8  206 2064  C 206 2047.2  219.2 2034  236 2034  Z " fill-rule="nonzero" fill="#f0f0f0" stroke="none" />
  <path d="M 236 2034.5  C 252.52 2034.5  265.5 2047.48  265.5 2064  C 265.5 2080.52  252.52 2093.5  236 2093.5  C 219.48 2093.5  206.5 2080.52  206.5 2064  C 206.5 2047.48  219.48 2034.5  236 2034.5  Z " stroke-width="1" stroke="#797979" fill="none" />
  <path d="M 236 2079  C 227.6 2079  221 2072.4  221 2064  C 221 2055.6  227.6 2049  236 2049  C 244.4 2049  251 2055.6  251 2064  C 251 2072.4  244.4 2079  236 2079  " fill-rule="nonzero" fill="#797979" stroke="none" />
</svg>