<?xml version="1.0" encoding="utf-8"?>
<svg version="1.1" xmlns:xlink="http://www.w3.org/1999/xlink" width="60px" height="60px" viewBox="206 2314  60 60" xmlns="http://www.w3.org/2000/svg">
  <path d="M 236 2314  C 252.8 2314  266 2327.2  266 2344  C 266 2360.8  252.8 2374  236 2374  C 219.2 2374  206 2360.8  206 2344  C 206 2327.2  219.2 2314  236 2314  Z " fill-rule="nonzero" fill="#f0f0f0" stroke="none" />
  <path d="M 236 2314.5  C 252.52 2314.5  265.5 2327.48  265.5 2344  C 265.5 2360.52  252.52 2373.5  236 2373.5  C 219.48 2373.5  206.5 2360.52  206.5 2344  C 206.5 2327.48  219.48 2314.5  236 2314.5  Z " stroke-width="1" stroke="#797979" fill="none" />
  <path d="M 236 2359  C 227.6 2359  221 2352.4  221 2344  C 221 2335.6  227.6 2329  236 2329  C 244.4 2329  251 2335.6  251 2344  C 251 2352.4  244.4 2359  236 2359  " fill-rule="nonzero" fill="#797979" stroke="none" />
</svg>