<?xml version="1.0" encoding="utf-8"?>
<svg version="1.1" xmlns:xlink="http://www.w3.org/1999/xlink" width="60px" height="60px" viewBox="206 2384  60 60" xmlns="http://www.w3.org/2000/svg">
  <path d="M 236 2384  C 252.8 2384  266 2397.2  266 2414  C 266 2430.8  252.8 2444  236 2444  C 219.2 2444  206 2430.8  206 2414  C 206 2397.2  219.2 2384  236 2384  Z " fill-rule="nonzero" fill="#ffffff" stroke="none" />
  <path d="M 236 2384.5  C 252.52 2384.5  265.5 2397.48  265.5 2414  C 265.5 2430.52  252.52 2443.5  236 2443.5  C 219.48 2443.5  206.5 2430.52  206.5 2414  C 206.5 2397.48  219.48 2384.5  236 2384.5  Z " stroke-width="1" stroke="#797979" fill="none" />
  <path d="M 236 2429  C 227.6 2429  221 2422.4  221 2414  C 221 2405.6  227.6 2399  236 2399  C 244.4 2399  251 2405.6  251 2414  C 251 2422.4  244.4 2429  236 2429  " fill-rule="nonzero" fill="#797979" stroke="none" />
</svg>