<?xml version="1.0" encoding="utf-8"?>
<svg version="1.1" xmlns:xlink="http://www.w3.org/1999/xlink" width="60px" height="60px" viewBox="206 2454  60 60" xmlns="http://www.w3.org/2000/svg">
  <path d="M 236 2454  C 252.8 2454  266 2467.2  266 2484  C 266 2500.8  252.8 2514  236 2514  C 219.2 2514  206 2500.8  206 2484  C 206 2467.2  219.2 2454  236 2454  Z " fill-rule="nonzero" fill="#f0f0f0" stroke="none" />
  <path d="M 236 2454.5  C 252.52 2454.5  265.5 2467.48  265.5 2484  C 265.5 2500.52  252.52 2513.5  236 2513.5  C 219.48 2513.5  206.5 2500.52  206.5 2484  C 206.5 2467.48  219.48 2454.5  236 2454.5  Z " stroke-width="1" stroke="#797979" fill="none" />
  <path d="M 236 2499  C 227.6 2499  221 2492.4  221 2484  C 221 2475.6  227.6 2469  236 2469  C 244.4 2469  251 2475.6  251 2484  C 251 2492.4  244.4 2499  236 2499  " fill-rule="nonzero" fill="#797979" stroke="none" />
</svg>