<?xml version="1.0" encoding="utf-8"?>
<svg version="1.1" xmlns:xlink="http://www.w3.org/1999/xlink" width="60px" height="60px" viewBox="206 2524  60 60" xmlns="http://www.w3.org/2000/svg">
  <path d="M 236 2524  C 252.8 2524  266 2537.2  266 2554  C 266 2570.8  252.8 2584  236 2584  C 219.2 2584  206 2570.8  206 2554  C 206 2537.2  219.2 2524  236 2524  Z " fill-rule="nonzero" fill="#f0f0f0" stroke="none" />
  <path d="M 236 2524.5  C 252.52 2524.5  265.5 2537.48  265.5 2554  C 265.5 2570.52  252.52 2583.5  236 2583.5  C 219.48 2583.5  206.5 2570.52  206.5 2554  C 206.5 2537.48  219.48 2524.5  236 2524.5  Z " stroke-width="1" stroke="#797979" fill="none" />
  <path d="M 236 2569  C 227.6 2569  221 2562.4  221 2554  C 221 2545.6  227.6 2539  236 2539  C 244.4 2539  251 2545.6  251 2554  C 251 2562.4  244.4 2569  236 2569  " fill-rule="nonzero" fill="#797979" stroke="none" />
</svg>