<?xml version="1.0" encoding="utf-8"?>
<svg version="1.1" xmlns:xlink="http://www.w3.org/1999/xlink" width="60px" height="60px" viewBox="206 574  60 60" xmlns="http://www.w3.org/2000/svg">
  <path d="M 236 574  C 252.8 574  266 587.2  266 604  C 266 620.8  252.8 634  236 634  C 219.2 634  206 620.8  206 604  C 206 587.2  219.2 574  236 574  Z " fill-rule="nonzero" fill="#ffffff" stroke="none" />
  <path d="M 236 574.5  C 252.52 574.5  265.5 587.48  265.5 604  C 265.5 620.52  252.52 633.5  236 633.5  C 219.48 633.5  206.5 620.52  206.5 604  C 206.5 587.48  219.48 574.5  236 574.5  Z " stroke-width="1" stroke="#797979" fill="none" />
  <path d="M 236 619  C 227.6 619  221 612.4  221 604  C 221 595.6  227.6 589  236 589  C 244.4 589  251 595.6  251 604  C 251 612.4  244.4 619  236 619  " fill-rule="nonzero" fill="#797979" stroke="none" />
</svg>