<?xml version="1.0" encoding="utf-8"?>
<svg version="1.1" xmlns:xlink="http://www.w3.org/1999/xlink" width="60px" height="60px" viewBox="206 645  60 60" xmlns="http://www.w3.org/2000/svg">
  <path d="M 236 645  C 252.8 645  266 658.2  266 675  C 266 691.8  252.8 705  236 705  C 219.2 705  206 691.8  206 675  C 206 658.2  219.2 645  236 645  Z " fill-rule="nonzero" fill="#ffffff" stroke="none" />
  <path d="M 236 645.5  C 252.52 645.5  265.5 658.48  265.5 675  C 265.5 691.52  252.52 704.5  236 704.5  C 219.48 704.5  206.5 691.52  206.5 675  C 206.5 658.48  219.48 645.5  236 645.5  Z " stroke-width="1" stroke="#797979" fill="none" />
  <path d="M 236 690  C 227.6 690  221 683.4  221 675  C 221 666.6  227.6 660  236 660  C 244.4 660  251 666.6  251 675  C 251 683.4  244.4 690  236 690  " fill-rule="nonzero" fill="#797979" stroke="none" />
</svg>