<?xml version="1.0" encoding="utf-8"?>
<svg version="1.1" xmlns:xlink="http://www.w3.org/1999/xlink" width="60px" height="60px" viewBox="206 712  60 60" xmlns="http://www.w3.org/2000/svg">
  <path d="M 236 712  C 252.8 712  266 725.2  266 742  C 266 758.8  252.8 772  236 772  C 219.2 772  206 758.8  206 742  C 206 725.2  219.2 712  236 712  Z " fill-rule="nonzero" fill="#f0f0f0" stroke="none" />
  <path d="M 236 712.5  C 252.52 712.5  265.5 725.48  265.5 742  C 265.5 758.52  252.52 771.5  236 771.5  C 219.48 771.5  206.5 758.52  206.5 742  C 206.5 725.48  219.48 712.5  236 712.5  Z " stroke-width="1" stroke="#797979" fill="none" />
  <path d="M 236 757  C 227.6 757  221 750.4  221 742  C 221 733.6  227.6 727  236 727  C 244.4 727  251 733.6  251 742  C 251 750.4  244.4 757  236 757  " fill-rule="nonzero" fill="#797979" stroke="none" />
</svg>