<?xml version="1.0" encoding="utf-8"?>
<svg version="1.1" xmlns:xlink="http://www.w3.org/1999/xlink" width="60px" height="60px" viewBox="206 854  60 60" xmlns="http://www.w3.org/2000/svg">
  <path d="M 236 854  C 252.8 854  266 867.2  266 884  C 266 900.8  252.8 914  236 914  C 219.2 914  206 900.8  206 884  C 206 867.2  219.2 854  236 854  Z " fill-rule="nonzero" fill="#ffffff" stroke="none" />
  <path d="M 236 854.5  C 252.52 854.5  265.5 867.48  265.5 884  C 265.5 900.52  252.52 913.5  236 913.5  C 219.48 913.5  206.5 900.52  206.5 884  C 206.5 867.48  219.48 854.5  236 854.5  Z " stroke-width="1" stroke="#797979" fill="none" />
  <path d="M 236 899  C 227.6 899  221 892.4  221 884  C 221 875.6  227.6 869  236 869  C 244.4 869  251 875.6  251 884  C 251 892.4  244.4 899  236 899  " fill-rule="nonzero" fill="#797979" stroke="none" />
</svg>