<?xml version="1.0" encoding="utf-8"?>
<svg version="1.1" xmlns:xlink="http://www.w3.org/1999/xlink" width="60px" height="60px" viewBox="206 634  60 60" xmlns="http://www.w3.org/2000/svg">
  <path d="M 236 634  C 252.8 634  266 647.2  266 664  C 266 680.8  252.8 694  236 694  C 219.2 694  206 680.8  206 664  C 206 647.2  219.2 634  236 634  Z " fill-rule="nonzero" fill="#f0f0f0" stroke="none" />
  <path d="M 236 634.5  C 252.52 634.5  265.5 647.48  265.5 664  C 265.5 680.52  252.52 693.5  236 693.5  C 219.48 693.5  206.5 680.52  206.5 664  C 206.5 647.48  219.48 634.5  236 634.5  Z " stroke-width="1" stroke="#797979" fill="none" />
  <path d="M 236 679  C 227.6 679  221 672.4  221 664  C 221 655.6  227.6 649  236 649  C 244.4 649  251 655.6  251 664  C 251 672.4  244.4 679  236 679  " fill-rule="nonzero" fill="#797979" stroke="none" />
</svg>