<?xml version="1.0" encoding="utf-8"?>
<svg version="1.1" xmlns:xlink="http://www.w3.org/1999/xlink" width="60px" height="60px" viewBox="206 772  60 60" xmlns="http://www.w3.org/2000/svg">
  <path d="M 236 772  C 252.8 772  266 785.2  266 802  C 266 818.8  252.8 832  236 832  C 219.2 832  206 818.8  206 802  C 206 785.2  219.2 772  236 772  Z " fill-rule="nonzero" fill="#f0f0f0" stroke="none" />
  <path d="M 236 772.5  C 252.52 772.5  265.5 785.48  265.5 802  C 265.5 818.52  252.52 831.5  236 831.5  C 219.48 831.5  206.5 818.52  206.5 802  C 206.5 785.48  219.48 772.5  236 772.5  Z " stroke-width="1" stroke="#797979" fill="none" />
  <path d="M 236 817  C 227.6 817  221 810.4  221 802  C 221 793.6  227.6 787  236 787  C 244.4 787  251 793.6  251 802  C 251 810.4  244.4 817  236 817  " fill-rule="nonzero" fill="#797979" stroke="none" />
</svg>