<?xml version="1.0" encoding="utf-8"?>
<svg version="1.1" xmlns:xlink="http://www.w3.org/1999/xlink" width="60px" height="60px" viewBox="206 986  60 60" xmlns="http://www.w3.org/2000/svg">
  <path d="M 236 986  C 252.8 986  266 999.2  266 1016  C 266 1032.8  252.8 1046  236 1046  C 219.2 1046  206 1032.8  206 1016  C 206 999.2  219.2 986  236 986  Z " fill-rule="nonzero" fill="#ffffff" stroke="none" />
  <path d="M 236 986.5  C 252.52 986.5  265.5 999.48  265.5 1016  C 265.5 1032.52  252.52 1045.5  236 1045.5  C 219.48 1045.5  206.5 1032.52  206.5 1016  C 206.5 999.48  219.48 986.5  236 986.5  Z " stroke-width="1" stroke="#797979" fill="none" />
  <path d="M 236 1031  C 227.6 1031  221 1024.4  221 1016  C 221 1007.6  227.6 1001  236 1001  C 244.4 1001  251 1007.6  251 1016  C 251 1024.4  244.4 1031  236 1031  " fill-rule="nonzero" fill="#797979" stroke="none" />
</svg>