<?xml version="1.0" encoding="utf-8"?>
<svg version="1.1" xmlns:xlink="http://www.w3.org/1999/xlink" width="60px" height="60px" viewBox="206 917  60 60" xmlns="http://www.w3.org/2000/svg">
  <path d="M 236 917  C 252.8 917  266 930.2  266 947  C 266 963.8  252.8 977  236 977  C 219.2 977  206 963.8  206 947  C 206 930.2  219.2 917  236 917  Z " fill-rule="nonzero" fill="#f0f0f0" stroke="none" />
  <path d="M 236 917.5  C 252.52 917.5  265.5 930.48  265.5 947  C 265.5 963.52  252.52 976.5  236 976.5  C 219.48 976.5  206.5 963.52  206.5 947  C 206.5 930.48  219.48 917.5  236 917.5  Z " stroke-width="1" stroke="#797979" fill="none" />
  <path d="M 236 962  C 227.6 962  221 955.4  221 947  C 221 938.6  227.6 932  236 932  C 244.4 932  251 938.6  251 947  C 251 955.4  244.4 962  236 962  " fill-rule="nonzero" fill="#797979" stroke="none" />
</svg>