<?xml version="1.0" encoding="utf-8"?>
<svg version="1.1" xmlns:xlink="http://www.w3.org/1999/xlink" width="60px" height="60px" viewBox="206 1054  60 60" xmlns="http://www.w3.org/2000/svg">
  <path d="M 236 1054  C 252.8 1054  266 1067.2  266 1084  C 266 1100.8  252.8 1114  236 1114  C 219.2 1114  206 1100.8  206 1084  C 206 1067.2  219.2 1054  236 1054  Z " fill-rule="nonzero" fill="#ffffff" stroke="none" />
  <path d="M 236 1054.5  C 252.52 1054.5  265.5 1067.48  265.5 1084  C 265.5 1100.52  252.52 1113.5  236 1113.5  C 219.48 1113.5  206.5 1100.52  206.5 1084  C 206.5 1067.48  219.48 1054.5  236 1054.5  Z " stroke-width="1" stroke="#797979" fill="none" />
  <path d="M 236 1099  C 227.6 1099  221 1092.4  221 1084  C 221 1075.6  227.6 1069  236 1069  C 244.4 1069  251 1075.6  251 1084  C 251 1092.4  244.4 1099  236 1099  " fill-rule="nonzero" fill="#797979" stroke="none" />
</svg>