<?xml version="1.0" encoding="utf-8"?>
<svg version="1.1" xmlns:xlink="http://www.w3.org/1999/xlink" width="60px" height="60px" viewBox="334 1469  60 60" xmlns="http://www.w3.org/2000/svg">
  <path d="M 364 1469  C 380.8 1469  394 1482.2  394 1499  C 394 1515.8  380.8 1529  364 1529  C 347.2 1529  334 1515.8  334 1499  C 334 1482.2  347.2 1469  364 1469  Z " fill-rule="nonzero" fill="#ffffff" stroke="none" />
  <path d="M 364 1469.5  C 380.52 1469.5  393.5 1482.48  393.5 1499  C 393.5 1515.52  380.52 1528.5  364 1528.5  C 347.48 1528.5  334.5 1515.52  334.5 1499  C 334.5 1482.48  347.48 1469.5  364 1469.5  Z " stroke-width="1" stroke="#797979" fill="none" />
  <path d="M 364 1514  C 355.6 1514  349 1507.4  349 1499  C 349 1490.6  355.6 1484  364 1484  C 372.4 1484  379 1490.6  379 1499  C 379 1507.4  372.4 1514  364 1514  " fill-rule="nonzero" fill="#797979" stroke="none" />
</svg>