<?xml version="1.0" encoding="utf-8"?>
<svg version="1.1" xmlns:xlink="http://www.w3.org/1999/xlink" width="60px" height="60px" viewBox="334 1607  60 60" xmlns="http://www.w3.org/2000/svg">
  <path d="M 364 1607  C 380.8 1607  394 1620.2  394 1637  C 394 1653.8  380.8 1667  364 1667  C 347.2 1667  334 1653.8  334 1637  C 334 1620.2  347.2 1607  364 1607  Z " fill-rule="nonzero" fill="#ffffff" stroke="none" />
  <path d="M 364 1607.5  C 380.52 1607.5  393.5 1620.48  393.5 1637  C 393.5 1653.52  380.52 1666.5  364 1666.5  C 347.48 1666.5  334.5 1653.52  334.5 1637  C 334.5 1620.48  347.48 1607.5  364 1607.5  Z " stroke-width="1" stroke="#797979" fill="none" />
  <path d="M 364 1652  C 355.6 1652  349 1645.4  349 1637  C 349 1628.6  355.6 1622  364 1622  C 372.4 1622  379 1628.6  379 1637  C 379 1645.4  372.4 1652  364 1652  " fill-rule="nonzero" fill="#797979" stroke="none" />
</svg>