<?xml version="1.0" encoding="utf-8"?>
<svg version="1.1" xmlns:xlink="http://www.w3.org/1999/xlink" width="60px" height="60px" viewBox="334 1751  60 60" xmlns="http://www.w3.org/2000/svg">
  <path d="M 364 1751  C 380.8 1751  394 1764.2  394 1781  C 394 1797.8  380.8 1811  364 1811  C 347.2 1811  334 1797.8  334 1781  C 334 1764.2  347.2 1751  364 1751  Z " fill-rule="nonzero" fill="#ffffff" stroke="none" />
  <path d="M 364 1751.5  C 380.52 1751.5  393.5 1764.48  393.5 1781  C 393.5 1797.52  380.52 1810.5  364 1810.5  C 347.48 1810.5  334.5 1797.52  334.5 1781  C 334.5 1764.48  347.48 1751.5  364 1751.5  Z " stroke-width="1" stroke="#797979" fill="none" />
  <path d="M 364 1796  C 355.6 1796  349 1789.4  349 1781  C 349 1772.6  355.6 1766  364 1766  C 372.4 1766  379 1772.6  379 1781  C 379 1789.4  372.4 1796  364 1796  " fill-rule="nonzero" fill="#797979" stroke="none" />
</svg>