<?xml version="1.0" encoding="utf-8"?>
<svg version="1.1" xmlns:xlink="http://www.w3.org/1999/xlink" width="60px" height="60px" viewBox="432 5075  60 60" xmlns="http://www.w3.org/2000/svg">
  <path d="M 462 5075  C 478.8 5075  492 5088.2  492 5105  C 492 5121.8  478.8 5135  462 5135  C 445.2 5135  432 5121.8  432 5105  C 432 5088.2  445.2 5075  462 5075  Z " fill-rule="nonzero" fill="#f0f0f0" stroke="none" />
  <path d="M 462 5075.5  C 478.52 5075.5  491.5 5088.48  491.5 5105  C 491.5 5121.52  478.52 5134.5  462 5134.5  C 445.48 5134.5  432.5 5121.52  432.5 5105  C 432.5 5088.48  445.48 5075.5  462 5075.5  Z " stroke-width="1" stroke="#797979" fill="none" />
  <path d="M 462 5120  C 453.6 5120  447 5113.4  447 5105  C 447 5096.6  453.6 5090  462 5090  C 470.4 5090  477 5096.6  477 5105  C 477 5113.4  470.4 5120  462 5120  " fill-rule="nonzero" fill="#797979" stroke="none" />
</svg>