<?xml version="1.0" encoding="utf-8"?>
<svg version="1.1" xmlns:xlink="http://www.w3.org/1999/xlink" width="60px" height="60px" viewBox="432 5004  60 60" xmlns="http://www.w3.org/2000/svg">
  <path d="M 462 5004  C 478.8 5004  492 5017.2  492 5034  C 492 5050.8  478.8 5064  462 5064  C 445.2 5064  432 5050.8  432 5034  C 432 5017.2  445.2 5004  462 5004  Z " fill-rule="nonzero" fill="#ffffff" stroke="none" />
  <path d="M 462 5004.5  C 478.52 5004.5  491.5 5017.48  491.5 5034  C 491.5 5050.52  478.52 5063.5  462 5063.5  C 445.48 5063.5  432.5 5050.52  432.5 5034  C 432.5 5017.48  445.48 5004.5  462 5004.5  Z " stroke-width="1" stroke="#797979" fill="none" />
  <path d="M 462 5049  C 453.6 5049  447 5042.4  447 5034  C 447 5025.6  453.6 5019  462 5019  C 470.4 5019  477 5025.6  477 5034  C 477 5042.4  470.4 5049  462 5049  " fill-rule="nonzero" fill="#797979" stroke="none" />
</svg>