<?xml version="1.0" encoding="utf-8"?>
<svg version="1.1" xmlns:xlink="http://www.w3.org/1999/xlink" width="60px" height="60px" viewBox="432 5216  60 60" xmlns="http://www.w3.org/2000/svg">
  <path d="M 462 5216  C 478.8 5216  492 5229.2  492 5246  C 492 5262.8  478.8 5276  462 5276  C 445.2 5276  432 5262.8  432 5246  C 432 5229.2  445.2 5216  462 5216  Z " fill-rule="nonzero" fill="#ffffff" stroke="none" />
  <path d="M 462 5216.5  C 478.52 5216.5  491.5 5229.48  491.5 5246  C 491.5 5262.52  478.52 5275.5  462 5275.5  C 445.48 5275.5  432.5 5262.52  432.5 5246  C 432.5 5229.48  445.48 5216.5  462 5216.5  Z " stroke-width="1" stroke="#797979" fill="none" />
  <path d="M 462 5261  C 453.6 5261  447 5254.4  447 5246  C 447 5237.6  453.6 5231  462 5231  C 470.4 5231  477 5237.6  477 5246  C 477 5254.4  470.4 5261  462 5261  " fill-rule="nonzero" fill="#797979" stroke="none" />
</svg>