<?xml version="1.0" encoding="utf-8"?>
<svg version="1.1" xmlns:xlink="http://www.w3.org/1999/xlink" width="60px" height="60px" viewBox="432 5355  60 60" xmlns="http://www.w3.org/2000/svg">
  <path d="M 462 5355  C 478.8 5355  492 5368.2  492 5385  C 492 5401.8  478.8 5415  462 5415  C 445.2 5415  432 5401.8  432 5385  C 432 5368.2  445.2 5355  462 5355  Z " fill-rule="nonzero" fill="#ffffff" stroke="none" />
  <path d="M 462 5355.5  C 478.52 5355.5  491.5 5368.48  491.5 5385  C 491.5 5401.52  478.52 5414.5  462 5414.5  C 445.48 5414.5  432.5 5401.52  432.5 5385  C 432.5 5368.48  445.48 5355.5  462 5355.5  Z " stroke-width="1" stroke="#797979" fill="none" />
  <path d="M 462 5400  C 453.6 5400  447 5393.4  447 5385  C 447 5376.6  453.6 5370  462 5370  C 470.4 5370  477 5376.6  477 5385  C 477 5393.4  470.4 5400  462 5400  " fill-rule="nonzero" fill="#797979" stroke="none" />
</svg>