<?xml version="1.0" encoding="utf-8"?>
<svg version="1.1" xmlns:xlink="http://www.w3.org/1999/xlink" width="60px" height="60px" viewBox="432 5142  60 60" xmlns="http://www.w3.org/2000/svg">
  <path d="M 462 5142  C 478.8 5142  492 5155.2  492 5172  C 492 5188.8  478.8 5202  462 5202  C 445.2 5202  432 5188.8  432 5172  C 432 5155.2  445.2 5142  462 5142  Z " fill-rule="nonzero" fill="#ffffff" stroke="none" />
  <path d="M 462 5142.5  C 478.52 5142.5  491.5 5155.48  491.5 5172  C 491.5 5188.52  478.52 5201.5  462 5201.5  C 445.48 5201.5  432.5 5188.52  432.5 5172  C 432.5 5155.48  445.48 5142.5  462 5142.5  Z " stroke-width="1" stroke="#797979" fill="none" />
  <path d="M 462 5187  C 453.6 5187  447 5180.4  447 5172  C 447 5163.6  453.6 5157  462 5157  C 470.4 5157  477 5163.6  477 5172  C 477 5180.4  470.4 5187  462 5187  " fill-rule="nonzero" fill="#797979" stroke="none" />
</svg>