<?xml version="1.0" encoding="utf-8"?>
<svg version="1.1" xmlns:xlink="http://www.w3.org/1999/xlink" width="60px" height="60px" viewBox="432 5286  60 60" xmlns="http://www.w3.org/2000/svg">
  <path d="M 462 5286  C 478.8 5286  492 5299.2  492 5316  C 492 5332.8  478.8 5346  462 5346  C 445.2 5346  432 5332.8  432 5316  C 432 5299.2  445.2 5286  462 5286  Z " fill-rule="nonzero" fill="#ffffff" stroke="none" />
  <path d="M 462 5286.5  C 478.52 5286.5  491.5 5299.48  491.5 5316  C 491.5 5332.52  478.52 5345.5  462 5345.5  C 445.48 5345.5  432.5 5332.52  432.5 5316  C 432.5 5299.48  445.48 5286.5  462 5286.5  Z " stroke-width="1" stroke="#797979" fill="none" />
  <path d="M 462 5331  C 453.6 5331  447 5324.4  447 5316  C 447 5307.6  453.6 5301  462 5301  C 470.4 5301  477 5307.6  477 5316  C 477 5324.4  470.4 5331  462 5331  " fill-rule="nonzero" fill="#797979" stroke="none" />
</svg>