<?xml version="1.0" encoding="utf-8"?>
<svg version="1.1" xmlns:xlink="http://www.w3.org/1999/xlink" width="60px" height="60px" viewBox="334 1896  60 60" xmlns="http://www.w3.org/2000/svg">
  <path d="M 364 1896  C 380.8 1896  394 1909.2  394 1926  C 394 1942.8  380.8 1956  364 1956  C 347.2 1956  334 1942.8  334 1926  C 334 1909.2  347.2 1896  364 1896  Z " fill-rule="nonzero" fill="#f0f0f0" stroke="none" />
  <path d="M 364 1896.5  C 380.52 1896.5  393.5 1909.48  393.5 1926  C 393.5 1942.52  380.52 1955.5  364 1955.5  C 347.48 1955.5  334.5 1942.52  334.5 1926  C 334.5 1909.48  347.48 1896.5  364 1896.5  Z " stroke-width="1" stroke="#797979" fill="none" />
  <path d="M 364 1941  C 355.6 1941  349 1934.4  349 1926  C 349 1917.6  355.6 1911  364 1911  C 372.4 1911  379 1917.6  379 1926  C 379 1934.4  372.4 1941  364 1941  " fill-rule="nonzero" fill="#797979" stroke="none" />
</svg>