<?xml version="1.0" encoding="utf-8"?>
<svg version="1.1" xmlns:xlink="http://www.w3.org/1999/xlink" width="60px" height="60px" viewBox="334 2042  60 60" xmlns="http://www.w3.org/2000/svg">
  <path d="M 364 2042  C 380.8 2042  394 2055.2  394 2072  C 394 2088.8  380.8 2102  364 2102  C 347.2 2102  334 2088.8  334 2072  C 334 2055.2  347.2 2042  364 2042  Z " fill-rule="nonzero" fill="#ffffff" stroke="none" />
  <path d="M 364 2042.5  C 380.52 2042.5  393.5 2055.48  393.5 2072  C 393.5 2088.52  380.52 2101.5  364 2101.5  C 347.48 2101.5  334.5 2088.52  334.5 2072  C 334.5 2055.48  347.48 2042.5  364 2042.5  Z " stroke-width="1" stroke="#797979" fill="none" />
  <path d="M 364 2087  C 355.6 2087  349 2080.4  349 2072  C 349 2063.6  355.6 2057  364 2057  C 372.4 2057  379 2063.6  379 2072  C 379 2080.4  372.4 2087  364 2087  " fill-rule="nonzero" fill="#797979" stroke="none" />
</svg>