<?xml version="1.0" encoding="utf-8"?>
<svg version="1.1" xmlns:xlink="http://www.w3.org/1999/xlink" width="60px" height="60px" viewBox="334 1965  60 60" xmlns="http://www.w3.org/2000/svg">
  <path d="M 364 1965  C 380.8 1965  394 1978.2  394 1995  C 394 2011.8  380.8 2025  364 2025  C 347.2 2025  334 2011.8  334 1995  C 334 1978.2  347.2 1965  364 1965  Z " fill-rule="nonzero" fill="#f0f0f0" stroke="none" />
  <path d="M 364 1965.5  C 380.52 1965.5  393.5 1978.48  393.5 1995  C 393.5 2011.52  380.52 2024.5  364 2024.5  C 347.48 2024.5  334.5 2011.52  334.5 1995  C 334.5 1978.48  347.48 1965.5  364 1965.5  Z " stroke-width="1" stroke="#797979" fill="none" />
  <path d="M 364 2010  C 355.6 2010  349 2003.4  349 1995  C 349 1986.6  355.6 1980  364 1980  C 372.4 1980  379 1986.6  379 1995  C 379 2003.4  372.4 2010  364 2010  " fill-rule="nonzero" fill="#797979" stroke="none" />
</svg>