<?xml version="1.0" encoding="utf-8"?>
<svg version="1.1" xmlns:xlink="http://www.w3.org/1999/xlink" width="42px" height="45px" xmlns="http://www.w3.org/2000/svg">
  <g transform="matrix(1 0 0 1 -3202 -2708 )">
    <path d="M 25.7578125 27.59765625  C 27.9705528846154 25.2268629807692  29.0769230769231 22.3737980769231  29.0769230769231 19.0384615384615  C 29.0769230769231 15.703125  27.9705528846154 12.8500600961538  25.7578125 10.4792668269231  C 23.5450721153846 8.1084735576923  20.8822115384615 6.92307692307692  17.7692307692308 6.92307692307692  C 14.65625 6.92307692307692  11.9933894230769 8.1084735576923  9.78064903846154 10.4792668269231  C 7.56790865384615 12.8500600961538  6.46153846153846 15.703125  6.46153846153846 19.0384615384615  C 6.46153846153846 22.3737980769231  7.56790865384615 25.2268629807692  9.78064903846154 27.59765625  C 11.9933894230769 29.9684495192308  14.65625 31.1538461538462  17.7692307692308 31.1538461538462  C 20.8822115384615 31.1538461538462  23.5450721153846 29.9684495192308  25.7578125 27.59765625  Z M 41.0661057692308 39.1045673076923  C 41.6887019230769 39.7716346153846  42 40.5829326923077  42 41.5384615384615  C 42 42.4759615384615  41.6802884615385 43.2872596153846  41.0408653846154 43.9723557692308  C 40.4014423076923 44.6574519230769  39.6442307692308 45  38.7692307692308 45  C 37.8605769230769 45  37.1033653846154 44.6574519230769  36.4975961538462 43.9723557692308  L 27.8401442307692 34.7235576923077  C 24.828125 36.9591346153846  21.4711538461539 38.0769230769231  17.7692307692308 38.0769230769231  C 15.3629807692308 38.0769230769231  13.0618990384615 37.5766225961538  10.8659855769231 36.5760216346154  C 8.67007211538462 35.5754206730769  6.77704326923077 34.2232572115385  5.18689903846154 32.51953125  C 3.59675480769231 30.8158052884615  2.33473557692308 28.7875600961538  1.40084134615385 26.4347956730769  C 0.466947115384615 24.08203125  0 21.6165865384615  0 19.0384615384615  C 0 16.4603365384615  0.466947115384615 13.9948918269231  1.40084134615385 11.6421274038462  C 2.33473557692308 9.28936298076923  3.59675480769231 7.26111778846154  5.18689903846154 5.55739182692308  C 6.77704326923077 3.85366586538462  8.67007211538462 2.50150240384615  10.8659855769231 1.50090144230769  C 13.0618990384615 0.50030048076923  15.3629807692308 0  17.7692307692308 0  C 20.1754807692308 0  22.4765625 0.50030048076923  24.6724759615385 1.50090144230769  C 26.8683894230769 2.50150240384615  28.7614182692308 3.85366586538462  30.3515625 5.55739182692308  C 31.9417067307692 7.26111778846154  33.2037259615385 9.28936298076923  34.1376201923077 11.6421274038462  C 35.0715144230769 13.9948918269231  35.5384615384615 16.4603365384615  35.5384615384615 19.0384615384615  C 35.5384615384615 23.0048076923077  34.4951923076923 26.6015625  32.4086538461538 29.8287259615385  L 41.0661057692308 39.1045673076923  Z " fill-rule="nonzero" fill="#0000ff" stroke="none" transform="matrix(1 0 0 1 3202 2708 )" />
  </g>
</svg>