<?xml version="1.0" encoding="utf-8"?>
<svg version="1.1" xmlns:xlink="http://www.w3.org/1999/xlink" width="60px" height="60px" viewBox="214 1675  60 60" xmlns="http://www.w3.org/2000/svg">
  <path d="M 244 1675  C 260.8 1675  274 1688.2  274 1705  C 274 1721.8  260.8 1735  244 1735  C 227.2 1735  214 1721.8  214 1705  C 214 1688.2  227.2 1675  244 1675  Z " fill-rule="nonzero" fill="#f0f0f0" stroke="none" />
  <path d="M 244 1675.5  C 260.52 1675.5  273.5 1688.48  273.5 1705  C 273.5 1721.52  260.52 1734.5  244 1734.5  C 227.48 1734.5  214.5 1721.52  214.5 1705  C 214.5 1688.48  227.48 1675.5  244 1675.5  Z " stroke-width="1" stroke="#797979" fill="none" />
  <path d="M 244 1720  C 235.6 1720  229 1713.4  229 1705  C 229 1696.6  235.6 1690  244 1690  C 252.4 1690  259 1696.6  259 1705  C 259 1713.4  252.4 1720  244 1720  " fill-rule="nonzero" fill="#797979" stroke="none" />
</svg>