<?xml version="1.0" encoding="utf-8"?>
<svg version="1.1" xmlns:xlink="http://www.w3.org/1999/xlink" width="60px" height="60px" viewBox="214 1744  60 60" xmlns="http://www.w3.org/2000/svg">
  <path d="M 244 1744  C 260.8 1744  274 1757.2  274 1774  C 274 1790.8  260.8 1804  244 1804  C 227.2 1804  214 1790.8  214 1774  C 214 1757.2  227.2 1744  244 1744  Z " fill-rule="nonzero" fill="#f0f0f0" stroke="none" />
  <path d="M 244 1744.5  C 260.52 1744.5  273.5 1757.48  273.5 1774  C 273.5 1790.52  260.52 1803.5  244 1803.5  C 227.48 1803.5  214.5 1790.52  214.5 1774  C 214.5 1757.48  227.48 1744.5  244 1744.5  Z " stroke-width="1" stroke="#797979" fill="none" />
  <path d="M 244 1789  C 235.6 1789  229 1782.4  229 1774  C 229 1765.6  235.6 1759  244 1759  C 252.4 1759  259 1765.6  259 1774  C 259 1782.4  252.4 1789  244 1789  " fill-rule="nonzero" fill="#797979" stroke="none" />
</svg>