<?xml version="1.0" encoding="utf-8"?>
<svg version="1.1" xmlns:xlink="http://www.w3.org/1999/xlink" width="60px" height="60px" viewBox="384 1833  60 60" xmlns="http://www.w3.org/2000/svg">
  <path d="M 414 1833  C 430.8 1833  444 1846.2  444 1863  C 444 1879.8  430.8 1893  414 1893  C 397.2 1893  384 1879.8  384 1863  C 384 1846.2  397.2 1833  414 1833  Z " fill-rule="nonzero" fill="#f0f0f0" stroke="none" />
  <path d="M 414 1833.5  C 430.52 1833.5  443.5 1846.48  443.5 1863  C 443.5 1879.52  430.52 1892.5  414 1892.5  C 397.48 1892.5  384.5 1879.52  384.5 1863  C 384.5 1846.48  397.48 1833.5  414 1833.5  Z " stroke-width="1" stroke="#797979" fill="none" />
  <path d="M 414 1878  C 405.6 1878  399 1871.4  399 1863  C 399 1854.6  405.6 1848  414 1848  C 422.4 1848  429 1854.6  429 1863  C 429 1871.4  422.4 1878  414 1878  " fill-rule="nonzero" fill="#797979" stroke="none" />
</svg>