<?xml version="1.0" encoding="utf-8"?>
<svg version="1.1" xmlns:xlink="http://www.w3.org/1999/xlink" width="60px" height="60px" viewBox="384 1903  60 60" xmlns="http://www.w3.org/2000/svg">
  <path d="M 414 1903  C 430.8 1903  444 1916.2  444 1933  C 444 1949.8  430.8 1963  414 1963  C 397.2 1963  384 1949.8  384 1933  C 384 1916.2  397.2 1903  414 1903  Z " fill-rule="nonzero" fill="#ffffff" stroke="none" />
  <path d="M 414 1903.5  C 430.52 1903.5  443.5 1916.48  443.5 1933  C 443.5 1949.52  430.52 1962.5  414 1962.5  C 397.48 1962.5  384.5 1949.52  384.5 1933  C 384.5 1916.48  397.48 1903.5  414 1903.5  Z " stroke-width="1" stroke="#797979" fill="none" />
  <path d="M 414 1948  C 405.6 1948  399 1941.4  399 1933  C 399 1924.6  405.6 1918  414 1918  C 422.4 1918  429 1924.6  429 1933  C 429 1941.4  422.4 1948  414 1948  " fill-rule="nonzero" fill="#797979" stroke="none" />
</svg>