<?xml version="1.0" encoding="utf-8"?>
<svg version="1.1" xmlns:xlink="http://www.w3.org/1999/xlink" width="60px" height="60px" viewBox="384 1759  60 60" xmlns="http://www.w3.org/2000/svg">
  <path d="M 414 1759  C 430.8 1759  444 1772.2  444 1789  C 444 1805.8  430.8 1819  414 1819  C 397.2 1819  384 1805.8  384 1789  C 384 1772.2  397.2 1759  414 1759  Z " fill-rule="nonzero" fill="#f0f0f0" stroke="none" />
  <path d="M 414 1759.5  C 430.52 1759.5  443.5 1772.48  443.5 1789  C 443.5 1805.52  430.52 1818.5  414 1818.5  C 397.48 1818.5  384.5 1805.52  384.5 1789  C 384.5 1772.48  397.48 1759.5  414 1759.5  Z " stroke-width="1" stroke="#797979" fill="none" />
  <path d="M 414 1804  C 405.6 1804  399 1797.4  399 1789  C 399 1780.6  405.6 1774  414 1774  C 422.4 1774  429 1780.6  429 1789  C 429 1797.4  422.4 1804  414 1804  " fill-rule="nonzero" fill="#797979" stroke="none" />
</svg>