<?xml version="1.0" encoding="utf-8"?>
<svg version="1.1" xmlns:xlink="http://www.w3.org/1999/xlink" width="60px" height="60px" viewBox="384 1692  60 60" xmlns="http://www.w3.org/2000/svg">
  <path d="M 414 1692  C 430.8 1692  444 1705.2  444 1722  C 444 1738.8  430.8 1752  414 1752  C 397.2 1752  384 1738.8  384 1722  C 384 1705.2  397.2 1692  414 1692  Z " fill-rule="nonzero" fill="#f0f0f0" stroke="none" />
  <path d="M 414 1692.5  C 430.52 1692.5  443.5 1705.48  443.5 1722  C 443.5 1738.52  430.52 1751.5  414 1751.5  C 397.48 1751.5  384.5 1738.52  384.5 1722  C 384.5 1705.48  397.48 1692.5  414 1692.5  Z " stroke-width="1" stroke="#797979" fill="none" />
  <path d="M 414 1737  C 405.6 1737  399 1730.4  399 1722  C 399 1713.6  405.6 1707  414 1707  C 422.4 1707  429 1713.6  429 1722  C 429 1730.4  422.4 1737  414 1737  " fill-rule="nonzero" fill="#797979" stroke="none" />
</svg>