<?xml version="1.0" encoding="utf-8"?>
<svg version="1.1" xmlns:xlink="http://www.w3.org/1999/xlink" width="60px" height="60px" viewBox="384 1972  60 60" xmlns="http://www.w3.org/2000/svg">
  <path d="M 414 1972  C 430.8 1972  444 1985.2  444 2002  C 444 2018.8  430.8 2032  414 2032  C 397.2 2032  384 2018.8  384 2002  C 384 1985.2  397.2 1972  414 1972  Z " fill-rule="nonzero" fill="#ffffff" stroke="none" />
  <path d="M 414 1972.5  C 430.52 1972.5  443.5 1985.48  443.5 2002  C 443.5 2018.52  430.52 2031.5  414 2031.5  C 397.48 2031.5  384.5 2018.52  384.5 2002  C 384.5 1985.48  397.48 1972.5  414 1972.5  Z " stroke-width="1" stroke="#797979" fill="none" />
  <path d="M 414 2017  C 405.6 2017  399 2010.4  399 2002  C 399 1993.6  405.6 1987  414 1987  C 422.4 1987  429 1993.6  429 2002  C 429 2010.4  422.4 2017  414 2017  " fill-rule="nonzero" fill="#797979" stroke="none" />
</svg>