<?xml version="1.0" encoding="utf-8"?>
<svg version="1.1" xmlns:xlink="http://www.w3.org/1999/xlink" width="60px" height="60px" viewBox="384 2179  60 60" xmlns="http://www.w3.org/2000/svg">
  <path d="M 414 2179  C 430.8 2179  444 2192.2  444 2209  C 444 2225.8  430.8 2239  414 2239  C 397.2 2239  384 2225.8  384 2209  C 384 2192.2  397.2 2179  414 2179  Z " fill-rule="nonzero" fill="#f0f0f0" stroke="none" />
  <path d="M 414 2179.5  C 430.52 2179.5  443.5 2192.48  443.5 2209  C 443.5 2225.52  430.52 2238.5  414 2238.5  C 397.48 2238.5  384.5 2225.52  384.5 2209  C 384.5 2192.48  397.48 2179.5  414 2179.5  Z " stroke-width="1" stroke="#797979" fill="none" />
  <path d="M 414 2224  C 405.6 2224  399 2217.4  399 2209  C 399 2200.6  405.6 2194  414 2194  C 422.4 2194  429 2200.6  429 2209  C 429 2217.4  422.4 2224  414 2224  " fill-rule="nonzero" fill="#797979" stroke="none" />
</svg>