<?xml version="1.0" encoding="utf-8"?>
<svg version="1.1" xmlns:xlink="http://www.w3.org/1999/xlink" width="60px" height="60px" viewBox="384 2112  60 60" xmlns="http://www.w3.org/2000/svg">
  <path d="M 414 2112  C 430.8 2112  444 2125.2  444 2142  C 444 2158.8  430.8 2172  414 2172  C 397.2 2172  384 2158.8  384 2142  C 384 2125.2  397.2 2112  414 2112  Z " fill-rule="nonzero" fill="#f0f0f0" stroke="none" />
  <path d="M 414 2112.5  C 430.52 2112.5  443.5 2125.48  443.5 2142  C 443.5 2158.52  430.52 2171.5  414 2171.5  C 397.48 2171.5  384.5 2158.52  384.5 2142  C 384.5 2125.48  397.48 2112.5  414 2112.5  Z " stroke-width="1" stroke="#797979" fill="none" />
  <path d="M 414 2157  C 405.6 2157  399 2150.4  399 2142  C 399 2133.6  405.6 2127  414 2127  C 422.4 2127  429 2133.6  429 2142  C 429 2150.4  422.4 2157  414 2157  " fill-rule="nonzero" fill="#797979" stroke="none" />
</svg>