<?xml version="1.0" encoding="utf-8"?>
<svg version="1.1" xmlns:xlink="http://www.w3.org/1999/xlink" width="60px" height="60px" viewBox="384 2251  60 60" xmlns="http://www.w3.org/2000/svg">
  <path d="M 414 2251  C 430.8 2251  444 2264.2  444 2281  C 444 2297.8  430.8 2311  414 2311  C 397.2 2311  384 2297.8  384 2281  C 384 2264.2  397.2 2251  414 2251  Z " fill-rule="nonzero" fill="#ffffff" stroke="none" />
  <path d="M 414 2251.5  C 430.52 2251.5  443.5 2264.48  443.5 2281  C 443.5 2297.52  430.52 2310.5  414 2310.5  C 397.48 2310.5  384.5 2297.52  384.5 2281  C 384.5 2264.48  397.48 2251.5  414 2251.5  Z " stroke-width="1" stroke="#797979" fill="none" />
  <path d="M 414 2296  C 405.6 2296  399 2289.4  399 2281  C 399 2272.6  405.6 2266  414 2266  C 422.4 2266  429 2272.6  429 2281  C 429 2289.4  422.4 2296  414 2296  " fill-rule="nonzero" fill="#797979" stroke="none" />
</svg>