<?xml version="1.0" encoding="utf-8"?>
<svg version="1.1" xmlns:xlink="http://www.w3.org/1999/xlink" width="60px" height="60px" viewBox="384 2322  60 60" xmlns="http://www.w3.org/2000/svg">
  <path d="M 414 2322  C 430.8 2322  444 2335.2  444 2352  C 444 2368.8  430.8 2382  414 2382  C 397.2 2382  384 2368.8  384 2352  C 384 2335.2  397.2 2322  414 2322  Z " fill-rule="nonzero" fill="#ffffff" stroke="none" />
  <path d="M 414 2322.5  C 430.52 2322.5  443.5 2335.48  443.5 2352  C 443.5 2368.52  430.52 2381.5  414 2381.5  C 397.48 2381.5  384.5 2368.52  384.5 2352  C 384.5 2335.48  397.48 2322.5  414 2322.5  Z " stroke-width="1" stroke="#797979" fill="none" />
  <path d="M 414 2367  C 405.6 2367  399 2360.4  399 2352  C 399 2343.6  405.6 2337  414 2337  C 422.4 2337  429 2343.6  429 2352  C 429 2360.4  422.4 2367  414 2367  " fill-rule="nonzero" fill="#797979" stroke="none" />
</svg>