<?xml version="1.0" encoding="utf-8"?>
<svg version="1.1" xmlns:xlink="http://www.w3.org/1999/xlink" width="60px" height="60px" viewBox="307 2670  60 60" xmlns="http://www.w3.org/2000/svg">
  <path d="M 337 2670  C 353.8 2670  367 2683.2  367 2700  C 367 2716.8  353.8 2730  337 2730  C 320.2 2730  307 2716.8  307 2700  C 307 2683.2  320.2 2670  337 2670  Z " fill-rule="nonzero" fill="#f0f0f0" stroke="none" />
  <path d="M 337 2670.5  C 353.52 2670.5  366.5 2683.48  366.5 2700  C 366.5 2716.52  353.52 2729.5  337 2729.5  C 320.48 2729.5  307.5 2716.52  307.5 2700  C 307.5 2683.48  320.48 2670.5  337 2670.5  Z " stroke-width="1" stroke="#797979" fill="none" />
  <path d="M 337 2715  C 328.6 2715  322 2708.4  322 2700  C 322 2691.6  328.6 2685  337 2685  C 345.4 2685  352 2691.6  352 2700  C 352 2708.4  345.4 2715  337 2715  " fill-rule="nonzero" fill="#797979" stroke="none" />
</svg>