<?xml version="1.0" encoding="utf-8"?>
<svg version="1.1" xmlns:xlink="http://www.w3.org/1999/xlink" width="60px" height="60px" viewBox="307 2599  60 60" xmlns="http://www.w3.org/2000/svg">
  <path d="M 337 2599  C 353.8 2599  367 2612.2  367 2629  C 367 2645.8  353.8 2659  337 2659  C 320.2 2659  307 2645.8  307 2629  C 307 2612.2  320.2 2599  337 2599  Z " fill-rule="nonzero" fill="#f0f0f0" stroke="none" />
  <path d="M 337 2599.5  C 353.52 2599.5  366.5 2612.48  366.5 2629  C 366.5 2645.52  353.52 2658.5  337 2658.5  C 320.48 2658.5  307.5 2645.52  307.5 2629  C 307.5 2612.48  320.48 2599.5  337 2599.5  Z " stroke-width="1" stroke="#797979" fill="none" />
  <path d="M 337 2644  C 328.6 2644  322 2637.4  322 2629  C 322 2620.6  328.6 2614  337 2614  C 345.4 2614  352 2620.6  352 2629  C 352 2637.4  345.4 2644  337 2644  " fill-rule="nonzero" fill="#797979" stroke="none" />
</svg>