<?xml version="1.0" encoding="utf-8"?>
<svg version="1.1" xmlns:xlink="http://www.w3.org/1999/xlink" width="60px" height="60px" viewBox="247 1640  60 60" xmlns="http://www.w3.org/2000/svg">
  <path d="M 277 1640  C 293.8 1640  307 1653.2  307 1670  C 307 1686.8  293.8 1700  277 1700  C 260.2 1700  247 1686.8  247 1670  C 247 1653.2  260.2 1640  277 1640  Z " fill-rule="nonzero" fill="#f0f0f0" stroke="none" />
  <path d="M 277 1640.5  C 293.52 1640.5  306.5 1653.48  306.5 1670  C 306.5 1686.52  293.52 1699.5  277 1699.5  C 260.48 1699.5  247.5 1686.52  247.5 1670  C 247.5 1653.48  260.48 1640.5  277 1640.5  Z " stroke-width="1" stroke="#797979" fill="none" />
  <path d="M 277 1685  C 268.6 1685  262 1678.4  262 1670  C 262 1661.6  268.6 1655  277 1655  C 285.4 1655  292 1661.6  292 1670  C 292 1678.4  285.4 1685  277 1685  " fill-rule="nonzero" fill="#797979" stroke="none" />
</svg>