<?xml version="1.0" encoding="utf-8"?>
<svg version="1.1" xmlns:xlink="http://www.w3.org/1999/xlink" width="60px" height="60px" viewBox="247 1569  60 60" xmlns="http://www.w3.org/2000/svg">
  <path d="M 277 1569  C 293.8 1569  307 1582.2  307 1599  C 307 1615.8  293.8 1629  277 1629  C 260.2 1629  247 1615.8  247 1599  C 247 1582.2  260.2 1569  277 1569  Z " fill-rule="nonzero" fill="#ffffff" stroke="none" />
  <path d="M 277 1569.5  C 293.52 1569.5  306.5 1582.48  306.5 1599  C 306.5 1615.52  293.52 1628.5  277 1628.5  C 260.48 1628.5  247.5 1615.52  247.5 1599  C 247.5 1582.48  260.48 1569.5  277 1569.5  Z " stroke-width="1" stroke="#797979" fill="none" />
  <path d="M 277 1614  C 268.6 1614  262 1607.4  262 1599  C 262 1590.6  268.6 1584  277 1584  C 285.4 1584  292 1590.6  292 1599  C 292 1607.4  285.4 1614  277 1614  " fill-rule="nonzero" fill="#797979" stroke="none" />
</svg>