<?xml version="1.0" encoding="utf-8"?>
<svg version="1.1" xmlns:xlink="http://www.w3.org/1999/xlink" width="60px" height="60px" viewBox="247 1778  60 60" xmlns="http://www.w3.org/2000/svg">
  <path d="M 277 1778  C 293.8 1778  307 1791.2  307 1808  C 307 1824.8  293.8 1838  277 1838  C 260.2 1838  247 1824.8  247 1808  C 247 1791.2  260.2 1778  277 1778  Z " fill-rule="nonzero" fill="#ffffff" stroke="none" />
  <path d="M 277 1778.5  C 293.52 1778.5  306.5 1791.48  306.5 1808  C 306.5 1824.52  293.52 1837.5  277 1837.5  C 260.48 1837.5  247.5 1824.52  247.5 1808  C 247.5 1791.48  260.48 1778.5  277 1778.5  Z " stroke-width="1" stroke="#797979" fill="none" />
  <path d="M 277 1823  C 268.6 1823  262 1816.4  262 1808  C 262 1799.6  268.6 1793  277 1793  C 285.4 1793  292 1799.6  292 1808  C 292 1816.4  285.4 1823  277 1823  " fill-rule="nonzero" fill="#797979" stroke="none" />
</svg>