<?xml version="1.0" encoding="utf-8"?>
<svg version="1.1" xmlns:xlink="http://www.w3.org/1999/xlink" width="60px" height="60px" viewBox="247 1707  60 60" xmlns="http://www.w3.org/2000/svg">
  <path d="M 277 1707  C 293.8 1707  307 1720.2  307 1737  C 307 1753.8  293.8 1767  277 1767  C 260.2 1767  247 1753.8  247 1737  C 247 1720.2  260.2 1707  277 1707  Z " fill-rule="nonzero" fill="#ffffff" stroke="none" />
  <path d="M 277 1707.5  C 293.52 1707.5  306.5 1720.48  306.5 1737  C 306.5 1753.52  293.52 1766.5  277 1766.5  C 260.48 1766.5  247.5 1753.52  247.5 1737  C 247.5 1720.48  260.48 1707.5  277 1707.5  Z " stroke-width="1" stroke="#797979" fill="none" />
  <path d="M 277 1752  C 268.6 1752  262 1745.4  262 1737  C 262 1728.6  268.6 1722  277 1722  C 285.4 1722  292 1728.6  292 1737  C 292 1745.4  285.4 1752  277 1752  " fill-rule="nonzero" fill="#797979" stroke="none" />
</svg>