<?xml version="1.0" encoding="utf-8"?>
<svg version="1.1" xmlns:xlink="http://www.w3.org/1999/xlink" width="32px" height="32px" xmlns="http://www.w3.org/2000/svg">
  <defs>
    <mask fill="white" id="clip27">
      <path d="M 0 16  C 0 8.84034685524091  4.4951129200083 2.90663359775681  10.8730457929971 0.811153194575724  C 12.4768234004678 0.284229406815484  14.1996531447592 0  16 0  C 24.96 0  32 7.03999999999999  32 16  C 32 24.96  24.96 32  16 32  C 7.03999999999996 32  0 24.96  0 16  Z " fill-rule="evenodd" />
    </mask>
  </defs>
  <g transform="matrix(1 0 0 1 -1213 -152 )">
    <path d="M 0 16  C 0 8.84034685524091  4.4951129200083 2.90663359775681  10.8730457929971 0.811153194575724  C 12.4768234004678 0.284229406815484  14.1996531447592 0  16 0  C 24.96 0  32 7.03999999999999  32 16  C 32 24.96  24.96 32  16 32  C 7.03999999999996 32  0 24.96  0 16  Z " fill-rule="nonzero" fill="#0000ff" stroke="none" transform="matrix(1 0 0 1 1213 152 )" />
    <path d="M 0 16  C 0 8.84034685524091  4.4951129200083 2.90663359775681  10.8730457929971 0.811153194575724  C 12.4768234004678 0.284229406815484  14.1996531447592 0  16 0  C 24.96 0  32 7.03999999999999  32 16  C 32 24.96  24.96 32  16 32  C 7.03999999999996 32  0 24.96  0 16  Z " stroke-width="2" stroke="#000000" fill="none" stroke-opacity="0.149019607843137" transform="matrix(1 0 0 1 1213 152 )" mask="url(#clip27)" />
  </g>
</svg>