<?xml version="1.0" encoding="utf-8"?>
<svg version="1.1" xmlns:xlink="http://www.w3.org/1999/xlink" width="60px" height="60px" viewBox="248 3051  60 60" xmlns="http://www.w3.org/2000/svg">
  <path d="M 278 3051  C 294.8 3051  308 3064.2  308 3081  C 308 3097.8  294.8 3111  278 3111  C 261.2 3111  248 3097.8  248 3081  C 248 3064.2  261.2 3051  278 3051  Z " fill-rule="nonzero" fill="#ffffff" stroke="none" />
  <path d="M 278 3051.5  C 294.52 3051.5  307.5 3064.48  307.5 3081  C 307.5 3097.52  294.52 3110.5  278 3110.5  C 261.48 3110.5  248.5 3097.52  248.5 3081  C 248.5 3064.48  261.48 3051.5  278 3051.5  Z " stroke-width="1" stroke="#797979" fill="none" />
  <path d="M 278 3096  C 269.6 3096  263 3089.4  263 3081  C 263 3072.6  269.6 3066  278 3066  C 286.4 3066  293 3072.6  293 3081  C 293 3089.4  286.4 3096  278 3096  " fill-rule="nonzero" fill="#797979" stroke="none" />
</svg>