<?xml version="1.0" encoding="utf-8"?>
<svg version="1.1" xmlns:xlink="http://www.w3.org/1999/xlink" width="60px" height="60px" viewBox="248 3330  60 60" xmlns="http://www.w3.org/2000/svg">
  <path d="M 278 3330  C 294.8 3330  308 3343.2  308 3360  C 308 3376.8  294.8 3390  278 3390  C 261.2 3390  248 3376.8  248 3360  C 248 3343.2  261.2 3330  278 3330  Z " fill-rule="nonzero" fill="#f0f0f0" stroke="none" />
  <path d="M 278 3330.5  C 294.52 3330.5  307.5 3343.48  307.5 3360  C 307.5 3376.52  294.52 3389.5  278 3389.5  C 261.48 3389.5  248.5 3376.52  248.5 3360  C 248.5 3343.48  261.48 3330.5  278 3330.5  Z " stroke-width="1" stroke="#797979" fill="none" />
  <path d="M 278 3375  C 269.6 3375  263 3368.4  263 3360  C 263 3351.6  269.6 3345  278 3345  C 286.4 3345  293 3351.6  293 3360  C 293 3368.4  286.4 3375  278 3375  " fill-rule="nonzero" fill="#797979" stroke="none" />
</svg>