<?xml version="1.0" encoding="utf-8"?>
<svg version="1.1" xmlns:xlink="http://www.w3.org/1999/xlink" width="60px" height="60px" viewBox="248 3121  60 60" xmlns="http://www.w3.org/2000/svg">
  <path d="M 278 3121  C 294.8 3121  308 3134.2  308 3151  C 308 3167.8  294.8 3181  278 3181  C 261.2 3181  248 3167.8  248 3151  C 248 3134.2  261.2 3121  278 3121  Z " fill-rule="nonzero" fill="#ffffff" stroke="none" />
  <path d="M 278 3121.5  C 294.52 3121.5  307.5 3134.48  307.5 3151  C 307.5 3167.52  294.52 3180.5  278 3180.5  C 261.48 3180.5  248.5 3167.52  248.5 3151  C 248.5 3134.48  261.48 3121.5  278 3121.5  Z " stroke-width="1" stroke="#797979" fill="none" />
  <path d="M 278 3166  C 269.6 3166  263 3159.4  263 3151  C 263 3142.6  269.6 3136  278 3136  C 286.4 3136  293 3142.6  293 3151  C 293 3159.4  286.4 3166  278 3166  " fill-rule="nonzero" fill="#797979" stroke="none" />
</svg>