<?xml version="1.0" encoding="utf-8"?>
<svg version="1.1" xmlns:xlink="http://www.w3.org/1999/xlink" width="60px" height="60px" viewBox="248 3611  60 60" xmlns="http://www.w3.org/2000/svg">
  <path d="M 278 3611  C 294.8 3611  308 3624.2  308 3641  C 308 3657.8  294.8 3671  278 3671  C 261.2 3671  248 3657.8  248 3641  C 248 3624.2  261.2 3611  278 3611  Z " fill-rule="nonzero" fill="#ffffff" stroke="none" />
  <path d="M 278 3611.5  C 294.52 3611.5  307.5 3624.48  307.5 3641  C 307.5 3657.52  294.52 3670.5  278 3670.5  C 261.48 3670.5  248.5 3657.52  248.5 3641  C 248.5 3624.48  261.48 3611.5  278 3611.5  Z " stroke-width="1" stroke="#797979" fill="none" />
  <path d="M 278 3656  C 269.6 3656  263 3649.4  263 3641  C 263 3632.6  269.6 3626  278 3626  C 286.4 3626  293 3632.6  293 3641  C 293 3649.4  286.4 3656  278 3656  " fill-rule="nonzero" fill="#797979" stroke="none" />
</svg>