<?xml version="1.0" encoding="utf-8"?>
<svg version="1.1" xmlns:xlink="http://www.w3.org/1999/xlink" width="60px" height="60px" viewBox="248 2700  60 60" xmlns="http://www.w3.org/2000/svg">
  <path d="M 278 2700  C 294.8 2700  308 2713.2  308 2730  C 308 2746.8  294.8 2760  278 2760  C 261.2 2760  248 2746.8  248 2730  C 248 2713.2  261.2 2700  278 2700  Z " fill-rule="nonzero" fill="#f0f0f0" stroke="none" />
  <path d="M 278 2700.5  C 294.52 2700.5  307.5 2713.48  307.5 2730  C 307.5 2746.52  294.52 2759.5  278 2759.5  C 261.48 2759.5  248.5 2746.52  248.5 2730  C 248.5 2713.48  261.48 2700.5  278 2700.5  Z " stroke-width="1" stroke="#797979" fill="none" />
  <path d="M 278 2745  C 269.6 2745  263 2738.4  263 2730  C 263 2721.6  269.6 2715  278 2715  C 286.4 2715  293 2721.6  293 2730  C 293 2738.4  286.4 2745  278 2745  " fill-rule="nonzero" fill="#797979" stroke="none" />
</svg>