<?xml version="1.0" encoding="utf-8"?>
<svg version="1.1" xmlns:xlink="http://www.w3.org/1999/xlink" width="60px" height="60px" viewBox="248 2838  60 60" xmlns="http://www.w3.org/2000/svg">
  <path d="M 278 2838  C 294.8 2838  308 2851.2  308 2868  C 308 2884.8  294.8 2898  278 2898  C 261.2 2898  248 2884.8  248 2868  C 248 2851.2  261.2 2838  278 2838  Z " fill-rule="nonzero" fill="#ffffff" stroke="none" />
  <path d="M 278 2838.5  C 294.52 2838.5  307.5 2851.48  307.5 2868  C 307.5 2884.52  294.52 2897.5  278 2897.5  C 261.48 2897.5  248.5 2884.52  248.5 2868  C 248.5 2851.48  261.48 2838.5  278 2838.5  Z " stroke-width="1" stroke="#797979" fill="none" />
  <path d="M 278 2883  C 269.6 2883  263 2876.4  263 2868  C 263 2859.6  269.6 2853  278 2853  C 286.4 2853  293 2859.6  293 2868  C 293 2876.4  286.4 2883  278 2883  " fill-rule="nonzero" fill="#797979" stroke="none" />
</svg>