<?xml version="1.0" encoding="utf-8"?>
<svg version="1.1" xmlns:xlink="http://www.w3.org/1999/xlink" width="60px" height="60px" viewBox="248 3541  60 60" xmlns="http://www.w3.org/2000/svg">
  <path d="M 278 3541  C 294.8 3541  308 3554.2  308 3571  C 308 3587.8  294.8 3601  278 3601  C 261.2 3601  248 3587.8  248 3571  C 248 3554.2  261.2 3541  278 3541  Z " fill-rule="nonzero" fill="#ffffff" stroke="none" />
  <path d="M 278 3541.5  C 294.52 3541.5  307.5 3554.48  307.5 3571  C 307.5 3587.52  294.52 3600.5  278 3600.5  C 261.48 3600.5  248.5 3587.52  248.5 3571  C 248.5 3554.48  261.48 3541.5  278 3541.5  Z " stroke-width="1" stroke="#797979" fill="none" />
  <path d="M 278 3586  C 269.6 3586  263 3579.4  263 3571  C 263 3562.6  269.6 3556  278 3556  C 286.4 3556  293 3562.6  293 3571  C 293 3579.4  286.4 3586  278 3586  " fill-rule="nonzero" fill="#797979" stroke="none" />
</svg>