<?xml version="1.0" encoding="utf-8"?>
<svg version="1.1" xmlns:xlink="http://www.w3.org/1999/xlink" width="60px" height="60px" viewBox="248 3471  60 60" xmlns="http://www.w3.org/2000/svg">
  <path d="M 278 3471  C 294.8 3471  308 3484.2  308 3501  C 308 3517.8  294.8 3531  278 3531  C 261.2 3531  248 3517.8  248 3501  C 248 3484.2  261.2 3471  278 3471  Z " fill-rule="nonzero" fill="#ffffff" stroke="none" />
  <path d="M 278 3471.5  C 294.52 3471.5  307.5 3484.48  307.5 3501  C 307.5 3517.52  294.52 3530.5  278 3530.5  C 261.48 3530.5  248.5 3517.52  248.5 3501  C 248.5 3484.48  261.48 3471.5  278 3471.5  Z " stroke-width="1" stroke="#797979" fill="none" />
  <path d="M 278 3516  C 269.6 3516  263 3509.4  263 3501  C 263 3492.6  269.6 3486  278 3486  C 286.4 3486  293 3492.6  293 3501  C 293 3509.4  286.4 3516  278 3516  " fill-rule="nonzero" fill="#797979" stroke="none" />
</svg>