<?xml version="1.0" encoding="utf-8"?>
<svg version="1.1" xmlns:xlink="http://www.w3.org/1999/xlink" width="60px" height="60px" viewBox="248 2771  60 60" xmlns="http://www.w3.org/2000/svg">
  <path d="M 278 2771  C 294.8 2771  308 2784.2  308 2801  C 308 2817.8  294.8 2831  278 2831  C 261.2 2831  248 2817.8  248 2801  C 248 2784.2  261.2 2771  278 2771  Z " fill-rule="nonzero" fill="#ffffff" stroke="none" />
  <path d="M 278 2771.5  C 294.52 2771.5  307.5 2784.48  307.5 2801  C 307.5 2817.52  294.52 2830.5  278 2830.5  C 261.48 2830.5  248.5 2817.52  248.5 2801  C 248.5 2784.48  261.48 2771.5  278 2771.5  Z " stroke-width="1" stroke="#797979" fill="none" />
  <path d="M 278 2816  C 269.6 2816  263 2809.4  263 2801  C 263 2792.6  269.6 2786  278 2786  C 286.4 2786  293 2792.6  293 2801  C 293 2809.4  286.4 2816  278 2816  " fill-rule="nonzero" fill="#797979" stroke="none" />
</svg>