<?xml version="1.0" encoding="utf-8"?>
<svg version="1.1" xmlns:xlink="http://www.w3.org/1999/xlink" width="60px" height="60px" viewBox="248 3820  60 60" xmlns="http://www.w3.org/2000/svg">
  <path d="M 278 3820  C 294.8 3820  308 3833.2  308 3850  C 308 3866.8  294.8 3880  278 3880  C 261.2 3880  248 3866.8  248 3850  C 248 3833.2  261.2 3820  278 3820  Z " fill-rule="nonzero" fill="#f0f0f0" stroke="none" />
  <path d="M 278 3820.5  C 294.52 3820.5  307.5 3833.48  307.5 3850  C 307.5 3866.52  294.52 3879.5  278 3879.5  C 261.48 3879.5  248.5 3866.52  248.5 3850  C 248.5 3833.48  261.48 3820.5  278 3820.5  Z " stroke-width="1" stroke="#797979" fill="none" />
  <path d="M 278 3865  C 269.6 3865  263 3858.4  263 3850  C 263 3841.6  269.6 3835  278 3835  C 286.4 3835  293 3841.6  293 3850  C 293 3858.4  286.4 3865  278 3865  " fill-rule="nonzero" fill="#797979" stroke="none" />
</svg>