<?xml version="1.0" encoding="utf-8"?>
<svg version="1.1" xmlns:xlink="http://www.w3.org/1999/xlink" width="60px" height="60px" viewBox="248 3960  60 60" xmlns="http://www.w3.org/2000/svg">
  <path d="M 278 3960  C 294.8 3960  308 3973.2  308 3990  C 308 4006.8  294.8 4020  278 4020  C 261.2 4020  248 4006.8  248 3990  C 248 3973.2  261.2 3960  278 3960  Z " fill-rule="nonzero" fill="#f0f0f0" stroke="none" />
  <path d="M 278 3960.5  C 294.52 3960.5  307.5 3973.48  307.5 3990  C 307.5 4006.52  294.52 4019.5  278 4019.5  C 261.48 4019.5  248.5 4006.52  248.5 3990  C 248.5 3973.48  261.48 3960.5  278 3960.5  Z " stroke-width="1" stroke="#797979" fill="none" />
  <path d="M 278 4005  C 269.6 4005  263 3998.4  263 3990  C 263 3981.6  269.6 3975  278 3975  C 286.4 3975  293 3981.6  293 3990  C 293 3998.4  286.4 4005  278 4005  " fill-rule="nonzero" fill="#797979" stroke="none" />
</svg>