<?xml version="1.0" encoding="utf-8"?>
<svg version="1.1" xmlns:xlink="http://www.w3.org/1999/xlink" width="60px" height="60px" viewBox="248 3680  60 60" xmlns="http://www.w3.org/2000/svg">
  <path d="M 278 3680  C 294.8 3680  308 3693.2  308 3710  C 308 3726.8  294.8 3740  278 3740  C 261.2 3740  248 3726.8  248 3710  C 248 3693.2  261.2 3680  278 3680  Z " fill-rule="nonzero" fill="#f0f0f0" stroke="none" />
  <path d="M 278 3680.5  C 294.52 3680.5  307.5 3693.48  307.5 3710  C 307.5 3726.52  294.52 3739.5  278 3739.5  C 261.48 3739.5  248.5 3726.52  248.5 3710  C 248.5 3693.48  261.48 3680.5  278 3680.5  Z " stroke-width="1" stroke="#797979" fill="none" />
  <path d="M 278 3725  C 269.6 3725  263 3718.4  263 3710  C 263 3701.6  269.6 3695  278 3695  C 286.4 3695  293 3701.6  293 3710  C 293 3718.4  286.4 3725  278 3725  " fill-rule="nonzero" fill="#797979" stroke="none" />
</svg>