<?xml version="1.0" encoding="utf-8"?>
<svg version="1.1" xmlns:xlink="http://www.w3.org/1999/xlink" width="60px" height="60px" viewBox="248 3890  60 60" xmlns="http://www.w3.org/2000/svg">
  <path d="M 278 3890  C 294.8 3890  308 3903.2  308 3920  C 308 3936.8  294.8 3950  278 3950  C 261.2 3950  248 3936.8  248 3920  C 248 3903.2  261.2 3890  278 3890  Z " fill-rule="nonzero" fill="#ffffff" stroke="none" />
  <path d="M 278 3890.5  C 294.52 3890.5  307.5 3903.48  307.5 3920  C 307.5 3936.52  294.52 3949.5  278 3949.5  C 261.48 3949.5  248.5 3936.52  248.5 3920  C 248.5 3903.48  261.48 3890.5  278 3890.5  Z " stroke-width="1" stroke="#797979" fill="none" />
  <path d="M 278 3935  C 269.6 3935  263 3928.4  263 3920  C 263 3911.6  269.6 3905  278 3905  C 286.4 3905  293 3911.6  293 3920  C 293 3928.4  286.4 3935  278 3935  " fill-rule="nonzero" fill="#797979" stroke="none" />
</svg>