<?xml version="1.0" encoding="utf-8"?>
<svg version="1.1" xmlns:xlink="http://www.w3.org/1999/xlink" width="60px" height="60px" viewBox="248 3750  60 60" xmlns="http://www.w3.org/2000/svg">
  <path d="M 278 3750  C 294.8 3750  308 3763.2  308 3780  C 308 3796.8  294.8 3810  278 3810  C 261.2 3810  248 3796.8  248 3780  C 248 3763.2  261.2 3750  278 3750  Z " fill-rule="nonzero" fill="#f0f0f0" stroke="none" />
  <path d="M 278 3750.5  C 294.52 3750.5  307.5 3763.48  307.5 3780  C 307.5 3796.52  294.52 3809.5  278 3809.5  C 261.48 3809.5  248.5 3796.52  248.5 3780  C 248.5 3763.48  261.48 3750.5  278 3750.5  Z " stroke-width="1" stroke="#797979" fill="none" />
  <path d="M 278 3795  C 269.6 3795  263 3788.4  263 3780  C 263 3771.6  269.6 3765  278 3765  C 286.4 3765  293 3771.6  293 3780  C 293 3788.4  286.4 3795  278 3795  " fill-rule="nonzero" fill="#797979" stroke="none" />
</svg>