<?xml version="1.0" encoding="utf-8"?>
<svg version="1.1" xmlns:xlink="http://www.w3.org/1999/xlink" width="102px" height="60px" xmlns="http://www.w3.org/2000/svg">
  <g transform="matrix(1 0 0 1 -4581 -1119 )">
    <path d="M 4581 1119  L 4683 1119  L 4683 1179  L 4581 1179  L 4581 1119  " fill-rule="nonzero" fill="#cccccc" stroke="none" />
    <path d="M 4585 1123  L 4679 1123  L 4679 1175  L 4585 1175  L 4585 1123  " fill-rule="nonzero" fill="#ffffff" stroke="none" />
    <path d="M 4638.54 1137  C 4636.02 1137  4634.04 1135.02  4634.04 1132.5  C 4634.04 1129.98  4636.02 1128  4638.54 1128  C 4641.06 1128  4643.04 1129.98  4643.04 1132.5  C 4643.04 1135.02  4641.06 1137  4638.54 1137  " fill-rule="nonzero" fill="#cccccc" stroke="none" />
    <path d="M 4587 1174  L 4587 1147.05  L 4609.75 1134.8  L 4641.6 1156.70588235294  L 4659.8 1142.15  L 4678 1156.70588235294  L 4678 1174  L 4587 1174  " fill-rule="nonzero" fill="#169bd5" stroke="none" />
  </g>
</svg>