<?xml version="1.0" encoding="utf-8"?>
<svg version="1.1" xmlns:xlink="http://www.w3.org/1999/xlink" width="140px" height="40px" xmlns="http://www.w3.org/2000/svg">
  <defs>
    <mask fill="white" id="clip17">
      <path d="M 0 38  L 0 2  C 0 0.879999999999995  0.880000000000109 0  2 0  L 97.5 0  L 138 0  C 139.12 0  140 0.879999999999995  140 2  L 140 38  C 140 39.12  139.12 40  138 40  L 2 40  C 0.880000000000109 40  0 39.12  0 38  Z " fill-rule="evenodd" />
    </mask>
  </defs>
  <g transform="matrix(1 0 0 1 -5930 -929 )">
    <path d="M 0 38  L 0 2  C 0 0.879999999999995  0.880000000000109 0  2 0  L 97.5 0  L 138 0  C 139.12 0  140 0.879999999999995  140 2  L 140 38  C 140 39.12  139.12 40  138 40  L 2 40  C 0.880000000000109 40  0 39.12  0 38  Z " fill-rule="nonzero" fill="#ffffff" stroke="none" transform="matrix(1 0 0 1 5930 929 )" />
    <path d="M 0 38  L 0 2  C 0 0.879999999999995  0.880000000000109 0  2 0  L 97.5 0  L 138 0  C 139.12 0  140 0.879999999999995  140 2  L 140 38  C 140 39.12  139.12 40  138 40  L 2 40  C 0.880000000000109 40  0 39.12  0 38  Z " stroke-width="2" stroke="#797979" fill="none" transform="matrix(1 0 0 1 5930 929 )" mask="url(#clip17)" />
  </g>
</svg>