<?xml version="1.0" encoding="utf-8"?>
<svg version="1.1" xmlns:xlink="http://www.w3.org/1999/xlink" width="404px" height="40px" xmlns="http://www.w3.org/2000/svg">
  <defs>
    <mask fill="white" id="clip18">
      <path d="M 0 38  L 0 2  C 0 0.879999999999995  2.53942857142889 0  5.77142857142857 0  L 281.357142857143 0  L 398.228571428571 0  C 401.460571428571 0  404 0.879999999999995  404 2  L 404 38  C 404 39.12  401.460571428571 40  398.228571428571 40  L 5.77142857142857 40  C 2.53942857142889 40  0 39.12  0 38  Z " fill-rule="evenodd" />
    </mask>
  </defs>
  <g transform="matrix(1 0 0 1 -8657 -909 )">
    <path d="M 0 38  L 0 2  C 0 0.879999999999995  2.53942857142889 0  5.77142857142857 0  L 281.357142857143 0  L 398.228571428571 0  C 401.460571428571 0  404 0.879999999999995  404 2  L 404 38  C 404 39.12  401.460571428571 40  398.228571428571 40  L 5.77142857142857 40  C 2.53942857142889 40  0 39.12  0 38  Z " fill-rule="nonzero" fill="#ffffff" stroke="none" transform="matrix(1 0 0 1 8657 909 )" />
    <path d="M 0 38  L 0 2  C 0 0.879999999999995  2.53942857142889 0  5.77142857142857 0  L 281.357142857143 0  L 398.228571428571 0  C 401.460571428571 0  404 0.879999999999995  404 2  L 404 38  C 404 39.12  401.460571428571 40  398.228571428571 40  L 5.77142857142857 40  C 2.53942857142889 40  0 39.12  0 38  Z " stroke-width="2" stroke="#797979" fill="none" transform="matrix(1 0 0 1 8657 909 )" mask="url(#clip18)" />
  </g>
</svg>