<?xml version="1.0" encoding="utf-8"?>
<svg version="1.1" xmlns:xlink="http://www.w3.org/1999/xlink" width="60px" height="60px" viewBox="244 1519  60 60" xmlns="http://www.w3.org/2000/svg">
  <path d="M 274 1519  C 290.8 1519  304 1532.2  304 1549  C 304 1565.8  290.8 1579  274 1579  C 257.2 1579  244 1565.8  244 1549  C 244 1532.2  257.2 1519  274 1519  Z " fill-rule="nonzero" fill="#ffffff" stroke="none" />
  <path d="M 274 1519.5  C 290.52 1519.5  303.5 1532.48  303.5 1549  C 303.5 1565.52  290.52 1578.5  274 1578.5  C 257.48 1578.5  244.5 1565.52  244.5 1549  C 244.5 1532.48  257.48 1519.5  274 1519.5  Z " stroke-width="1" stroke="#797979" fill="none" />
  <path d="M 274 1564  C 265.6 1564  259 1557.4  259 1549  C 259 1540.6  265.6 1534  274 1534  C 282.4 1534  289 1540.6  289 1549  C 289 1557.4  282.4 1564  274 1564  " fill-rule="nonzero" fill="#797979" stroke="none" />
</svg>