<?xml version="1.0" encoding="utf-8"?>
<svg version="1.1" xmlns:xlink="http://www.w3.org/1999/xlink" width="60px" height="60px" viewBox="244 1590  60 60" xmlns="http://www.w3.org/2000/svg">
  <path d="M 274 1590  C 290.8 1590  304 1603.2  304 1620  C 304 1636.8  290.8 1650  274 1650  C 257.2 1650  244 1636.8  244 1620  C 244 1603.2  257.2 1590  274 1590  Z " fill-rule="nonzero" fill="#ffffff" stroke="none" />
  <path d="M 274 1590.5  C 290.52 1590.5  303.5 1603.48  303.5 1620  C 303.5 1636.52  290.52 1649.5  274 1649.5  C 257.48 1649.5  244.5 1636.52  244.5 1620  C 244.5 1603.48  257.48 1590.5  274 1590.5  Z " stroke-width="1" stroke="#797979" fill="none" />
  <path d="M 274 1635  C 265.6 1635  259 1628.4  259 1620  C 259 1611.6  265.6 1605  274 1605  C 282.4 1605  289 1611.6  289 1620  C 289 1628.4  282.4 1635  274 1635  " fill-rule="nonzero" fill="#797979" stroke="none" />
</svg>