<?xml version="1.0" encoding="utf-8"?>
<svg version="1.1" xmlns:xlink="http://www.w3.org/1999/xlink" width="60px" height="60px" viewBox="244 1657  60 60" xmlns="http://www.w3.org/2000/svg">
  <path d="M 274 1657  C 290.8 1657  304 1670.2  304 1687  C 304 1703.8  290.8 1717  274 1717  C 257.2 1717  244 1703.8  244 1687  C 244 1670.2  257.2 1657  274 1657  Z " fill-rule="nonzero" fill="#ffffff" stroke="none" />
  <path d="M 274 1657.5  C 290.52 1657.5  303.5 1670.48  303.5 1687  C 303.5 1703.52  290.52 1716.5  274 1716.5  C 257.48 1716.5  244.5 1703.52  244.5 1687  C 244.5 1670.48  257.48 1657.5  274 1657.5  Z " stroke-width="1" stroke="#797979" fill="none" />
  <path d="M 274 1702  C 265.6 1702  259 1695.4  259 1687  C 259 1678.6  265.6 1672  274 1672  C 282.4 1672  289 1678.6  289 1687  C 289 1695.4  282.4 1702  274 1702  " fill-rule="nonzero" fill="#797979" stroke="none" />
</svg>