<?xml version="1.0" encoding="utf-8"?>
<svg version="1.1" xmlns:xlink="http://www.w3.org/1999/xlink" width="60px" height="60px" viewBox="244 1731  60 60" xmlns="http://www.w3.org/2000/svg">
  <path d="M 274 1731  C 290.8 1731  304 1744.2  304 1761  C 304 1777.8  290.8 1791  274 1791  C 257.2 1791  244 1777.8  244 1761  C 244 1744.2  257.2 1731  274 1731  Z " fill-rule="nonzero" fill="#f0f0f0" stroke="none" />
  <path d="M 274 1731.5  C 290.52 1731.5  303.5 1744.48  303.5 1761  C 303.5 1777.52  290.52 1790.5  274 1790.5  C 257.48 1790.5  244.5 1777.52  244.5 1761  C 244.5 1744.48  257.48 1731.5  274 1731.5  Z " stroke-width="1" stroke="#797979" fill="none" />
  <path d="M 274 1776  C 265.6 1776  259 1769.4  259 1761  C 259 1752.6  265.6 1746  274 1746  C 282.4 1746  289 1752.6  289 1761  C 289 1769.4  282.4 1776  274 1776  " fill-rule="nonzero" fill="#797979" stroke="none" />
</svg>