<?xml version="1.0" encoding="utf-8"?>
<svg version="1.1" xmlns:xlink="http://www.w3.org/1999/xlink" width="60px" height="60px" viewBox="244 1870  60 60" xmlns="http://www.w3.org/2000/svg">
  <path d="M 274 1870  C 290.8 1870  304 1883.2  304 1900  C 304 1916.8  290.8 1930  274 1930  C 257.2 1930  244 1916.8  244 1900  C 244 1883.2  257.2 1870  274 1870  Z " fill-rule="nonzero" fill="#ffffff" stroke="none" />
  <path d="M 274 1870.5  C 290.52 1870.5  303.5 1883.48  303.5 1900  C 303.5 1916.52  290.52 1929.5  274 1929.5  C 257.48 1929.5  244.5 1916.52  244.5 1900  C 244.5 1883.48  257.48 1870.5  274 1870.5  Z " stroke-width="1" stroke="#797979" fill="none" />
  <path d="M 274 1915  C 265.6 1915  259 1908.4  259 1900  C 259 1891.6  265.6 1885  274 1885  C 282.4 1885  289 1891.6  289 1900  C 289 1908.4  282.4 1915  274 1915  " fill-rule="nonzero" fill="#797979" stroke="none" />
</svg>