<?xml version="1.0" encoding="utf-8"?>
<svg version="1.1" xmlns:xlink="http://www.w3.org/1999/xlink" width="64px" height="52px" xmlns="http://www.w3.org/2000/svg">
  <g transform="matrix(1 0 0 1 -276 -4044 )">
    <path d="M 47.625 25.2213541666667  C 47.875 25.4244791666667  48 25.6840277777778  48 26  C 48 26.3159722222222  47.875 26.5755208333333  47.625 26.7786458333333  L 34.2916666666667 37.6119791666667  C 34.0416666666667 37.8151041666667  33.7222222222222 37.9166666666667  33.3333333333333 37.9166666666667  C 32.9722222222222 37.9166666666667  32.6597222222222 37.8094618055556  32.3958333333333 37.5950520833333  C 32.1319444444444 37.3806423611111  32 37.1267361111111  32 36.8333333333333  L 32 30  L 17.3333333333333 30  C 16.9722222222222 30.3333333333333  16.6597222222222 30.2261284722222  16.3958333333333 30.01171875  C 16.1319444444444 29.7973090277778  16 29.5434027777778  16 29.25  L 16 22.75  C 16 22.4565972222222  16.1319444444444 22.2026909722222  16.3958333333333 21.98828125  C 16.6597222222222 21.7738715277778  16.9722222222222 21.6666666666667  17.3333333333333 22  L 32 22  L 32 15.1666666666667  C 32 14.8506944444444  32.125 14.5911458333333  32.375 14.3880208333333  C 32.625 14.1848958333333  32.9444444444445 14.0833333333333  33.3333333333333 14.0833333333333  C 33.6666666666667 14.0833333333333  34 14.1961805555556  34.3333333333333 14.421875  L 47.625 25.2213541666667  Z M 51.625 35.2421875  C 53.6527777777778 32.4210069444444  54.6666666666667 29.3402777777778  54.6666666666667 26  C 54.6666666666667 22.6597222222222  53.6527777777778 19.5789930555556  51.625 16.7578125  C 49.5972222222222 13.9366319444444  46.8472222222222 11.7022569444444  43.375 10.0546875  C 39.9027777777778 8.40711805555556  36.1111111111111 7.58333333333334  32 7.58333333333334  C 27.8888888888889 7.58333333333334  24.0972222222222 8.40711805555556  20.625 10.0546875  C 17.1527777777778 11.7022569444444  14.4027777777778 13.9366319444444  12.375 16.7578125  C 10.3472222222222 19.5789930555556  9.33333333333333 22.6597222222222  9.33333333333333 26  C 9.33333333333333 29.3402777777778  10.3472222222222 32.4210069444444  12.375 35.2421875  C 14.4027777777778 38.0633680555556  17.1527777777778 40.2977430555556  20.625 41.9453125  C 24.0972222222222 43.5928819444444  27.8888888888889 44.4166666666667  32 44.4166666666667  C 36.1111111111111 44.4166666666667  39.9027777777778 43.5928819444444  43.375 41.9453125  C 46.8472222222222 40.2977430555556  49.5972222222222 38.0633680555556  51.625 35.2421875  Z M 59.7083333333333 12.94921875  C 62.5694444444444 16.9327256944444  64 21.2829861111111  64 26  C 64 30.7170138888889  62.5694444444444 35.0672743055556  59.7083333333333 39.05078125  C 56.8472222222222 43.0342881944444  52.9652777777778 46.1883680555556  48.0625 48.5130208333333  C 43.1597222222222 50.8376736111111  37.8055555555556 52  32 52  C 26.1944444444444 52  20.8402777777778 50.8376736111111  15.9375 48.5130208333333  C 11.0347222222222 46.1883680555556  7.15277777777778 43.0342881944444  4.29166666666667 39.05078125  C 1.43055555555556 35.0672743055556  0 30.7170138888889  0 26  C 0 21.2829861111111  1.43055555555556 16.9327256944444  4.29166666666667 12.94921875  C 7.15277777777778 8.96571180555556  11.0347222222222 5.81163194444444  15.9375 3.48697916666666  C 20.8402777777778 1.16232638888888  26.1944444444444 0  32 0  C 37.8055555555556 0  43.1597222222222 1.16232638888888  48.0625 3.48697916666666  C 52.9652777777778 5.81163194444444  56.8472222222222 8.96571180555556  59.7083333333333 12.94921875  Z " fill-rule="nonzero" fill="#d7d7d7" stroke="none" transform="matrix(1 0 0 1 276 4044 )" />
  </g>
</svg>