<?xml version="1.0" encoding="utf-8"?>
<svg version="1.1" xmlns:xlink="http://www.w3.org/1999/xlink" width="95px" height="122px" xmlns="http://www.w3.org/2000/svg">
  <g transform="matrix(1 0 0 1 -1620 -4049 )">
    <path d="M 91.2272135416667 84.6692708333333  C 93.7424045138889 77.1501736111111  95 69.2604166666667  95 61  C 95 52.7395833333333  93.7424045138889 44.8498263888889  91.2272135416667 37.3307291666667  C 88.7120225694445 29.8116319444444  85.3309461805556 23.3250868055556  81.083984375 17.87109375  C 76.8370225694445 12.4171006944444  71.7860243055556 8.07508680555556  65.9309895833333 4.84505208333333  C 60.0759548611111 1.61501736111111  53.9322916666667 0  47.5 0  C 40.4079861111111 0  33.6664496527778 1.91948784722223  27.275390625 5.75846354166667  C 20.8843315972222 9.59743923611111  15.4416232638889 15.01171875  10.947265625 22.0013020833333  C 10.6586371527778 22.5308159722222  10.5246310763889 23.1265190972222  10.5452473958333 23.7884114583333  C 10.5658637152778 24.4503038194444  10.7411024305556 24.9930555555556  11.0709635416667 25.4166666666667  L 19.5442708333333 36.3776041666667  C 19.9565972222222 36.8541666666667  20.4720052083333 37.0924479166667  21.0904947916667 37.0924479166667  C 21.7502170138889 36.9865451388889  22.2243923611111 36.6688368055556  22.5130208333333 36.1393229166667  C 25.5230034722222 31.1089409722222  29.2133246527778 27.2170138888889  33.583984375 24.4635416666667  C 37.9546440972222 21.7100694444444  42.5933159722222 20.3333333333333  47.5 20.3333333333333  C 51.7881944444445 20.3333333333333  55.8805338541667 21.4055989583333  59.7770182291667 23.5501302083333  C 63.6735026041667 25.6946614583333  67.0442708333333 28.59375  69.8893229166667 32.2473958333333  C 72.734375 35.9010416666667  74.9918619791667 40.2298177083333  76.6617838541667 45.2337239583333  C 78.3317057291667 50.2376302083333  79.1666666666667 55.4930555555556  79.1666666666667 61  C 79.1666666666667 66.5069444444445  78.3317057291667 71.7623697916667  76.6617838541667 76.7662760416667  C 74.9918619791667 81.7701822916667  72.734375 86.0989583333333  69.8893229166667 89.7526041666667  C 67.0442708333333 93.40625  63.6735026041667 96.3053385416667  59.7770182291667 98.4498697916667  C 55.8805338541667 100.594401041667  51.7881944444445 101.666666666667  47.5 101.666666666667  C 43.4592013888889 101.666666666667  39.5833333333333 100.726779513889  35.8723958333333 98.8470052083333  C 32.1614583333333 96.9672309027778  28.8628472222222 94.2799479166667  25.9765625 90.78515625  L 34.4498697916667 79.82421875  C 35.7280815972222 78.2356770833333  36.0167100694444 76.4088541666667  35.3157552083333 74.34375  C 34.6148003472222 72.2256944444444  33.3984375 71.1666666666667  31.6666666666667 71  L 3.95833333333333 71  C 2.88628472222222 71.1666666666667  1.95855034722222 71.6697048611111  1.17513020833333 72.67578125  C 0.391710069444444 73.6818576388889  0 74.8732638888889  0 76.25  L 0 111.833333333333  C 0 114.057291666667  0.824652777777778 115.619357638889  2.47395833333333 116.51953125  C 4.08203125 117.419704861111  5.50455729166667 117.049045138889  6.74153645833333 115.407552083333  L 14.7819010416667 105.161458333333  C 19.1937934027778 110.509548611111  24.2344835069444 114.652994791667  29.9039713541667 117.591796875  C 35.5734592013889 120.530598958333  41.4388020833333 122  47.5 122  C 53.9322916666667 122  60.0759548611111 120.384982638889  65.9309895833333 117.154947916667  C 71.7860243055556 113.924913194444  76.8370225694445 109.582899305556  81.083984375 104.12890625  C 85.3309461805556 98.6749131944445  88.7120225694445 92.1883680555556  91.2272135416667 84.6692708333333  Z " fill-rule="nonzero" fill="#d7d7d7" stroke="none" transform="matrix(1 0 0 1 1620 4049 )" />
  </g>
</svg>