<?xml version="1.0" encoding="utf-8"?>
<svg version="1.1" xmlns:xlink="http://www.w3.org/1999/xlink" width="60px" height="60px" viewBox="254 4509  60 60" xmlns="http://www.w3.org/2000/svg">
  <path d="M 284 4509  C 300.8 4509  314 4522.2  314 4539  C 314 4555.8  300.8 4569  284 4569  C 267.2 4569  254 4555.8  254 4539  C 254 4522.2  267.2 4509  284 4509  Z " fill-rule="nonzero" fill="#f0f0f0" stroke="none" />
  <path d="M 284 4509.5  C 300.52 4509.5  313.5 4522.48  313.5 4539  C 313.5 4555.52  300.52 4568.5  284 4568.5  C 267.48 4568.5  254.5 4555.52  254.5 4539  C 254.5 4522.48  267.48 4509.5  284 4509.5  Z " stroke-width="1" stroke="#797979" fill="none" />
  <path d="M 284 4554  C 275.6 4554  269 4547.4  269 4539  C 269 4530.6  275.6 4524  284 4524  C 292.4 4524  299 4530.6  299 4539  C 299 4547.4  292.4 4554  284 4554  " fill-rule="nonzero" fill="#797979" stroke="none" />
</svg>