<?xml version="1.0" encoding="utf-8"?>
<svg version="1.1" xmlns:xlink="http://www.w3.org/1999/xlink" width="60px" height="60px" viewBox="254 4580  60 60" xmlns="http://www.w3.org/2000/svg">
  <path d="M 284 4580  C 300.8 4580  314 4593.2  314 4610  C 314 4626.8  300.8 4640  284 4640  C 267.2 4640  254 4626.8  254 4610  C 254 4593.2  267.2 4580  284 4580  Z " fill-rule="nonzero" fill="#d7d7d7" stroke="none" />
  <path d="M 284 4580.5  C 300.52 4580.5  313.5 4593.48  313.5 4610  C 313.5 4626.52  300.52 4639.5  284 4639.5  C 267.48 4639.5  254.5 4626.52  254.5 4610  C 254.5 4593.48  267.48 4580.5  284 4580.5  Z " stroke-width="1" stroke="#797979" fill="none" />
  <path d="M 284 4625  C 275.6 4625  269 4618.4  269 4610  C 269 4601.6  275.6 4595  284 4595  C 292.4 4595  299 4601.6  299 4610  C 299 4618.4  292.4 4625  284 4625  " fill-rule="nonzero" fill="#797979" stroke="none" />
</svg>