<?xml version="1.0" encoding="utf-8"?>
<svg version="1.1" xmlns:xlink="http://www.w3.org/1999/xlink" width="60px" height="60px" viewBox="254 4721  60 60" xmlns="http://www.w3.org/2000/svg">
  <path d="M 284 4721  C 300.8 4721  314 4734.2  314 4751  C 314 4767.8  300.8 4781  284 4781  C 267.2 4781  254 4767.8  254 4751  C 254 4734.2  267.2 4721  284 4721  Z " fill-rule="nonzero" fill="#d7d7d7" stroke="none" />
  <path d="M 284 4721.5  C 300.52 4721.5  313.5 4734.48  313.5 4751  C 313.5 4767.52  300.52 4780.5  284 4780.5  C 267.48 4780.5  254.5 4767.52  254.5 4751  C 254.5 4734.48  267.48 4721.5  284 4721.5  Z " stroke-width="1" stroke="#797979" fill="none" />
  <path d="M 284 4766  C 275.6 4766  269 4759.4  269 4751  C 269 4742.6  275.6 4736  284 4736  C 292.4 4736  299 4742.6  299 4751  C 299 4759.4  292.4 4766  284 4766  " fill-rule="nonzero" fill="#797979" stroke="none" />
</svg>