<?xml version="1.0" encoding="utf-8"?>
<svg version="1.1" xmlns:xlink="http://www.w3.org/1999/xlink" width="60px" height="60px" viewBox="254 4791  60 60" xmlns="http://www.w3.org/2000/svg">
  <path d="M 284 4791  C 300.8 4791  314 4804.2  314 4821  C 314 4837.8  300.8 4851  284 4851  C 267.2 4851  254 4837.8  254 4821  C 254 4804.2  267.2 4791  284 4791  Z " fill-rule="nonzero" fill="#f0f0f0" stroke="none" />
  <path d="M 284 4791.5  C 300.52 4791.5  313.5 4804.48  313.5 4821  C 313.5 4837.52  300.52 4850.5  284 4850.5  C 267.48 4850.5  254.5 4837.52  254.5 4821  C 254.5 4804.48  267.48 4791.5  284 4791.5  Z " stroke-width="1" stroke="#797979" fill="none" />
  <path d="M 284 4836  C 275.6 4836  269 4829.4  269 4821  C 269 4812.6  275.6 4806  284 4806  C 292.4 4806  299 4812.6  299 4821  C 299 4829.4  292.4 4836  284 4836  " fill-rule="nonzero" fill="#797979" stroke="none" />
</svg>