<?xml version="1.0" encoding="utf-8"?>
<svg version="1.1" xmlns:xlink="http://www.w3.org/1999/xlink" width="60px" height="60px" viewBox="254 4860  60 60" xmlns="http://www.w3.org/2000/svg">
  <path d="M 284 4860  C 300.8 4860  314 4873.2  314 4890  C 314 4906.8  300.8 4920  284 4920  C 267.2 4920  254 4906.8  254 4890  C 254 4873.2  267.2 4860  284 4860  Z " fill-rule="nonzero" fill="#d7d7d7" stroke="none" />
  <path d="M 284 4860.5  C 300.52 4860.5  313.5 4873.48  313.5 4890  C 313.5 4906.52  300.52 4919.5  284 4919.5  C 267.48 4919.5  254.5 4906.52  254.5 4890  C 254.5 4873.48  267.48 4860.5  284 4860.5  Z " stroke-width="1" stroke="#797979" fill="none" />
  <path d="M 284 4905  C 275.6 4905  269 4898.4  269 4890  C 269 4881.6  275.6 4875  284 4875  C 292.4 4875  299 4881.6  299 4890  C 299 4898.4  292.4 4905  284 4905  " fill-rule="nonzero" fill="#797979" stroke="none" />
</svg>