<?xml version="1.0" encoding="utf-8"?>
<svg version="1.1" xmlns:xlink="http://www.w3.org/1999/xlink" width="60px" height="60px" viewBox="258 1735  60 60" xmlns="http://www.w3.org/2000/svg">
  <path d="M 288 1735  C 304.8 1735  318 1748.2  318 1765  C 318 1781.8  304.8 1795  288 1795  C 271.2 1795  258 1781.8  258 1765  C 258 1748.2  271.2 1735  288 1735  Z " fill-rule="nonzero" fill="#ffffff" stroke="none" />
  <path d="M 288 1735.5  C 304.52 1735.5  317.5 1748.48  317.5 1765  C 317.5 1781.52  304.52 1794.5  288 1794.5  C 271.48 1794.5  258.5 1781.52  258.5 1765  C 258.5 1748.48  271.48 1735.5  288 1735.5  Z " stroke-width="1" stroke="#797979" fill="none" />
  <path d="M 288 1780  C 279.6 1780  273 1773.4  273 1765  C 273 1756.6  279.6 1750  288 1750  C 296.4 1750  303 1756.6  303 1765  C 303 1773.4  296.4 1780  288 1780  " fill-rule="nonzero" fill="#797979" stroke="none" />
</svg>