<?xml version="1.0" encoding="utf-8"?>
<svg version="1.1" xmlns:xlink="http://www.w3.org/1999/xlink" width="60px" height="60px" viewBox="258 1664  60 60" xmlns="http://www.w3.org/2000/svg">
  <path d="M 288 1664  C 304.8 1664  318 1677.2  318 1694  C 318 1710.8  304.8 1724  288 1724  C 271.2 1724  258 1710.8  258 1694  C 258 1677.2  271.2 1664  288 1664  Z " fill-rule="nonzero" fill="#ffffff" stroke="none" />
  <path d="M 288 1664.5  C 304.52 1664.5  317.5 1677.48  317.5 1694  C 317.5 1710.52  304.52 1723.5  288 1723.5  C 271.48 1723.5  258.5 1710.52  258.5 1694  C 258.5 1677.48  271.48 1664.5  288 1664.5  Z " stroke-width="1" stroke="#797979" fill="none" />
  <path d="M 288 1709  C 279.6 1709  273 1702.4  273 1694  C 273 1685.6  279.6 1679  288 1679  C 296.4 1679  303 1685.6  303 1694  C 303 1702.4  296.4 1709  288 1709  " fill-rule="nonzero" fill="#797979" stroke="none" />
</svg>