<?xml version="1.0" encoding="utf-8"?>
<svg version="1.1" xmlns:xlink="http://www.w3.org/1999/xlink" width="60px" height="60px" viewBox="258 1802  60 60" xmlns="http://www.w3.org/2000/svg">
  <path d="M 288 1802  C 304.8 1802  318 1815.2  318 1832  C 318 1848.8  304.8 1862  288 1862  C 271.2 1862  258 1848.8  258 1832  C 258 1815.2  271.2 1802  288 1802  Z " fill-rule="nonzero" fill="#ffffff" stroke="none" />
  <path d="M 288 1802.5  C 304.52 1802.5  317.5 1815.48  317.5 1832  C 317.5 1848.52  304.52 1861.5  288 1861.5  C 271.48 1861.5  258.5 1848.52  258.5 1832  C 258.5 1815.48  271.48 1802.5  288 1802.5  Z " stroke-width="1" stroke="#797979" fill="none" />
  <path d="M 288 1847  C 279.6 1847  273 1840.4  273 1832  C 273 1823.6  279.6 1817  288 1817  C 296.4 1817  303 1823.6  303 1832  C 303 1840.4  296.4 1847  288 1847  " fill-rule="nonzero" fill="#797979" stroke="none" />
</svg>