<?xml version="1.0" encoding="utf-8"?>
<svg version="1.1" xmlns:xlink="http://www.w3.org/1999/xlink" width="60px" height="60px" viewBox="258 1873  60 60" xmlns="http://www.w3.org/2000/svg">
  <path d="M 288 1873  C 304.8 1873  318 1886.2  318 1903  C 318 1919.8  304.8 1933  288 1933  C 271.2 1933  258 1919.8  258 1903  C 258 1886.2  271.2 1873  288 1873  Z " fill-rule="nonzero" fill="#f0f0f0" stroke="none" />
  <path d="M 288 1873.5  C 304.52 1873.5  317.5 1886.48  317.5 1903  C 317.5 1919.52  304.52 1932.5  288 1932.5  C 271.48 1932.5  258.5 1919.52  258.5 1903  C 258.5 1886.48  271.48 1873.5  288 1873.5  Z " stroke-width="1" stroke="#797979" fill="none" />
  <path d="M 288 1918  C 279.6 1918  273 1911.4  273 1903  C 273 1894.6  279.6 1888  288 1888  C 296.4 1888  303 1894.6  303 1903  C 303 1911.4  296.4 1918  288 1918  " fill-rule="nonzero" fill="#797979" stroke="none" />
</svg>