<?xml version="1.0" encoding="utf-8"?>
<svg version="1.1" xmlns:xlink="http://www.w3.org/1999/xlink" width="60px" height="60px" viewBox="257 2227  60 60" xmlns="http://www.w3.org/2000/svg">
  <path d="M 287 2227  C 303.8 2227  317 2240.2  317 2257  C 317 2273.8  303.8 2287  287 2287  C 270.2 2287  257 2273.8  257 2257  C 257 2240.2  270.2 2227  287 2227  Z " fill-rule="nonzero" fill="#ffffff" stroke="none" />
  <path d="M 287 2227.5  C 303.52 2227.5  316.5 2240.48  316.5 2257  C 316.5 2273.52  303.52 2286.5  287 2286.5  C 270.48 2286.5  257.5 2273.52  257.5 2257  C 257.5 2240.48  270.48 2227.5  287 2227.5  Z " stroke-width="1" stroke="#797979" fill="none" />
  <path d="M 287 2272  C 278.6 2272  272 2265.4  272 2257  C 272 2248.6  278.6 2242  287 2242  C 295.4 2242  302 2248.6  302 2257  C 302 2265.4  295.4 2272  287 2272  " fill-rule="nonzero" fill="#797979" stroke="none" />
</svg>