<?xml version="1.0" encoding="utf-8"?>
<svg version="1.1" xmlns:xlink="http://www.w3.org/1999/xlink" width="60px" height="60px" viewBox="258 1949  60 60" xmlns="http://www.w3.org/2000/svg">
  <path d="M 288 1949  C 304.8 1949  318 1962.2  318 1979  C 318 1995.8  304.8 2009  288 2009  C 271.2 2009  258 1995.8  258 1979  C 258 1962.2  271.2 1949  288 1949  Z " fill-rule="nonzero" fill="#f0f0f0" stroke="none" />
  <path d="M 288 1949.5  C 304.52 1949.5  317.5 1962.48  317.5 1979  C 317.5 1995.52  304.52 2008.5  288 2008.5  C 271.48 2008.5  258.5 1995.52  258.5 1979  C 258.5 1962.48  271.48 1949.5  288 1949.5  Z " stroke-width="1" stroke="#797979" fill="none" />
  <path d="M 288 1994  C 279.6 1994  273 1987.4  273 1979  C 273 1970.6  279.6 1964  288 1964  C 296.4 1964  303 1970.6  303 1979  C 303 1987.4  296.4 1994  288 1994  " fill-rule="nonzero" fill="#797979" stroke="none" />
</svg>