<?xml version="1.0" encoding="utf-8"?>
<svg version="1.1" xmlns:xlink="http://www.w3.org/1999/xlink" width="60px" height="60px" viewBox="258 2087  60 60" xmlns="http://www.w3.org/2000/svg">
  <path d="M 288 2087  C 304.8 2087  318 2100.2  318 2117  C 318 2133.8  304.8 2147  288 2147  C 271.2 2147  258 2133.8  258 2117  C 258 2100.2  271.2 2087  288 2087  Z " fill-rule="nonzero" fill="#f0f0f0" stroke="none" />
  <path d="M 288 2087.5  C 304.52 2087.5  317.5 2100.48  317.5 2117  C 317.5 2133.52  304.52 2146.5  288 2146.5  C 271.48 2146.5  258.5 2133.52  258.5 2117  C 258.5 2100.48  271.48 2087.5  288 2087.5  Z " stroke-width="1" stroke="#797979" fill="none" />
  <path d="M 288 2132  C 279.6 2132  273 2125.4  273 2117  C 273 2108.6  279.6 2102  288 2102  C 296.4 2102  303 2108.6  303 2117  C 303 2125.4  296.4 2132  288 2132  " fill-rule="nonzero" fill="#797979" stroke="none" />
</svg>