<?xml version="1.0" encoding="utf-8"?>
<svg version="1.1" xmlns:xlink="http://www.w3.org/1999/xlink" width="60px" height="60px" viewBox="258 2016  60 60" xmlns="http://www.w3.org/2000/svg">
  <path d="M 288 2016  C 304.8 2016  318 2029.2  318 2046  C 318 2062.8  304.8 2076  288 2076  C 271.2 2076  258 2062.8  258 2046  C 258 2029.2  271.2 2016  288 2016  Z " fill-rule="nonzero" fill="#f0f0f0" stroke="none" />
  <path d="M 288 2016.5  C 304.52 2016.5  317.5 2029.48  317.5 2046  C 317.5 2062.52  304.52 2075.5  288 2075.5  C 271.48 2075.5  258.5 2062.52  258.5 2046  C 258.5 2029.48  271.48 2016.5  288 2016.5  Z " stroke-width="1" stroke="#797979" fill="none" />
  <path d="M 288 2061  C 279.6 2061  273 2054.4  273 2046  C 273 2037.6  279.6 2031  288 2031  C 296.4 2031  303 2037.6  303 2046  C 303 2054.4  296.4 2061  288 2061  " fill-rule="nonzero" fill="#797979" stroke="none" />
</svg>