<?xml version="1.0" encoding="utf-8"?>
<svg version="1.1" xmlns:xlink="http://www.w3.org/1999/xlink" width="60px" height="60px" viewBox="384 2392  60 60" xmlns="http://www.w3.org/2000/svg">
  <path d="M 414 2392  C 430.8 2392  444 2405.2  444 2422  C 444 2438.8  430.8 2452  414 2452  C 397.2 2452  384 2438.8  384 2422  C 384 2405.2  397.2 2392  414 2392  Z " fill-rule="nonzero" fill="#f0f0f0" stroke="none" />
  <path d="M 414 2392.5  C 430.52 2392.5  443.5 2405.48  443.5 2422  C 443.5 2438.52  430.52 2451.5  414 2451.5  C 397.48 2451.5  384.5 2438.52  384.5 2422  C 384.5 2405.48  397.48 2392.5  414 2392.5  Z " stroke-width="1" stroke="#797979" fill="none" />
  <path d="M 414 2437  C 405.6 2437  399 2430.4  399 2422  C 399 2413.6  405.6 2407  414 2407  C 422.4 2407  429 2413.6  429 2422  C 429 2430.4  422.4 2437  414 2437  " fill-rule="nonzero" fill="#797979" stroke="none" />
</svg>