<?xml version="1.0" encoding="utf-8"?>
<svg version="1.1" xmlns:xlink="http://www.w3.org/1999/xlink" width="60px" height="60px" viewBox="384 2462  60 60" xmlns="http://www.w3.org/2000/svg">
  <path d="M 414 2462  C 430.8 2462  444 2475.2  444 2492  C 444 2508.8  430.8 2522  414 2522  C 397.2 2522  384 2508.8  384 2492  C 384 2475.2  397.2 2462  414 2462  Z " fill-rule="nonzero" fill="#f0f0f0" stroke="none" />
  <path d="M 414 2462.5  C 430.52 2462.5  443.5 2475.48  443.5 2492  C 443.5 2508.52  430.52 2521.5  414 2521.5  C 397.48 2521.5  384.5 2508.52  384.5 2492  C 384.5 2475.48  397.48 2462.5  414 2462.5  Z " stroke-width="1" stroke="#797979" fill="none" />
  <path d="M 414 2507  C 405.6 2507  399 2500.4  399 2492  C 399 2483.6  405.6 2477  414 2477  C 422.4 2477  429 2483.6  429 2492  C 429 2500.4  422.4 2507  414 2507  " fill-rule="nonzero" fill="#797979" stroke="none" />
</svg>