<?xml version="1.0" encoding="utf-8"?>
<svg version="1.1" xmlns:xlink="http://www.w3.org/1999/xlink" width="60px" height="60px" viewBox="384 2532  60 60" xmlns="http://www.w3.org/2000/svg">
  <path d="M 414 2532  C 430.8 2532  444 2545.2  444 2562  C 444 2578.8  430.8 2592  414 2592  C 397.2 2592  384 2578.8  384 2562  C 384 2545.2  397.2 2532  414 2532  Z " fill-rule="nonzero" fill="#f0f0f0" stroke="none" />
  <path d="M 414 2532.5  C 430.52 2532.5  443.5 2545.48  443.5 2562  C 443.5 2578.52  430.52 2591.5  414 2591.5  C 397.48 2591.5  384.5 2578.52  384.5 2562  C 384.5 2545.48  397.48 2532.5  414 2532.5  Z " stroke-width="1" stroke="#797979" fill="none" />
  <path d="M 414 2577  C 405.6 2577  399 2570.4  399 2562  C 399 2553.6  405.6 2547  414 2547  C 422.4 2547  429 2553.6  429 2562  C 429 2570.4  422.4 2577  414 2577  " fill-rule="nonzero" fill="#797979" stroke="none" />
</svg>