<?xml version="1.0" encoding="utf-8"?>
<svg version="1.1" xmlns:xlink="http://www.w3.org/1999/xlink" width="60px" height="60px" viewBox="384 2602  60 60" xmlns="http://www.w3.org/2000/svg">
  <path d="M 414 2602  C 430.8 2602  444 2615.2  444 2632  C 444 2648.8  430.8 2662  414 2662  C 397.2 2662  384 2648.8  384 2632  C 384 2615.2  397.2 2602  414 2602  Z " fill-rule="nonzero" fill="#ffffff" stroke="none" />
  <path d="M 414 2602.5  C 430.52 2602.5  443.5 2615.48  443.5 2632  C 443.5 2648.52  430.52 2661.5  414 2661.5  C 397.48 2661.5  384.5 2648.52  384.5 2632  C 384.5 2615.48  397.48 2602.5  414 2602.5  Z " stroke-width="1" stroke="#797979" fill="none" />
  <path d="M 414 2647  C 405.6 2647  399 2640.4  399 2632  C 399 2623.6  405.6 2617  414 2617  C 422.4 2617  429 2623.6  429 2632  C 429 2640.4  422.4 2647  414 2647  " fill-rule="nonzero" fill="#797979" stroke="none" />
</svg>