<?xml version="1.0" encoding="utf-8"?>
<svg version="1.1" xmlns:xlink="http://www.w3.org/1999/xlink" width="60px" height="60px" viewBox="384 2672  60 60" xmlns="http://www.w3.org/2000/svg">
  <path d="M 414 2672  C 430.8 2672  444 2685.2  444 2702  C 444 2718.8  430.8 2732  414 2732  C 397.2 2732  384 2718.8  384 2702  C 384 2685.2  397.2 2672  414 2672  Z " fill-rule="nonzero" fill="#ffffff" stroke="none" />
  <path d="M 414 2672.5  C 430.52 2672.5  443.5 2685.48  443.5 2702  C 443.5 2718.52  430.52 2731.5  414 2731.5  C 397.48 2731.5  384.5 2718.52  384.5 2702  C 384.5 2685.48  397.48 2672.5  414 2672.5  Z " stroke-width="1" stroke="#797979" fill="none" />
  <path d="M 414 2717  C 405.6 2717  399 2710.4  399 2702  C 399 2693.6  405.6 2687  414 2687  C 422.4 2687  429 2693.6  429 2702  C 429 2710.4  422.4 2717  414 2717  " fill-rule="nonzero" fill="#797979" stroke="none" />
</svg>