<?xml version="1.0" encoding="utf-8"?>
<svg version="1.1" xmlns:xlink="http://www.w3.org/1999/xlink" width="60px" height="60px" viewBox="247 1898  60 60" xmlns="http://www.w3.org/2000/svg">
  <path d="M 277 1898  C 293.8 1898  307 1911.2  307 1928  C 307 1944.8  293.8 1958  277 1958  C 260.2 1958  247 1944.8  247 1928  C 247 1911.2  260.2 1898  277 1898  Z " fill-rule="nonzero" fill="#ffffff" stroke="none" />
  <path d="M 277 1898.5  C 293.52 1898.5  306.5 1911.48  306.5 1928  C 306.5 1944.52  293.52 1957.5  277 1957.5  C 260.48 1957.5  247.5 1944.52  247.5 1928  C 247.5 1911.48  260.48 1898.5  277 1898.5  Z " stroke-width="1" stroke="#797979" fill="none" />
  <path d="M 277 1943  C 268.6 1943  262 1936.4  262 1928  C 262 1919.6  268.6 1913  277 1913  C 285.4 1913  292 1919.6  292 1928  C 292 1936.4  285.4 1943  277 1943  " fill-rule="nonzero" fill="#797979" stroke="none" />
</svg>