<?xml version="1.0" encoding="utf-8"?>
<svg version="1.1" xmlns:xlink="http://www.w3.org/1999/xlink" width="60px" height="60px" viewBox="247 1689  60 60" xmlns="http://www.w3.org/2000/svg">
  <path d="M 277 1689  C 293.8 1689  307 1702.2  307 1719  C 307 1735.8  293.8 1749  277 1749  C 260.2 1749  247 1735.8  247 1719  C 247 1702.2  260.2 1689  277 1689  Z " fill-rule="nonzero" fill="#ffffff" stroke="none" />
  <path d="M 277 1689.5  C 293.52 1689.5  306.5 1702.48  306.5 1719  C 306.5 1735.52  293.52 1748.5  277 1748.5  C 260.48 1748.5  247.5 1735.52  247.5 1719  C 247.5 1702.48  260.48 1689.5  277 1689.5  Z " stroke-width="1" stroke="#797979" fill="none" />
  <path d="M 277 1734  C 268.6 1734  262 1727.4  262 1719  C 262 1710.6  268.6 1704  277 1704  C 285.4 1704  292 1710.6  292 1719  C 292 1727.4  285.4 1734  277 1734  " fill-rule="nonzero" fill="#797979" stroke="none" />
</svg>