<?xml version="1.0" encoding="utf-8"?>
<svg version="1.1" xmlns:xlink="http://www.w3.org/1999/xlink" width="60px" height="60px" viewBox="247 1827  60 60" xmlns="http://www.w3.org/2000/svg">
  <path d="M 277 1827  C 293.8 1827  307 1840.2  307 1857  C 307 1873.8  293.8 1887  277 1887  C 260.2 1887  247 1873.8  247 1857  C 247 1840.2  260.2 1827  277 1827  Z " fill-rule="nonzero" fill="#ffffff" stroke="none" />
  <path d="M 277 1827.5  C 293.52 1827.5  306.5 1840.48  306.5 1857  C 306.5 1873.52  293.52 1886.5  277 1886.5  C 260.48 1886.5  247.5 1873.52  247.5 1857  C 247.5 1840.48  260.48 1827.5  277 1827.5  Z " stroke-width="1" stroke="#797979" fill="none" />
  <path d="M 277 1872  C 268.6 1872  262 1865.4  262 1857  C 262 1848.6  268.6 1842  277 1842  C 285.4 1842  292 1848.6  292 1857  C 292 1865.4  285.4 1872  277 1872  " fill-rule="nonzero" fill="#797979" stroke="none" />
</svg>