<?xml version="1.0" encoding="utf-8"?>
<svg version="1.1" xmlns:xlink="http://www.w3.org/1999/xlink" width="60px" height="60px" viewBox="247 1760  60 60" xmlns="http://www.w3.org/2000/svg">
  <path d="M 277 1760  C 293.8 1760  307 1773.2  307 1790  C 307 1806.8  293.8 1820  277 1820  C 260.2 1820  247 1806.8  247 1790  C 247 1773.2  260.2 1760  277 1760  Z " fill-rule="nonzero" fill="#f0f0f0" stroke="none" />
  <path d="M 277 1760.5  C 293.52 1760.5  306.5 1773.48  306.5 1790  C 306.5 1806.52  293.52 1819.5  277 1819.5  C 260.48 1819.5  247.5 1806.52  247.5 1790  C 247.5 1773.48  260.48 1760.5  277 1760.5  Z " stroke-width="1" stroke="#797979" fill="none" />
  <path d="M 277 1805  C 268.6 1805  262 1798.4  262 1790  C 262 1781.6  268.6 1775  277 1775  C 285.4 1775  292 1781.6  292 1790  C 292 1798.4  285.4 1805  277 1805  " fill-rule="nonzero" fill="#797979" stroke="none" />
</svg>