<?xml version="1.0" encoding="utf-8"?>
<svg version="1.1" xmlns:xlink="http://www.w3.org/1999/xlink" width="60px" height="60px" viewBox="206 1334  60 60" xmlns="http://www.w3.org/2000/svg">
  <path d="M 236 1334  C 252.8 1334  266 1347.2  266 1364  C 266 1380.8  252.8 1394  236 1394  C 219.2 1394  206 1380.8  206 1364  C 206 1347.2  219.2 1334  236 1334  Z " fill-rule="nonzero" fill="#ffffff" stroke="none" />
  <path d="M 236 1334.5  C 252.52 1334.5  265.5 1347.48  265.5 1364  C 265.5 1380.52  252.52 1393.5  236 1393.5  C 219.48 1393.5  206.5 1380.52  206.5 1364  C 206.5 1347.48  219.48 1334.5  236 1334.5  Z " stroke-width="1" stroke="#797979" fill="none" />
  <path d="M 236 1379  C 227.6 1379  221 1372.4  221 1364  C 221 1355.6  227.6 1349  236 1349  C 244.4 1349  251 1355.6  251 1364  C 251 1372.4  244.4 1379  236 1379  " fill-rule="nonzero" fill="#797979" stroke="none" />
</svg>