<?xml version="1.0" encoding="utf-8"?>
<svg version="1.1" xmlns:xlink="http://www.w3.org/1999/xlink" width="84px" height="122px" xmlns="http://www.w3.org/2000/svg">
  <g transform="matrix(1 0 0 1 -1656 -1004 )">
    <path d="M 80.6640625 84.6692708333333  C 82.8880208333333 77.1501736111111  84 69.2604166666667  84 61  C 84 52.7395833333333  82.8880208333333 44.8498263888889  80.6640625 37.3307291666667  C 78.4401041666667 29.8116319444444  75.4505208333333 23.3250868055556  71.6953125 17.87109375  C 67.9401041666667 12.4171006944444  63.4739583333333 8.07508680555556  58.296875 4.84505208333333  C 53.1197916666667 1.61501736111111  47.6875 0  42 0  C 35.7291666666667 0  29.7682291666667 1.91948784722223  24.1171875 5.75846354166667  C 18.4661458333333 9.59743923611111  13.6536458333333 15.01171875  9.6796875 22.0013020833333  C 9.42447916666667 22.5308159722222  9.30598958333333 23.1265190972222  9.32421875 23.7884114583333  C 9.34244791666667 24.4503038194444  9.49739583333333 24.9930555555556  9.7890625 25.4166666666667  L 17.28125 36.3776041666667  C 17.6458333333333 36.8541666666667  18.1015625 37.0924479166667  18.6484375 37.0924479166667  C 19.2317708333333 36.9865451388889  19.6510416666667 36.6688368055556  19.90625 36.1393229166667  C 22.5677083333333 31.1089409722222  25.8307291666667 27.2170138888889  29.6953125 24.4635416666667  C 33.5598958333333 21.7100694444444  37.6614583333333 20.3333333333333  42 20.3333333333333  C 45.7916666666667 20.3333333333333  49.41015625 21.4055989583333  52.85546875 23.5501302083333  C 56.30078125 25.6946614583333  59.28125 28.59375  61.796875 32.2473958333333  C 64.3125 35.9010416666667  66.30859375 40.2298177083333  67.78515625 45.2337239583333  C 69.26171875 50.2376302083333  70 55.4930555555556  70 61  C 70 66.5069444444445  69.26171875 71.7623697916667  67.78515625 76.7662760416667  C 66.30859375 81.7701822916667  64.3125 86.0989583333333  61.796875 89.7526041666667  C 59.28125 93.40625  56.30078125 96.3053385416667  52.85546875 98.4498697916667  C 49.41015625 100.594401041667  45.7916666666667 101.666666666667  42 101.666666666667  C 38.4270833333333 101.666666666667  35 100.726779513889  31.71875 98.8470052083333  C 28.4375 96.9672309027778  25.5208333333333 94.2799479166667  22.96875 90.78515625  L 30.4609375 79.82421875  C 31.5911458333333 78.2356770833333  31.8463541666667 76.4088541666667  31.2265625 74.34375  C 30.6067708333333 72.2256944444444  29.53125 71.1666666666667  28 71  L 3.5 71  C 2.55208333333333 71.1666666666667  1.73177083333333 71.6697048611111  1.0390625 72.67578125  C 0.346354166666667 73.6818576388889  0 74.8732638888889  0 76.25  L 0 111.833333333333  C 0 114.057291666667  0.729166666666667 115.619357638889  2.1875 116.51953125  C 3.609375 117.419704861111  4.8671875 117.049045138889  5.9609375 115.407552083333  L 13.0703125 105.161458333333  C 16.9713541666667 110.509548611111  21.4283854166667 114.652994791667  26.44140625 117.591796875  C 31.4544270833333 120.530598958333  36.640625 122  42 122  C 47.6875 122  53.1197916666667 120.384982638889  58.296875 117.154947916667  C 63.4739583333333 113.924913194444  67.9401041666667 109.582899305556  71.6953125 104.12890625  C 75.4505208333333 98.6749131944445  78.4401041666667 92.1883680555556  80.6640625 84.6692708333333  Z " fill-rule="nonzero" fill="#0000ff" stroke="none" transform="matrix(1 0 0 1 1656 1004 )" />
  </g>
</svg>