<?xml version="1.0" encoding="utf-8"?>
<svg version="1.1" xmlns:xlink="http://www.w3.org/1999/xlink" width="56px" height="44px" xmlns="http://www.w3.org/2000/svg">
  <g transform="matrix(1 0 0 1 -1619 -1470 )">
    <path d="M 46.7396271797955 24.15625  C 47.1886149528964 24.3229166666667  47.4131088394468 24.625  47.4131088394468 25.0625  L 47.4131088394468 35  C 47.4131088394468 37.4791666666667  46.4646221687713 39.5989583333333  44.5676488274203 41.359375  C 42.6706754860694 43.1197916666667  40.3864501904189 44  37.714972940469 44  L 9.69813589897775 44  C 7.02665864902786 44  4.74243335337743 43.1197916666667  2.84546001202646 41.359375  C 0.948486670675486 39.5989583333333  0 37.4791666666667  0 35  L 0 9  C 0 6.52083333333333  0.948486670675486 4.40104166666666  2.84546001202646 2.640625  C 4.74243335337743 0.880208333333329  7.02665864902786 0  9.69813589897775 0  L 37.714972940469 0  C 39.1292844257366 0  40.4425736620565 0.260416666666664  41.6548406494287 0.781249999999998  C 41.9915814792544 0.92708333333333  42.1936259771497 1.16666666666667  42.2609741431149 1.5  C 42.32832230908 1.85416666666667  42.2273000601323 2.15625  41.9579073962718 2.40625  L 40.3078773301263 3.9375  C 40.0833834435759 4.14583333333333  39.8252154740429 4.25  39.5333734215274 4.25  C 39.4660252555622 4.25  39.3650030066146 4.22916666666666  39.2303066746843 4.1875  C 38.7139707356184 4.0625  38.2088594908799 4  37.714972940469 4  L 9.69813589897775 4  C 8.21647624774504 4  6.94808578873522 4.48958333333333  5.89296452194829 5.46875  C 4.83784325516136 6.44791666666666  4.31028262176789 7.625  5 9  L 5 35  C 4.31028262176789 36.375  4.83784325516136 37.5520833333333  5.89296452194829 38.53125  C 6.94808578873522 39.5104166666667  8.21647624774504 40  9.69813589897775 40  L 37.714972940469 40  C 39.1966325917017 40  40.4650230507116 39.5104166666667  41.5201443174985 38.53125  C 42.5752655842854 37.5520833333333  43.1028262176789 36.375  43.1028262176789 35  L 43.1028262176789 27.0625  C 43.1028262176789 26.7916666666667  43.2038484666266 26.5625  43.405892964522 26.375  L 45.5610342754059 24.375  C 45.7855281619563 24.1666666666667  46.0436961314893 24.0625  46.3355381840048 24.0625  C 46.4702345159351 24.0625  46.6049308478653 24.09375  46.7396271797955 24.15625  Z M 56 8  C 56 8.6875  55.7306073361395 9.28125  55.1918220084185 9.78125  L 27.7811184606133 35.21875  C 27.2423331328924 35.71875  26.6025255562237 35.96875  25.8616957306073 35.96875  C 25.120865904991 35.96875  24.4810583283223 35.71875  23.9422730006013 35.21875  L 9.46241731809982 21.78125  C 8.92363199037883 21.28125  8.65423932651834 20.6875  8.65423932651834 20  C 8.65423932651834 19.3125  8.92363199037883 18.71875  9.46241731809982 18.21875  L 13.1665664461816 14.78125  C 13.7053517739026 14.28125  14.3451593505713 14.03125  15.0859891761876 14.03125  C 15.826819001804 14.03125  16.4666265784726 14.28125  17.0054119061936 14.78125  L 25.8616957306073 23  L 47.6488274203247 2.78125  C 48.1876127480457 2.28125  48.8274203247144 2.03125  49.5682501503307 2.03125  C 50.3090799759471 2.03125  50.9488875526158 2.28125  51.4876728803367 2.78125  L 55.1918220084185 6.21875  C 55.7306073361395 6.71875  56 7.3125  56 8  Z " fill-rule="nonzero" fill="#02a7f0" stroke="none" transform="matrix(1 0 0 1 1619 1470 )" />
  </g>
</svg>