<?xml version="1.0" encoding="utf-8"?>
<svg version="1.1" xmlns:xlink="http://www.w3.org/1999/xlink" width="56px" height="52px" xmlns="http://www.w3.org/2000/svg">
  <g transform="matrix(1 0 0 1 -473 -999 )">
    <path d="M 41.671875 25.2213541666667  C 41.890625 25.4244791666667  42 25.6840277777778  42 26  C 42 26.3159722222222  41.890625 26.5755208333333  41.671875 26.7786458333333  L 30.0052083333333 37.6119791666667  C 29.7864583333333 37.8151041666667  29.5069444444444 37.9166666666667  29.1666666666667 37.9166666666667  C 28.8506944444444 37.9166666666667  28.5772569444444 37.8094618055556  28.3463541666667 37.5950520833333  C 28.1154513888889 37.3806423611111  28 37.1267361111111  28 36.8333333333333  L 28 30  L 15.1666666666667 30  C 14.8506944444444 30.3333333333333  14.5772569444444 30.2261284722222  14.3463541666667 30.01171875  C 14.1154513888889 29.7973090277778  14 29.5434027777778  14 29.25  L 14 22.75  C 14 22.4565972222222  14.1154513888889 22.2026909722222  14.3463541666667 21.98828125  C 14.5772569444444 21.7738715277778  14.8506944444444 21.6666666666667  15.1666666666667 22  L 28 22  L 28 15.1666666666667  C 28 14.8506944444444  28.109375 14.5911458333333  28.328125 14.3880208333333  C 28.546875 14.1848958333333  28.8263888888889 14.0833333333333  29.1666666666667 14.0833333333333  C 29.4583333333333 14.0833333333333  29.75 14.1961805555556  30.0416666666667 14.421875  L 41.671875 25.2213541666667  Z M 45.171875 35.2421875  C 46.9461805555556 32.4210069444444  47.8333333333333 29.3402777777778  47.8333333333333 26  C 47.8333333333333 22.6597222222222  46.9461805555556 19.5789930555556  45.171875 16.7578125  C 43.3975694444445 13.9366319444444  40.9913194444445 11.7022569444444  37.953125 10.0546875  C 34.9149305555556 8.40711805555556  31.5972222222222 7.58333333333334  28 7.58333333333334  C 24.4027777777778 7.58333333333334  21.0850694444444 8.40711805555556  18.046875 10.0546875  C 15.0086805555556 11.7022569444444  12.6024305555556 13.9366319444444  10.828125 16.7578125  C 9.05381944444444 19.5789930555556  8.16666666666667 22.6597222222222  8.16666666666667 26  C 8.16666666666667 29.3402777777778  9.05381944444444 32.4210069444444  10.828125 35.2421875  C 12.6024305555556 38.0633680555556  15.0086805555556 40.2977430555556  18.046875 41.9453125  C 21.0850694444444 43.5928819444444  24.4027777777778 44.4166666666667  28 44.4166666666667  C 31.5972222222222 44.4166666666667  34.9149305555556 43.5928819444444  37.953125 41.9453125  C 40.9913194444445 40.2977430555556  43.3975694444445 38.0633680555556  45.171875 35.2421875  Z M 52.2447916666667 12.94921875  C 54.7482638888889 16.9327256944444  56 21.2829861111111  56 26  C 56 30.7170138888889  54.7482638888889 35.0672743055556  52.2447916666667 39.05078125  C 49.7413194444445 43.0342881944444  46.3446180555556 46.1883680555556  42.0546875 48.5130208333333  C 37.7647569444445 50.8376736111111  33.0798611111111 52  28 52  C 22.9201388888889 52  18.2352430555556 50.8376736111111  13.9453125 48.5130208333333  C 9.65538194444444 46.1883680555556  6.25868055555556 43.0342881944444  3.75520833333333 39.05078125  C 1.25173611111111 35.0672743055556  0 30.7170138888889  0 26  C 0 21.2829861111111  1.25173611111111 16.9327256944444  3.75520833333333 12.94921875  C 6.25868055555556 8.96571180555556  9.65538194444444 5.81163194444444  13.9453125 3.48697916666666  C 18.2352430555556 1.16232638888888  22.9201388888889 0  28 0  C 33.0798611111111 0  37.7647569444445 1.16232638888888  42.0546875 3.48697916666666  C 46.3446180555556 5.81163194444444  49.7413194444445 8.96571180555556  52.2447916666667 12.94921875  Z " fill-rule="nonzero" fill="#000000" stroke="none" transform="matrix(1 0 0 1 473 999 )" />
  </g>
</svg>