<?xml version="1.0" encoding="utf-8"?>
<svg version="1.1" xmlns:xlink="http://www.w3.org/1999/xlink" width="60px" height="60px" viewBox="215 792  60 60" xmlns="http://www.w3.org/2000/svg">
  <path d="M 245 792  C 261.8 792  275 805.2  275 822  C 275 838.8  261.8 852  245 852  C 228.2 852  215 838.8  215 822  C 215 805.2  228.2 792  245 792  Z " fill-rule="nonzero" fill="#ffffff" stroke="none" />
  <path d="M 245 792.5  C 261.52 792.5  274.5 805.48  274.5 822  C 274.5 838.52  261.52 851.5  245 851.5  C 228.48 851.5  215.5 838.52  215.5 822  C 215.5 805.48  228.48 792.5  245 792.5  Z " stroke-width="1" stroke="#797979" fill="none" />
  <path d="M 245 837  C 236.6 837  230 830.4  230 822  C 230 813.6  236.6 807  245 807  C 253.4 807  260 813.6  260 822  C 260 830.4  253.4 837  245 837  " fill-rule="nonzero" fill="#797979" stroke="none" />
</svg>