<?xml version="1.0" encoding="utf-8"?>
<svg version="1.1" xmlns:xlink="http://www.w3.org/1999/xlink" width="60px" height="60px" viewBox="215 1212  60 60" xmlns="http://www.w3.org/2000/svg">
  <path d="M 245 1212  C 261.8 1212  275 1225.2  275 1242  C 275 1258.8  261.8 1272  245 1272  C 228.2 1272  215 1258.8  215 1242  C 215 1225.2  228.2 1212  245 1212  Z " fill-rule="nonzero" fill="#f0f0f0" stroke="none" />
  <path d="M 245 1212.5  C 261.52 1212.5  274.5 1225.48  274.5 1242  C 274.5 1258.52  261.52 1271.5  245 1271.5  C 228.48 1271.5  215.5 1258.52  215.5 1242  C 215.5 1225.48  228.48 1212.5  245 1212.5  Z " stroke-width="1" stroke="#797979" fill="none" />
  <path d="M 245 1257  C 236.6 1257  230 1250.4  230 1242  C 230 1233.6  236.6 1227  245 1227  C 253.4 1227  260 1233.6  260 1242  C 260 1250.4  253.4 1257  245 1257  " fill-rule="nonzero" fill="#797979" stroke="none" />
</svg>