<?xml version="1.0" encoding="utf-8"?>
<svg version="1.1" xmlns:xlink="http://www.w3.org/1999/xlink" width="60px" height="60px" viewBox="215 1144  60 60" xmlns="http://www.w3.org/2000/svg">
  <path d="M 245 1144  C 261.8 1144  275 1157.2  275 1174  C 275 1190.8  261.8 1204  245 1204  C 228.2 1204  215 1190.8  215 1174  C 215 1157.2  228.2 1144  245 1144  Z " fill-rule="nonzero" fill="#f0f0f0" stroke="none" />
  <path d="M 245 1144.5  C 261.52 1144.5  274.5 1157.48  274.5 1174  C 274.5 1190.52  261.52 1203.5  245 1203.5  C 228.48 1203.5  215.5 1190.52  215.5 1174  C 215.5 1157.48  228.48 1144.5  245 1144.5  Z " stroke-width="1" stroke="#797979" fill="none" />
  <path d="M 245 1189  C 236.6 1189  230 1182.4  230 1174  C 230 1165.6  236.6 1159  245 1159  C 253.4 1159  260 1165.6  260 1174  C 260 1182.4  253.4 1189  245 1189  " fill-rule="nonzero" fill="#797979" stroke="none" />
</svg>