<?xml version="1.0" encoding="utf-8"?>
<svg version="1.1" xmlns:xlink="http://www.w3.org/1999/xlink" width="60px" height="60px" viewBox="215 1075  60 60" xmlns="http://www.w3.org/2000/svg">
  <path d="M 245 1075  C 261.8 1075  275 1088.2  275 1105  C 275 1121.8  261.8 1135  245 1135  C 228.2 1135  215 1121.8  215 1105  C 215 1088.2  228.2 1075  245 1075  Z " fill-rule="nonzero" fill="#ffffff" stroke="none" />
  <path d="M 245 1075.5  C 261.52 1075.5  274.5 1088.48  274.5 1105  C 274.5 1121.52  261.52 1134.5  245 1134.5  C 228.48 1134.5  215.5 1121.52  215.5 1105  C 215.5 1088.48  228.48 1075.5  245 1075.5  Z " stroke-width="1" stroke="#797979" fill="none" />
  <path d="M 245 1120  C 236.6 1120  230 1113.4  230 1105  C 230 1096.6  236.6 1090  245 1090  C 253.4 1090  260 1096.6  260 1105  C 260 1113.4  253.4 1120  245 1120  " fill-rule="nonzero" fill="#797979" stroke="none" />
</svg>