<?xml version="1.0" encoding="utf-8"?>
<svg version="1.1" xmlns:xlink="http://www.w3.org/1999/xlink" width="32px" height="32px" xmlns="http://www.w3.org/2000/svg">
  <g transform="matrix(1 0 0 1 -998 -163 )">
    <path d="M 1014 163.5  C 1022.68 163.5  1029.5 170.32  1029.5 179  C 1029.5 187.68  1022.68 194.5  1014 194.5  C 1005.32 194.5  998.5 187.68  998.5 179  C 998.5 170.32  1005.32 163.5  1014 163.5  Z " fill-rule="nonzero" fill="#ffffff" stroke="none" fill-opacity="0" />
    <path d="M 1014 163.5  C 1022.68 163.5  1029.5 170.32  1029.5 179  C 1029.5 187.68  1022.68 194.5  1014 194.5  C 1005.32 194.5  998.5 187.68  998.5 179  C 998.5 170.32  1005.32 163.5  1014 163.5  Z " stroke-width="1" stroke="#000000" fill="none" stroke-opacity="0.149019607843137" />
  </g>
</svg>