<?xml version="1.0" encoding="utf-8"?>
<svg version="1.1" xmlns:xlink="http://www.w3.org/1999/xlink" width="34px" height="32px" xmlns="http://www.w3.org/2000/svg">
  <g transform="matrix(1 0 0 1 -742 -163 )">
    <path d="M 759 163.5  C 768.24 163.5  775.5 170.32  775.5 179  C 775.5 187.68  768.24 194.5  759 194.5  C 749.76 194.5  742.5 187.68  742.5 179  C 742.5 170.32  749.76 163.5  759 163.5  Z " fill-rule="nonzero" fill="#ffffff" stroke="none" fill-opacity="0" />
    <path d="M 759 163.5  C 768.24 163.5  775.5 170.32  775.5 179  C 775.5 187.68  768.24 194.5  759 194.5  C 749.76 194.5  742.5 187.68  742.5 179  C 742.5 170.32  749.76 163.5  759 163.5  Z " stroke-width="1" stroke="#000000" fill="none" stroke-opacity="0.149019607843137" />
  </g>
</svg>