<?xml version="1.0" encoding="utf-8"?>
<svg version="1.1" xmlns:xlink="http://www.w3.org/1999/xlink" width="60px" height="60px" viewBox="2842 1770  60 60" xmlns="http://www.w3.org/2000/svg">
  <path d="M 2872 1770  C 2888.8 1770  2902 1783.2  2902 1800  C 2902 1816.8  2888.8 1830  2872 1830  C 2855.2 1830  2842 1816.8  2842 1800  C 2842 1783.2  2855.2 1770  2872 1770  Z " fill-rule="nonzero" fill="#ffffff" stroke="none" />
  <path d="M 2872 1770.5  C 2888.52 1770.5  2901.5 1783.48  2901.5 1800  C 2901.5 1816.52  2888.52 1829.5  2872 1829.5  C 2855.48 1829.5  2842.5 1816.52  2842.5 1800  C 2842.5 1783.48  2855.48 1770.5  2872 1770.5  Z " stroke-width="1" stroke="#797979" fill="none" />
  <path d="M 2872 1815  C 2863.6 1815  2857 1808.4  2857 1800  C 2857 1791.6  2863.6 1785  2872 1785  C 2880.4 1785  2887 1791.6  2887 1800  C 2887 1808.4  2880.4 1815  2872 1815  " fill-rule="nonzero" fill="#797979" stroke="none" />
</svg>