<?xml version="1.0" encoding="utf-8"?>
<svg version="1.1" xmlns:xlink="http://www.w3.org/1999/xlink" width="60px" height="60px" viewBox="257 2122  60 60" xmlns="http://www.w3.org/2000/svg">
  <path d="M 287 2122  C 303.8 2122  317 2135.2  317 2152  C 317 2168.8  303.8 2182  287 2182  C 270.2 2182  257 2168.8  257 2152  C 257 2135.2  270.2 2122  287 2122  Z " fill-rule="nonzero" fill="#f0f0f0" stroke="none" />
  <path d="M 287 2122.5  C 303.52 2122.5  316.5 2135.48  316.5 2152  C 316.5 2168.52  303.52 2181.5  287 2181.5  C 270.48 2181.5  257.5 2168.52  257.5 2152  C 257.5 2135.48  270.48 2122.5  287 2122.5  Z " stroke-width="1" stroke="#797979" fill="none" />
  <path d="M 287 2167  C 278.6 2167  272 2160.4  272 2152  C 272 2143.6  278.6 2137  287 2137  C 295.4 2137  302 2143.6  302 2152  C 302 2160.4  295.4 2167  287 2167  " fill-rule="nonzero" fill="#797979" stroke="none" />
</svg>