<?xml version="1.0" encoding="utf-8"?>
<svg version="1.1" xmlns:xlink="http://www.w3.org/1999/xlink" width="60px" height="60px" viewBox="2842 1699  60 60" xmlns="http://www.w3.org/2000/svg">
  <path d="M 2872 1699  C 2888.8 1699  2902 1712.2  2902 1729  C 2902 1745.8  2888.8 1759  2872 1759  C 2855.2 1759  2842 1745.8  2842 1729  C 2842 1712.2  2855.2 1699  2872 1699  Z " fill-rule="nonzero" fill="#f0f0f0" stroke="none" />
  <path d="M 2872 1699.5  C 2888.52 1699.5  2901.5 1712.48  2901.5 1729  C 2901.5 1745.52  2888.52 1758.5  2872 1758.5  C 2855.48 1758.5  2842.5 1745.52  2842.5 1729  C 2842.5 1712.48  2855.48 1699.5  2872 1699.5  Z " stroke-width="1" stroke="#797979" fill="none" />
  <path d="M 2872 1744  C 2863.6 1744  2857 1737.4  2857 1729  C 2857 1720.6  2863.6 1714  2872 1714  C 2880.4 1714  2887 1720.6  2887 1729  C 2887 1737.4  2880.4 1744  2872 1744  " fill-rule="nonzero" fill="#797979" stroke="none" />
</svg>