<?xml version="1.0" encoding="utf-8"?>
<svg version="1.1" xmlns:xlink="http://www.w3.org/1999/xlink" width="60px" height="60px" viewBox="257 2051  60 60" xmlns="http://www.w3.org/2000/svg">
  <path d="M 287 2051  C 303.8 2051  317 2064.2  317 2081  C 317 2097.8  303.8 2111  287 2111  C 270.2 2111  257 2097.8  257 2081  C 257 2064.2  270.2 2051  287 2051  Z " fill-rule="nonzero" fill="#ffffff" stroke="none" />
  <path d="M 287 2051.5  C 303.52 2051.5  316.5 2064.48  316.5 2081  C 316.5 2097.52  303.52 2110.5  287 2110.5  C 270.48 2110.5  257.5 2097.52  257.5 2081  C 257.5 2064.48  270.48 2051.5  287 2051.5  Z " stroke-width="1" stroke="#797979" fill="none" />
  <path d="M 287 2096  C 278.6 2096  272 2089.4  272 2081  C 272 2072.6  278.6 2066  287 2066  C 295.4 2066  302 2072.6  302 2081  C 302 2089.4  295.4 2096  287 2096  " fill-rule="nonzero" fill="#797979" stroke="none" />
</svg>