<?xml version="1.0" encoding="utf-8"?>
<svg version="1.1" xmlns:xlink="http://www.w3.org/1999/xlink" width="60px" height="60px" viewBox="257 1984  60 60" xmlns="http://www.w3.org/2000/svg">
  <path d="M 287 1984  C 303.8 1984  317 1997.2  317 2014  C 317 2030.8  303.8 2044  287 2044  C 270.2 2044  257 2030.8  257 2014  C 257 1997.2  270.2 1984  287 1984  Z " fill-rule="nonzero" fill="#f0f0f0" stroke="none" />
  <path d="M 287 1984.5  C 303.52 1984.5  316.5 1997.48  316.5 2014  C 316.5 2030.52  303.52 2043.5  287 2043.5  C 270.48 2043.5  257.5 2030.52  257.5 2014  C 257.5 1997.48  270.48 1984.5  287 1984.5  Z " stroke-width="1" stroke="#797979" fill="none" />
  <path d="M 287 2029  C 278.6 2029  272 2022.4  272 2014  C 272 2005.6  278.6 1999  287 1999  C 295.4 1999  302 2005.6  302 2014  C 302 2022.4  295.4 2029  287 2029  " fill-rule="nonzero" fill="#797979" stroke="none" />
</svg>