<?xml version="1.0" encoding="utf-8"?>
<svg version="1.1" xmlns:xlink="http://www.w3.org/1999/xlink" width="60px" height="60px" viewBox="2842 1908  60 60" xmlns="http://www.w3.org/2000/svg">
  <path d="M 2872 1908  C 2888.8 1908  2902 1921.2  2902 1938  C 2902 1954.8  2888.8 1968  2872 1968  C 2855.2 1968  2842 1954.8  2842 1938  C 2842 1921.2  2855.2 1908  2872 1908  Z " fill-rule="nonzero" fill="#ffffff" stroke="none" />
  <path d="M 2872 1908.5  C 2888.52 1908.5  2901.5 1921.48  2901.5 1938  C 2901.5 1954.52  2888.52 1967.5  2872 1967.5  C 2855.48 1967.5  2842.5 1954.52  2842.5 1938  C 2842.5 1921.48  2855.48 1908.5  2872 1908.5  Z " stroke-width="1" stroke="#797979" fill="none" />
  <path d="M 2872 1953  C 2863.6 1953  2857 1946.4  2857 1938  C 2857 1929.6  2863.6 1923  2872 1923  C 2880.4 1923  2887 1929.6  2887 1938  C 2887 1946.4  2880.4 1953  2872 1953  " fill-rule="nonzero" fill="#797979" stroke="none" />
</svg>