<?xml version="1.0" encoding="utf-8"?>
<svg version="1.1" xmlns:xlink="http://www.w3.org/1999/xlink" width="60px" height="60px" viewBox="2842 1837  60 60" xmlns="http://www.w3.org/2000/svg">
  <path d="M 2872 1837  C 2888.8 1837  2902 1850.2  2902 1867  C 2902 1883.8  2888.8 1897  2872 1897  C 2855.2 1897  2842 1883.8  2842 1867  C 2842 1850.2  2855.2 1837  2872 1837  Z " fill-rule="nonzero" fill="#ffffff" stroke="none" />
  <path d="M 2872 1837.5  C 2888.52 1837.5  2901.5 1850.48  2901.5 1867  C 2901.5 1883.52  2888.52 1896.5  2872 1896.5  C 2855.48 1896.5  2842.5 1883.52  2842.5 1867  C 2842.5 1850.48  2855.48 1837.5  2872 1837.5  Z " stroke-width="1" stroke="#797979" fill="none" />
  <path d="M 2872 1882  C 2863.6 1882  2857 1875.4  2857 1867  C 2857 1858.6  2863.6 1852  2872 1852  C 2880.4 1852  2887 1858.6  2887 1867  C 2887 1875.4  2880.4 1882  2872 1882  " fill-rule="nonzero" fill="#797979" stroke="none" />
</svg>