<?xml version="1.0" encoding="utf-8"?>
<svg version="1.1" xmlns:xlink="http://www.w3.org/1999/xlink" width="60px" height="60px" viewBox="2842 2051  60 60" xmlns="http://www.w3.org/2000/svg">
  <path d="M 2872 2051  C 2888.8 2051  2902 2064.2  2902 2081  C 2902 2097.8  2888.8 2111  2872 2111  C 2855.2 2111  2842 2097.8  2842 2081  C 2842 2064.2  2855.2 2051  2872 2051  Z " fill-rule="nonzero" fill="#ffffff" stroke="none" />
  <path d="M 2872 2051.5  C 2888.52 2051.5  2901.5 2064.48  2901.5 2081  C 2901.5 2097.52  2888.52 2110.5  2872 2110.5  C 2855.48 2110.5  2842.5 2097.52  2842.5 2081  C 2842.5 2064.48  2855.48 2051.5  2872 2051.5  Z " stroke-width="1" stroke="#797979" fill="none" />
  <path d="M 2872 2096  C 2863.6 2096  2857 2089.4  2857 2081  C 2857 2072.6  2863.6 2066  2872 2066  C 2880.4 2066  2887 2072.6  2887 2081  C 2887 2089.4  2880.4 2096  2872 2096  " fill-rule="nonzero" fill="#797979" stroke="none" />
</svg>