<?xml version="1.0" encoding="utf-8"?>
<svg version="1.1" xmlns:xlink="http://www.w3.org/1999/xlink" width="60px" height="60px" viewBox="2842 2122  60 60" xmlns="http://www.w3.org/2000/svg">
  <path d="M 2872 2122  C 2888.8 2122  2902 2135.2  2902 2152  C 2902 2168.8  2888.8 2182  2872 2182  C 2855.2 2182  2842 2168.8  2842 2152  C 2842 2135.2  2855.2 2122  2872 2122  Z " fill-rule="nonzero" fill="#f0f0f0" stroke="none" />
  <path d="M 2872 2122.5  C 2888.52 2122.5  2901.5 2135.48  2901.5 2152  C 2901.5 2168.52  2888.52 2181.5  2872 2181.5  C 2855.48 2181.5  2842.5 2168.52  2842.5 2152  C 2842.5 2135.48  2855.48 2122.5  2872 2122.5  Z " stroke-width="1" stroke="#797979" fill="none" />
  <path d="M 2872 2167  C 2863.6 2167  2857 2160.4  2857 2152  C 2857 2143.6  2863.6 2137  2872 2137  C 2880.4 2137  2887 2143.6  2887 2152  C 2887 2160.4  2880.4 2167  2872 2167  " fill-rule="nonzero" fill="#797979" stroke="none" />
</svg>