<?xml version="1.0" encoding="utf-8"?>
<svg version="1.1" xmlns:xlink="http://www.w3.org/1999/xlink" width="60px" height="60px" viewBox="214 622  60 60" xmlns="http://www.w3.org/2000/svg">
  <path d="M 244 622  C 260.8 622  274 635.2  274 652  C 274 668.8  260.8 682  244 682  C 227.2 682  214 668.8  214 652  C 214 635.2  227.2 622  244 622  Z " fill-rule="nonzero" fill="#ffffff" stroke="none" />
  <path d="M 244 622.5  C 260.52 622.5  273.5 635.48  273.5 652  C 273.5 668.52  260.52 681.5  244 681.5  C 227.48 681.5  214.5 668.52  214.5 652  C 214.5 635.48  227.48 622.5  244 622.5  Z " stroke-width="1" stroke="#797979" fill="none" />
  <path d="M 244 667  C 235.6 667  229 660.4  229 652  C 229 643.6  235.6 637  244 637  C 252.4 637  259 643.6  259 652  C 259 660.4  252.4 667  244 667  " fill-rule="nonzero" fill="#797979" stroke="none" />
</svg>