<?xml version="1.0" encoding="utf-8"?>
<svg version="1.1" xmlns:xlink="http://www.w3.org/1999/xlink" width="60px" height="60px" viewBox="214 1111  60 60" xmlns="http://www.w3.org/2000/svg">
  <path d="M 244 1111  C 260.8 1111  274 1124.2  274 1141  C 274 1157.8  260.8 1171  244 1171  C 227.2 1171  214 1157.8  214 1141  C 214 1124.2  227.2 1111  244 1111  Z " fill-rule="nonzero" fill="#f0f0f0" stroke="none" />
  <path d="M 244 1111.5  C 260.52 1111.5  273.5 1124.48  273.5 1141  C 273.5 1157.52  260.52 1170.5  244 1170.5  C 227.48 1170.5  214.5 1157.52  214.5 1141  C 214.5 1124.48  227.48 1111.5  244 1111.5  Z " stroke-width="1" stroke="#797979" fill="none" />
  <path d="M 244 1156  C 235.6 1156  229 1149.4  229 1141  C 229 1132.6  235.6 1126  244 1126  C 252.4 1126  259 1132.6  259 1141  C 259 1149.4  252.4 1156  244 1156  " fill-rule="nonzero" fill="#797979" stroke="none" />
</svg>