<?xml version="1.0" encoding="utf-8"?>
<svg version="1.1" xmlns:xlink="http://www.w3.org/1999/xlink" width="60px" height="60px" viewBox="214 689  60 60" xmlns="http://www.w3.org/2000/svg">
  <path d="M 244 689  C 260.8 689  274 702.2  274 719  C 274 735.8  260.8 749  244 749  C 227.2 749  214 735.8  214 719  C 214 702.2  227.2 689  244 689  Z " fill-rule="nonzero" fill="#ffffff" stroke="none" />
  <path d="M 244 689.5  C 260.52 689.5  273.5 702.48  273.5 719  C 273.5 735.52  260.52 748.5  244 748.5  C 227.48 748.5  214.5 735.52  214.5 719  C 214.5 702.48  227.48 689.5  244 689.5  Z " stroke-width="1" stroke="#797979" fill="none" />
  <path d="M 244 734  C 235.6 734  229 727.4  229 719  C 229 710.6  235.6 704  244 704  C 252.4 704  259 710.6  259 719  C 259 727.4  252.4 734  244 734  " fill-rule="nonzero" fill="#797979" stroke="none" />
</svg>