<?xml version="1.0" encoding="utf-8"?>
<svg version="1.1" xmlns:xlink="http://www.w3.org/1999/xlink" width="60px" height="60px" viewBox="214 1182  60 60" xmlns="http://www.w3.org/2000/svg">
  <path d="M 244 1182  C 260.8 1182  274 1195.2  274 1212  C 274 1228.8  260.8 1242  244 1242  C 227.2 1242  214 1228.8  214 1212  C 214 1195.2  227.2 1182  244 1182  Z " fill-rule="nonzero" fill="#ffffff" stroke="none" />
  <path d="M 244 1182.5  C 260.52 1182.5  273.5 1195.48  273.5 1212  C 273.5 1228.52  260.52 1241.5  244 1241.5  C 227.48 1241.5  214.5 1228.52  214.5 1212  C 214.5 1195.48  227.48 1182.5  244 1182.5  Z " stroke-width="1" stroke="#797979" fill="none" />
  <path d="M 244 1227  C 235.6 1227  229 1220.4  229 1212  C 229 1203.6  235.6 1197  244 1197  C 252.4 1197  259 1203.6  259 1212  C 259 1220.4  252.4 1227  244 1227  " fill-rule="nonzero" fill="#797979" stroke="none" />
</svg>