<?xml version="1.0" encoding="utf-8"?>
<svg version="1.1" xmlns:xlink="http://www.w3.org/1999/xlink" width="60px" height="60px" viewBox="214 1042  60 60" xmlns="http://www.w3.org/2000/svg">
  <path d="M 244 1042  C 260.8 1042  274 1055.2  274 1072  C 274 1088.8  260.8 1102  244 1102  C 227.2 1102  214 1088.8  214 1072  C 214 1055.2  227.2 1042  244 1042  Z " fill-rule="nonzero" fill="#f0f0f0" stroke="none" />
  <path d="M 244 1042.5  C 260.52 1042.5  273.5 1055.48  273.5 1072  C 273.5 1088.52  260.52 1101.5  244 1101.5  C 227.48 1101.5  214.5 1088.52  214.5 1072  C 214.5 1055.48  227.48 1042.5  244 1042.5  Z " stroke-width="1" stroke="#797979" fill="none" />
  <path d="M 244 1087  C 235.6 1087  229 1080.4  229 1072  C 229 1063.6  235.6 1057  244 1057  C 252.4 1057  259 1063.6  259 1072  C 259 1080.4  252.4 1087  244 1087  " fill-rule="nonzero" fill="#797979" stroke="none" />
</svg>