<?xml version="1.0" encoding="utf-8"?>
<svg version="1.1" xmlns:xlink="http://www.w3.org/1999/xlink" width="60px" height="60px" viewBox="214 972  60 60" xmlns="http://www.w3.org/2000/svg">
  <path d="M 244 972  C 260.8 972  274 985.2  274 1002  C 274 1018.8  260.8 1032  244 1032  C 227.2 1032  214 1018.8  214 1002  C 214 985.2  227.2 972  244 972  Z " fill-rule="nonzero" fill="#ffffff" stroke="none" />
  <path d="M 244 972.5  C 260.52 972.5  273.5 985.48  273.5 1002  C 273.5 1018.52  260.52 1031.5  244 1031.5  C 227.48 1031.5  214.5 1018.52  214.5 1002  C 214.5 985.48  227.48 972.5  244 972.5  Z " stroke-width="1" stroke="#797979" fill="none" />
  <path d="M 244 1017  C 235.6 1017  229 1010.4  229 1002  C 229 993.6  235.6 987  244 987  C 252.4 987  259 993.6  259 1002  C 259 1010.4  252.4 1017  244 1017  " fill-rule="nonzero" fill="#797979" stroke="none" />
</svg>