<?xml version="1.0" encoding="utf-8"?>
<svg version="1.1" xmlns:xlink="http://www.w3.org/1999/xlink" width="60px" height="60px" viewBox="214 1528  60 60" xmlns="http://www.w3.org/2000/svg">
  <path d="M 244 1528  C 260.8 1528  274 1541.2  274 1558  C 274 1574.8  260.8 1588  244 1588  C 227.2 1588  214 1574.8  214 1558  C 214 1541.2  227.2 1528  244 1528  Z " fill-rule="nonzero" fill="#ffffff" stroke="none" />
  <path d="M 244 1528.5  C 260.52 1528.5  273.5 1541.48  273.5 1558  C 273.5 1574.52  260.52 1587.5  244 1587.5  C 227.48 1587.5  214.5 1574.52  214.5 1558  C 214.5 1541.48  227.48 1528.5  244 1528.5  Z " stroke-width="1" stroke="#797979" fill="none" />
  <path d="M 244 1573  C 235.6 1573  229 1566.4  229 1558  C 229 1549.6  235.6 1543  244 1543  C 252.4 1543  259 1549.6  259 1558  C 259 1566.4  252.4 1573  244 1573  " fill-rule="nonzero" fill="#797979" stroke="none" />
</svg>