<?xml version="1.0" encoding="utf-8"?>
<svg version="1.1" xmlns:xlink="http://www.w3.org/1999/xlink" width="60px" height="60px" viewBox="214 1392  60 60" xmlns="http://www.w3.org/2000/svg">
  <path d="M 244 1392  C 260.8 1392  274 1405.2  274 1422  C 274 1438.8  260.8 1452  244 1452  C 227.2 1452  214 1438.8  214 1422  C 214 1405.2  227.2 1392  244 1392  Z " fill-rule="nonzero" fill="#ffffff" stroke="none" />
  <path d="M 244 1392.5  C 260.52 1392.5  273.5 1405.48  273.5 1422  C 273.5 1438.52  260.52 1451.5  244 1451.5  C 227.48 1451.5  214.5 1438.52  214.5 1422  C 214.5 1405.48  227.48 1392.5  244 1392.5  Z " stroke-width="1" stroke="#797979" fill="none" />
  <path d="M 244 1437  C 235.6 1437  229 1430.4  229 1422  C 229 1413.6  235.6 1407  244 1407  C 252.4 1407  259 1413.6  259 1422  C 259 1430.4  252.4 1437  244 1437  " fill-rule="nonzero" fill="#797979" stroke="none" />
</svg>