<?xml version="1.0" encoding="utf-8"?>
<svg version="1.1" xmlns:xlink="http://www.w3.org/1999/xlink" width="60px" height="60px" viewBox="214 1252  60 60" xmlns="http://www.w3.org/2000/svg">
  <path d="M 244 1252  C 260.8 1252  274 1265.2  274 1282  C 274 1298.8  260.8 1312  244 1312  C 227.2 1312  214 1298.8  214 1282  C 214 1265.2  227.2 1252  244 1252  Z " fill-rule="nonzero" fill="#ffffff" stroke="none" />
  <path d="M 244 1252.5  C 260.52 1252.5  273.5 1265.48  273.5 1282  C 273.5 1298.52  260.52 1311.5  244 1311.5  C 227.48 1311.5  214.5 1298.52  214.5 1282  C 214.5 1265.48  227.48 1252.5  244 1252.5  Z " stroke-width="1" stroke="#797979" fill="none" />
  <path d="M 244 1297  C 235.6 1297  229 1290.4  229 1282  C 229 1273.6  235.6 1267  244 1267  C 252.4 1267  259 1273.6  259 1282  C 259 1290.4  252.4 1297  244 1297  " fill-rule="nonzero" fill="#797979" stroke="none" />
</svg>