<?xml version="1.0" encoding="utf-8"?>
<svg version="1.1" xmlns:xlink="http://www.w3.org/1999/xlink" width="60px" height="60px" viewBox="214 1462  60 60" xmlns="http://www.w3.org/2000/svg">
  <path d="M 244 1462  C 260.8 1462  274 1475.2  274 1492  C 274 1508.8  260.8 1522  244 1522  C 227.2 1522  214 1508.8  214 1492  C 214 1475.2  227.2 1462  244 1462  Z " fill-rule="nonzero" fill="#ffffff" stroke="none" />
  <path d="M 244 1462.5  C 260.52 1462.5  273.5 1475.48  273.5 1492  C 273.5 1508.52  260.52 1521.5  244 1521.5  C 227.48 1521.5  214.5 1508.52  214.5 1492  C 214.5 1475.48  227.48 1462.5  244 1462.5  Z " stroke-width="1" stroke="#797979" fill="none" />
  <path d="M 244 1507  C 235.6 1507  229 1500.4  229 1492  C 229 1483.6  235.6 1477  244 1477  C 252.4 1477  259 1483.6  259 1492  C 259 1500.4  252.4 1507  244 1507  " fill-rule="nonzero" fill="#797979" stroke="none" />
</svg>