<?xml version="1.0" encoding="utf-8"?>
<svg version="1.1" xmlns:xlink="http://www.w3.org/1999/xlink" width="60px" height="60px" viewBox="206 1414  60 60" xmlns="http://www.w3.org/2000/svg">
  <path d="M 236 1414  C 252.8 1414  266 1427.2  266 1444  C 266 1460.8  252.8 1474  236 1474  C 219.2 1474  206 1460.8  206 1444  C 206 1427.2  219.2 1414  236 1414  Z " fill-rule="nonzero" fill="#ffffff" stroke="none" />
  <path d="M 236 1414.5  C 252.52 1414.5  265.5 1427.48  265.5 1444  C 265.5 1460.52  252.52 1473.5  236 1473.5  C 219.48 1473.5  206.5 1460.52  206.5 1444  C 206.5 1427.48  219.48 1414.5  236 1414.5  Z " stroke-width="1" stroke="#797979" fill="none" />
  <path d="M 236 1459  C 227.6 1459  221 1452.4  221 1444  C 221 1435.6  227.6 1429  236 1429  C 244.4 1429  251 1435.6  251 1444  C 251 1452.4  244.4 1459  236 1459  " fill-rule="nonzero" fill="#797979" stroke="none" />
</svg>