<?xml version="1.0" encoding="utf-8"?>
<svg version="1.1" xmlns:xlink="http://www.w3.org/1999/xlink" width="60px" height="60px" viewBox="206 1134  60 60" xmlns="http://www.w3.org/2000/svg">
  <path d="M 236 1134  C 252.8 1134  266 1147.2  266 1164  C 266 1180.8  252.8 1194  236 1194  C 219.2 1194  206 1180.8  206 1164  C 206 1147.2  219.2 1134  236 1134  Z " fill-rule="nonzero" fill="#f0f0f0" stroke="none" />
  <path d="M 236 1134.5  C 252.52 1134.5  265.5 1147.48  265.5 1164  C 265.5 1180.52  252.52 1193.5  236 1193.5  C 219.48 1193.5  206.5 1180.52  206.5 1164  C 206.5 1147.48  219.48 1134.5  236 1134.5  Z " stroke-width="1" stroke="#797979" fill="none" />
  <path d="M 236 1179  C 227.6 1179  221 1172.4  221 1164  C 221 1155.6  227.6 1149  236 1149  C 244.4 1149  251 1155.6  251 1164  C 251 1172.4  244.4 1179  236 1179  " fill-rule="nonzero" fill="#797979" stroke="none" />
</svg>