<?xml version="1.0" encoding="utf-8"?>
<svg version="1.1" xmlns:xlink="http://www.w3.org/1999/xlink" width="60px" height="60px" viewBox="206 1064  60 60" xmlns="http://www.w3.org/2000/svg">
  <path d="M 236 1064  C 252.8 1064  266 1077.2  266 1094  C 266 1110.8  252.8 1124  236 1124  C 219.2 1124  206 1110.8  206 1094  C 206 1077.2  219.2 1064  236 1064  Z " fill-rule="nonzero" fill="#f0f0f0" stroke="none" />
  <path d="M 236 1064.5  C 252.52 1064.5  265.5 1077.48  265.5 1094  C 265.5 1110.52  252.52 1123.5  236 1123.5  C 219.48 1123.5  206.5 1110.52  206.5 1094  C 206.5 1077.48  219.48 1064.5  236 1064.5  Z " stroke-width="1" stroke="#797979" fill="none" />
  <path d="M 236 1109  C 227.6 1109  221 1102.4  221 1094  C 221 1085.6  227.6 1079  236 1079  C 244.4 1079  251 1085.6  251 1094  C 251 1102.4  244.4 1109  236 1109  " fill-rule="nonzero" fill="#797979" stroke="none" />
</svg>