<?xml version="1.0" encoding="utf-8"?>
<svg version="1.1" xmlns:xlink="http://www.w3.org/1999/xlink" width="60px" height="60px" viewBox="206 994  60 60" xmlns="http://www.w3.org/2000/svg">
  <path d="M 236 994  C 252.8 994  266 1007.2  266 1024  C 266 1040.8  252.8 1054  236 1054  C 219.2 1054  206 1040.8  206 1024  C 206 1007.2  219.2 994  236 994  Z " fill-rule="nonzero" fill="#ffffff" stroke="none" />
  <path d="M 236 994.5  C 252.52 994.5  265.5 1007.48  265.5 1024  C 265.5 1040.52  252.52 1053.5  236 1053.5  C 219.48 1053.5  206.5 1040.52  206.5 1024  C 206.5 1007.48  219.48 994.5  236 994.5  Z " stroke-width="1" stroke="#797979" fill="none" />
  <path d="M 236 1039  C 227.6 1039  221 1032.4  221 1024  C 221 1015.6  227.6 1009  236 1009  C 244.4 1009  251 1015.6  251 1024  C 251 1032.4  244.4 1039  236 1039  " fill-rule="nonzero" fill="#797979" stroke="none" />
</svg>