<?xml version="1.0" encoding="utf-8"?>
<svg version="1.1" xmlns:xlink="http://www.w3.org/1999/xlink" width="60px" height="60px" viewBox="206 1344  60 60" xmlns="http://www.w3.org/2000/svg">
  <path d="M 236 1344  C 252.8 1344  266 1357.2  266 1374  C 266 1390.8  252.8 1404  236 1404  C 219.2 1404  206 1390.8  206 1374  C 206 1357.2  219.2 1344  236 1344  Z " fill-rule="nonzero" fill="#ffffff" stroke="none" />
  <path d="M 236 1344.5  C 252.52 1344.5  265.5 1357.48  265.5 1374  C 265.5 1390.52  252.52 1403.5  236 1403.5  C 219.48 1403.5  206.5 1390.52  206.5 1374  C 206.5 1357.48  219.48 1344.5  236 1344.5  Z " stroke-width="1" stroke="#797979" fill="none" />
  <path d="M 236 1389  C 227.6 1389  221 1382.4  221 1374  C 221 1365.6  227.6 1359  236 1359  C 244.4 1359  251 1365.6  251 1374  C 251 1382.4  244.4 1389  236 1389  " fill-rule="nonzero" fill="#797979" stroke="none" />
</svg>