<?xml version="1.0" encoding="utf-8"?>
<svg version="1.1" xmlns:xlink="http://www.w3.org/1999/xlink" width="60px" height="60px" viewBox="206 1274  60 60" xmlns="http://www.w3.org/2000/svg">
  <path d="M 236 1274  C 252.8 1274  266 1287.2  266 1304  C 266 1320.8  252.8 1334  236 1334  C 219.2 1334  206 1320.8  206 1304  C 206 1287.2  219.2 1274  236 1274  Z " fill-rule="nonzero" fill="#f0f0f0" stroke="none" />
  <path d="M 236 1274.5  C 252.52 1274.5  265.5 1287.48  265.5 1304  C 265.5 1320.52  252.52 1333.5  236 1333.5  C 219.48 1333.5  206.5 1320.52  206.5 1304  C 206.5 1287.48  219.48 1274.5  236 1274.5  Z " stroke-width="1" stroke="#797979" fill="none" />
  <path d="M 236 1319  C 227.6 1319  221 1312.4  221 1304  C 221 1295.6  227.6 1289  236 1289  C 244.4 1289  251 1295.6  251 1304  C 251 1312.4  244.4 1319  236 1319  " fill-rule="nonzero" fill="#797979" stroke="none" />
</svg>