<?xml version="1.0" encoding="utf-8"?>
<svg version="1.1" xmlns:xlink="http://www.w3.org/1999/xlink" width="60px" height="60px" viewBox="206 1204  60 60" xmlns="http://www.w3.org/2000/svg">
  <path d="M 236 1204  C 252.8 1204  266 1217.2  266 1234  C 266 1250.8  252.8 1264  236 1264  C 219.2 1264  206 1250.8  206 1234  C 206 1217.2  219.2 1204  236 1204  Z " fill-rule="nonzero" fill="#f0f0f0" stroke="none" />
  <path d="M 236 1204.5  C 252.52 1204.5  265.5 1217.48  265.5 1234  C 265.5 1250.52  252.52 1263.5  236 1263.5  C 219.48 1263.5  206.5 1250.52  206.5 1234  C 206.5 1217.48  219.48 1204.5  236 1204.5  Z " stroke-width="1" stroke="#797979" fill="none" />
  <path d="M 236 1249  C 227.6 1249  221 1242.4  221 1234  C 221 1225.6  227.6 1219  236 1219  C 244.4 1219  251 1225.6  251 1234  C 251 1242.4  244.4 1249  236 1249  " fill-rule="nonzero" fill="#797979" stroke="none" />
</svg>