<?xml version="1.0" encoding="utf-8"?>
<svg version="1.1" xmlns:xlink="http://www.w3.org/1999/xlink" width="60px" height="60px" viewBox="2656 1204  60 60" xmlns="http://www.w3.org/2000/svg">
  <path d="M 2686 1204  C 2702.8 1204  2716 1217.2  2716 1234  C 2716 1250.8  2702.8 1264  2686 1264  C 2669.2 1264  2656 1250.8  2656 1234  C 2656 1217.2  2669.2 1204  2686 1204  Z " fill-rule="nonzero" fill="#ffffff" stroke="none" />
  <path d="M 2686 1204.5  C 2702.52 1204.5  2715.5 1217.48  2715.5 1234  C 2715.5 1250.52  2702.52 1263.5  2686 1263.5  C 2669.48 1263.5  2656.5 1250.52  2656.5 1234  C 2656.5 1217.48  2669.48 1204.5  2686 1204.5  Z " stroke-width="1" stroke="#797979" fill="none" />
  <path d="M 2686 1249  C 2677.6 1249  2671 1242.4  2671 1234  C 2671 1225.6  2677.6 1219  2686 1219  C 2694.4 1219  2701 1225.6  2701 1234  C 2701 1242.4  2694.4 1249  2686 1249  " fill-rule="nonzero" fill="#797979" stroke="none" />
</svg>