<?xml version="1.0" encoding="utf-8"?>
<svg version="1.1" xmlns:xlink="http://www.w3.org/1999/xlink" width="60px" height="60px" viewBox="2656 1344  60 60" xmlns="http://www.w3.org/2000/svg">
  <path d="M 2686 1344  C 2702.8 1344  2716 1357.2  2716 1374  C 2716 1390.8  2702.8 1404  2686 1404  C 2669.2 1404  2656 1390.8  2656 1374  C 2656 1357.2  2669.2 1344  2686 1344  Z " fill-rule="nonzero" fill="#f0f0f0" stroke="none" />
  <path d="M 2686 1344.5  C 2702.52 1344.5  2715.5 1357.48  2715.5 1374  C 2715.5 1390.52  2702.52 1403.5  2686 1403.5  C 2669.48 1403.5  2656.5 1390.52  2656.5 1374  C 2656.5 1357.48  2669.48 1344.5  2686 1344.5  Z " stroke-width="1" stroke="#797979" fill="none" />
  <path d="M 2686 1389  C 2677.6 1389  2671 1382.4  2671 1374  C 2671 1365.6  2677.6 1359  2686 1359  C 2694.4 1359  2701 1365.6  2701 1374  C 2701 1382.4  2694.4 1389  2686 1389  " fill-rule="nonzero" fill="#797979" stroke="none" />
</svg>