<?xml version="1.0" encoding="utf-8"?>
<svg version="1.1" xmlns:xlink="http://www.w3.org/1999/xlink" width="60px" height="60px" viewBox="2656 712  60 60" xmlns="http://www.w3.org/2000/svg">
  <path d="M 2686 712  C 2702.8 712  2716 725.2  2716 742  C 2716 758.8  2702.8 772  2686 772  C 2669.2 772  2656 758.8  2656 742  C 2656 725.2  2669.2 712  2686 712  Z " fill-rule="nonzero" fill="#ffffff" stroke="none" />
  <path d="M 2686 712.5  C 2702.52 712.5  2715.5 725.48  2715.5 742  C 2715.5 758.52  2702.52 771.5  2686 771.5  C 2669.48 771.5  2656.5 758.52  2656.5 742  C 2656.5 725.48  2669.48 712.5  2686 712.5  Z " stroke-width="1" stroke="#797979" fill="none" />
  <path d="M 2686 757  C 2677.6 757  2671 750.4  2671 742  C 2671 733.6  2677.6 727  2686 727  C 2694.4 727  2701 733.6  2701 742  C 2701 750.4  2694.4 757  2686 757  " fill-rule="nonzero" fill="#797979" stroke="none" />
</svg>