<?xml version="1.0" encoding="utf-8"?>
<svg version="1.1" xmlns:xlink="http://www.w3.org/1999/xlink" width="60px" height="60px" viewBox="2656 1134  60 60" xmlns="http://www.w3.org/2000/svg">
  <path d="M 2686 1134  C 2702.8 1134  2716 1147.2  2716 1164  C 2716 1180.8  2702.8 1194  2686 1194  C 2669.2 1194  2656 1180.8  2656 1164  C 2656 1147.2  2669.2 1134  2686 1134  Z " fill-rule="nonzero" fill="#ffffff" stroke="none" />
  <path d="M 2686 1134.5  C 2702.52 1134.5  2715.5 1147.48  2715.5 1164  C 2715.5 1180.52  2702.52 1193.5  2686 1193.5  C 2669.48 1193.5  2656.5 1180.52  2656.5 1164  C 2656.5 1147.48  2669.48 1134.5  2686 1134.5  Z " stroke-width="1" stroke="#797979" fill="none" />
  <path d="M 2686 1179  C 2677.6 1179  2671 1172.4  2671 1164  C 2671 1155.6  2677.6 1149  2686 1149  C 2694.4 1149  2701 1155.6  2701 1164  C 2701 1172.4  2694.4 1179  2686 1179  " fill-rule="nonzero" fill="#797979" stroke="none" />
</svg>