<?xml version="1.0" encoding="utf-8"?>
<svg version="1.1" xmlns:xlink="http://www.w3.org/1999/xlink" width="60px" height="60px" viewBox="2656 994  60 60" xmlns="http://www.w3.org/2000/svg">
  <path d="M 2686 994  C 2702.8 994  2716 1007.2  2716 1024  C 2716 1040.8  2702.8 1054  2686 1054  C 2669.2 1054  2656 1040.8  2656 1024  C 2656 1007.2  2669.2 994  2686 994  Z " fill-rule="nonzero" fill="#f0f0f0" stroke="none" />
  <path d="M 2686 994.5  C 2702.52 994.5  2715.5 1007.48  2715.5 1024  C 2715.5 1040.52  2702.52 1053.5  2686 1053.5  C 2669.48 1053.5  2656.5 1040.52  2656.5 1024  C 2656.5 1007.48  2669.48 994.5  2686 994.5  Z " stroke-width="1" stroke="#797979" fill="none" />
  <path d="M 2686 1039  C 2677.6 1039  2671 1032.4  2671 1024  C 2671 1015.6  2677.6 1009  2686 1009  C 2694.4 1009  2701 1015.6  2701 1024  C 2701 1032.4  2694.4 1039  2686 1039  " fill-rule="nonzero" fill="#797979" stroke="none" />
</svg>