<?xml version="1.0" encoding="utf-8"?>
<svg version="1.1" xmlns:xlink="http://www.w3.org/1999/xlink" width="60px" height="60px" viewBox="2656 783  60 60" xmlns="http://www.w3.org/2000/svg">
  <path d="M 2686 783  C 2702.8 783  2716 796.2  2716 813  C 2716 829.8  2702.8 843  2686 843  C 2669.2 843  2656 829.8  2656 813  C 2656 796.2  2669.2 783  2686 783  Z " fill-rule="nonzero" fill="#f0f0f0" stroke="none" />
  <path d="M 2686 783.5  C 2702.52 783.5  2715.5 796.48  2715.5 813  C 2715.5 829.52  2702.52 842.5  2686 842.5  C 2669.48 842.5  2656.5 829.52  2656.5 813  C 2656.5 796.48  2669.48 783.5  2686 783.5  Z " stroke-width="1" stroke="#797979" fill="none" />
  <path d="M 2686 828  C 2677.6 828  2671 821.4  2671 813  C 2671 804.6  2677.6 798  2686 798  C 2694.4 798  2701 804.6  2701 813  C 2701 821.4  2694.4 828  2686 828  " fill-rule="nonzero" fill="#797979" stroke="none" />
</svg>