<?xml version="1.0" encoding="utf-8"?>
<svg version="1.1" xmlns:xlink="http://www.w3.org/1999/xlink" width="60px" height="60px" viewBox="2656 854  60 60" xmlns="http://www.w3.org/2000/svg">
  <path d="M 2686 854  C 2702.8 854  2716 867.2  2716 884  C 2716 900.8  2702.8 914  2686 914  C 2669.2 914  2656 900.8  2656 884  C 2656 867.2  2669.2 854  2686 854  Z " fill-rule="nonzero" fill="#ffffff" stroke="none" />
  <path d="M 2686 854.5  C 2702.52 854.5  2715.5 867.48  2715.5 884  C 2715.5 900.52  2702.52 913.5  2686 913.5  C 2669.48 913.5  2656.5 900.52  2656.5 884  C 2656.5 867.48  2669.48 854.5  2686 854.5  Z " stroke-width="1" stroke="#797979" fill="none" />
  <path d="M 2686 899  C 2677.6 899  2671 892.4  2671 884  C 2671 875.6  2677.6 869  2686 869  C 2694.4 869  2701 875.6  2701 884  C 2701 892.4  2694.4 899  2686 899  " fill-rule="nonzero" fill="#797979" stroke="none" />
</svg>