<?xml version="1.0" encoding="utf-8"?>
<svg version="1.1" xmlns:xlink="http://www.w3.org/1999/xlink" width="60px" height="60px" viewBox="2656 924  60 60" xmlns="http://www.w3.org/2000/svg">
  <path d="M 2686 924  C 2702.8 924  2716 937.2  2716 954  C 2716 970.8  2702.8 984  2686 984  C 2669.2 984  2656 970.8  2656 954  C 2656 937.2  2669.2 924  2686 924  Z " fill-rule="nonzero" fill="#ffffff" stroke="none" />
  <path d="M 2686 924.5  C 2702.52 924.5  2715.5 937.48  2715.5 954  C 2715.5 970.52  2702.52 983.5  2686 983.5  C 2669.48 983.5  2656.5 970.52  2656.5 954  C 2656.5 937.48  2669.48 924.5  2686 924.5  Z " stroke-width="1" stroke="#797979" fill="none" />
  <path d="M 2686 969  C 2677.6 969  2671 962.4  2671 954  C 2671 945.6  2677.6 939  2686 939  C 2694.4 939  2701 945.6  2701 954  C 2701 962.4  2694.4 969  2686 969  " fill-rule="nonzero" fill="#797979" stroke="none" />
</svg>