<?xml version="1.0" encoding="utf-8"?>
<svg version="1.1" xmlns:xlink="http://www.w3.org/1999/xlink" width="54px" height="49px" xmlns="http://www.w3.org/2000/svg">
  <g transform="matrix(1 0 0 1 -1533 -51 )">
    <path d="M 52.7272727272727 36.6262626262626  C 53.5757575757576 37.3961840628507  54 38.331088664422  54 39.4309764309764  C 54 40.5308641975309  53.5757575757576 41.4657687991021  52.7272727272727 42.2356902356902  L 46.5454545454545 47.8451178451178  C 45.6969696969697 48.6150392817059  44.6666666666667 49  43.4545454545455 49  C 42.2424242424242 49  41.2121212121212 48.6150392817059  40.3636363636364 47.8451178451178  L 27 35.7188552188552  L 13.6363636363636 47.8451178451178  C 12.7878787878788 48.6150392817059  11.7575757575758 49  10.5454545454545 49  C 9.33333333333333 49  8.3030303030303 48.6150392817059  7.45454545454546 47.8451178451178  L 1.27272727272727 42.2356902356902  C 0.424242424242425 41.4657687991021  0 40.5308641975309  0 39.4309764309764  C 0 38.331088664422  0.424242424242425 37.3961840628507  1.27272727272727 36.6262626262626  L 14.6363636363636 24.5  L 1.27272727272727 12.3737373737374  C 0.424242424242425 11.6038159371493  0 10.668911335578  0 9.56902356902357  C 0 8.46913580246914  0.424242424242425 7.53423120089786  1.27272727272727 6.76430976430977  L 7.45454545454546 1.15488215488216  C 8.3030303030303 0.38496071829405  9.33333333333333 0  10.5454545454545 0  C 11.7575757575758 0  12.7878787878788 0.38496071829405  13.6363636363636 1.15488215488216  L 27 13.2811447811448  L 40.3636363636364 1.15488215488216  C 41.2121212121212 0.38496071829405  42.2424242424242 0  43.4545454545455 0  C 44.6666666666667 0  45.6969696969697 0.38496071829405  46.5454545454545 1.15488215488216  L 52.7272727272727 6.76430976430977  C 53.5757575757576 7.53423120089786  54 8.46913580246914  54 9.56902356902357  C 54 10.668911335578  53.5757575757576 11.6038159371493  52.7272727272727 12.3737373737374  L 39.3636363636364 24.5  L 52.7272727272727 36.6262626262626  Z " fill-rule="nonzero" fill="#000000" stroke="none" transform="matrix(1 0 0 1 1533 51 )" />
  </g>
</svg>