<?xml version="1.0" encoding="utf-8"?>
<svg version="1.1" xmlns:xlink="http://www.w3.org/1999/xlink" width="60px" height="60px" viewBox="384 2881  60 60" xmlns="http://www.w3.org/2000/svg">
  <path d="M 414 2881  C 430.8 2881  444 2894.2  444 2911  C 444 2927.8  430.8 2941  414 2941  C 397.2 2941  384 2927.8  384 2911  C 384 2894.2  397.2 2881  414 2881  Z " fill-rule="nonzero" fill="#f0f0f0" stroke="none" />
  <path d="M 414 2881.5  C 430.52 2881.5  443.5 2894.48  443.5 2911  C 443.5 2927.52  430.52 2940.5  414 2940.5  C 397.48 2940.5  384.5 2927.52  384.5 2911  C 384.5 2894.48  397.48 2881.5  414 2881.5  Z " stroke-width="1" stroke="#797979" fill="none" />
  <path d="M 414 2926  C 405.6 2926  399 2919.4  399 2911  C 399 2902.6  405.6 2896  414 2896  C 422.4 2896  429 2902.6  429 2911  C 429 2919.4  422.4 2926  414 2926  " fill-rule="nonzero" fill="#797979" stroke="none" />
</svg>