<?xml version="1.0" encoding="utf-8"?>
<svg version="1.1" xmlns:xlink="http://www.w3.org/1999/xlink" width="60px" height="60px" viewBox="384 2811  60 60" xmlns="http://www.w3.org/2000/svg">
  <path d="M 414 2811  C 430.8 2811  444 2824.2  444 2841  C 444 2857.8  430.8 2871  414 2871  C 397.2 2871  384 2857.8  384 2841  C 384 2824.2  397.2 2811  414 2811  Z " fill-rule="nonzero" fill="#f0f0f0" stroke="none" />
  <path d="M 414 2811.5  C 430.52 2811.5  443.5 2824.48  443.5 2841  C 443.5 2857.52  430.52 2870.5  414 2870.5  C 397.48 2870.5  384.5 2857.52  384.5 2841  C 384.5 2824.48  397.48 2811.5  414 2811.5  Z " stroke-width="1" stroke="#797979" fill="none" />
  <path d="M 414 2856  C 405.6 2856  399 2849.4  399 2841  C 399 2832.6  405.6 2826  414 2826  C 422.4 2826  429 2832.6  429 2841  C 429 2849.4  422.4 2856  414 2856  " fill-rule="nonzero" fill="#797979" stroke="none" />
</svg>