<?xml version="1.0" encoding="utf-8"?>
<svg version="1.1" xmlns:xlink="http://www.w3.org/1999/xlink" width="60px" height="60px" viewBox="211 1735  60 60" xmlns="http://www.w3.org/2000/svg">
  <path d="M 241 1735  C 257.8 1735  271 1748.2  271 1765  C 271 1781.8  257.8 1795  241 1795  C 224.2 1795  211 1781.8  211 1765  C 211 1748.2  224.2 1735  241 1735  Z " fill-rule="nonzero" fill="#f0f0f0" stroke="none" />
  <path d="M 241 1735.5  C 257.52 1735.5  270.5 1748.48  270.5 1765  C 270.5 1781.52  257.52 1794.5  241 1794.5  C 224.48 1794.5  211.5 1781.52  211.5 1765  C 211.5 1748.48  224.48 1735.5  241 1735.5  Z " stroke-width="1" stroke="#797979" fill="none" />
  <path d="M 241 1780  C 232.6 1780  226 1773.4  226 1765  C 226 1756.6  232.6 1750  241 1750  C 249.4 1750  256 1756.6  256 1765  C 256 1773.4  249.4 1780  241 1780  " fill-rule="nonzero" fill="#797979" stroke="none" />
</svg>