<?xml version="1.0" encoding="utf-8"?>
<svg version="1.1" xmlns:xlink="http://www.w3.org/1999/xlink" width="60px" height="60px" viewBox="211 1385  60 60" xmlns="http://www.w3.org/2000/svg">
  <path d="M 241 1385  C 257.8 1385  271 1398.2  271 1415  C 271 1431.8  257.8 1445  241 1445  C 224.2 1445  211 1431.8  211 1415  C 211 1398.2  224.2 1385  241 1385  Z " fill-rule="nonzero" fill="#f0f0f0" stroke="none" />
  <path d="M 241 1385.5  C 257.52 1385.5  270.5 1398.48  270.5 1415  C 270.5 1431.52  257.52 1444.5  241 1444.5  C 224.48 1444.5  211.5 1431.52  211.5 1415  C 211.5 1398.48  224.48 1385.5  241 1385.5  Z " stroke-width="1" stroke="#797979" fill="none" />
  <path d="M 241 1430  C 232.6 1430  226 1423.4  226 1415  C 226 1406.6  232.6 1400  241 1400  C 249.4 1400  256 1406.6  256 1415  C 256 1423.4  249.4 1430  241 1430  " fill-rule="nonzero" fill="#797979" stroke="none" />
</svg>