<?xml version="1.0" encoding="utf-8"?>
<svg version="1.1" xmlns:xlink="http://www.w3.org/1999/xlink" width="60px" height="60px" viewBox="211 1035  60 60" xmlns="http://www.w3.org/2000/svg">
  <path d="M 241 1035  C 257.8 1035  271 1048.2  271 1065  C 271 1081.8  257.8 1095  241 1095  C 224.2 1095  211 1081.8  211 1065  C 211 1048.2  224.2 1035  241 1035  Z " fill-rule="nonzero" fill="#ffffff" stroke="none" />
  <path d="M 241 1035.5  C 257.52 1035.5  270.5 1048.48  270.5 1065  C 270.5 1081.52  257.52 1094.5  241 1094.5  C 224.48 1094.5  211.5 1081.52  211.5 1065  C 211.5 1048.48  224.48 1035.5  241 1035.5  Z " stroke-width="1" stroke="#797979" fill="none" />
  <path d="M 241 1080  C 232.6 1080  226 1073.4  226 1065  C 226 1056.6  232.6 1050  241 1050  C 249.4 1050  256 1056.6  256 1065  C 256 1073.4  249.4 1080  241 1080  " fill-rule="nonzero" fill="#797979" stroke="none" />
</svg>