<?xml version="1.0" encoding="utf-8"?>
<svg version="1.1" xmlns:xlink="http://www.w3.org/1999/xlink" width="60px" height="60px" viewBox="211 965  60 60" xmlns="http://www.w3.org/2000/svg">
  <path d="M 241 965  C 257.8 965  271 978.2  271 995  C 271 1011.8  257.8 1025  241 1025  C 224.2 1025  211 1011.8  211 995  C 211 978.2  224.2 965  241 965  Z " fill-rule="nonzero" fill="#f0f0f0" stroke="none" />
  <path d="M 241 965.5  C 257.52 965.5  270.5 978.48  270.5 995  C 270.5 1011.52  257.52 1024.5  241 1024.5  C 224.48 1024.5  211.5 1011.52  211.5 995  C 211.5 978.48  224.48 965.5  241 965.5  Z " stroke-width="1" stroke="#797979" fill="none" />
  <path d="M 241 1010  C 232.6 1010  226 1003.4  226 995  C 226 986.6  232.6 980  241 980  C 249.4 980  256 986.6  256 995  C 256 1003.4  249.4 1010  241 1010  " fill-rule="nonzero" fill="#797979" stroke="none" />
</svg>