<?xml version="1.0" encoding="utf-8"?>
<svg version="1.1" xmlns:xlink="http://www.w3.org/1999/xlink" width="60px" height="60px" viewBox="211 1595  60 60" xmlns="http://www.w3.org/2000/svg">
  <path d="M 241 1595  C 257.8 1595  271 1608.2  271 1625  C 271 1641.8  257.8 1655  241 1655  C 224.2 1655  211 1641.8  211 1625  C 211 1608.2  224.2 1595  241 1595  Z " fill-rule="nonzero" fill="#f0f0f0" stroke="none" />
  <path d="M 241 1595.5  C 257.52 1595.5  270.5 1608.48  270.5 1625  C 270.5 1641.52  257.52 1654.5  241 1654.5  C 224.48 1654.5  211.5 1641.52  211.5 1625  C 211.5 1608.48  224.48 1595.5  241 1595.5  Z " stroke-width="1" stroke="#797979" fill="none" />
  <path d="M 241 1640  C 232.6 1640  226 1633.4  226 1625  C 226 1616.6  232.6 1610  241 1610  C 249.4 1610  256 1616.6  256 1625  C 256 1633.4  249.4 1640  241 1640  " fill-rule="nonzero" fill="#797979" stroke="none" />
</svg>