<?xml version="1.0" encoding="utf-8"?>
<svg version="1.1" xmlns:xlink="http://www.w3.org/1999/xlink" width="60px" height="60px" viewBox="211 1665  60 60" xmlns="http://www.w3.org/2000/svg">
  <path d="M 241 1665  C 257.8 1665  271 1678.2  271 1695  C 271 1711.8  257.8 1725  241 1725  C 224.2 1725  211 1711.8  211 1695  C 211 1678.2  224.2 1665  241 1665  Z " fill-rule="nonzero" fill="#ffffff" stroke="none" />
  <path d="M 241 1665.5  C 257.52 1665.5  270.5 1678.48  270.5 1695  C 270.5 1711.52  257.52 1724.5  241 1724.5  C 224.48 1724.5  211.5 1711.52  211.5 1695  C 211.5 1678.48  224.48 1665.5  241 1665.5  Z " stroke-width="1" stroke="#797979" fill="none" />
  <path d="M 241 1710  C 232.6 1710  226 1703.4  226 1695  C 226 1686.6  232.6 1680  241 1680  C 249.4 1680  256 1686.6  256 1695  C 256 1703.4  249.4 1710  241 1710  " fill-rule="nonzero" fill="#797979" stroke="none" />
</svg>