<?xml version="1.0" encoding="utf-8"?>
<svg version="1.1" xmlns:xlink="http://www.w3.org/1999/xlink" width="60px" height="60px" viewBox="211 1455  60 60" xmlns="http://www.w3.org/2000/svg">
  <path d="M 241 1455  C 257.8 1455  271 1468.2  271 1485  C 271 1501.8  257.8 1515  241 1515  C 224.2 1515  211 1501.8  211 1485  C 211 1468.2  224.2 1455  241 1455  Z " fill-rule="nonzero" fill="#f0f0f0" stroke="none" />
  <path d="M 241 1455.5  C 257.52 1455.5  270.5 1468.48  270.5 1485  C 270.5 1501.52  257.52 1514.5  241 1514.5  C 224.48 1514.5  211.5 1501.52  211.5 1485  C 211.5 1468.48  224.48 1455.5  241 1455.5  Z " stroke-width="1" stroke="#797979" fill="none" />
  <path d="M 241 1500  C 232.6 1500  226 1493.4  226 1485  C 226 1476.6  232.6 1470  241 1470  C 249.4 1470  256 1476.6  256 1485  C 256 1493.4  249.4 1500  241 1500  " fill-rule="nonzero" fill="#797979" stroke="none" />
</svg>