<?xml version="1.0" encoding="utf-8"?>
<svg version="1.1" xmlns:xlink="http://www.w3.org/1999/xlink" width="60px" height="60px" viewBox="211 1105  60 60" xmlns="http://www.w3.org/2000/svg">
  <path d="M 241 1105  C 257.8 1105  271 1118.2  271 1135  C 271 1151.8  257.8 1165  241 1165  C 224.2 1165  211 1151.8  211 1135  C 211 1118.2  224.2 1105  241 1105  Z " fill-rule="nonzero" fill="#ffffff" stroke="none" />
  <path d="M 241 1105.5  C 257.52 1105.5  270.5 1118.48  270.5 1135  C 270.5 1151.52  257.52 1164.5  241 1164.5  C 224.48 1164.5  211.5 1151.52  211.5 1135  C 211.5 1118.48  224.48 1105.5  241 1105.5  Z " stroke-width="1" stroke="#797979" fill="none" />
  <path d="M 241 1150  C 232.6 1150  226 1143.4  226 1135  C 226 1126.6  232.6 1120  241 1120  C 249.4 1120  256 1126.6  256 1135  C 256 1143.4  249.4 1150  241 1150  " fill-rule="nonzero" fill="#797979" stroke="none" />
</svg>