<?xml version="1.0" encoding="utf-8"?>
<svg version="1.1" xmlns:xlink="http://www.w3.org/1999/xlink" width="60px" height="60px" viewBox="211 1245  60 60" xmlns="http://www.w3.org/2000/svg">
  <path d="M 241 1245  C 257.8 1245  271 1258.2  271 1275  C 271 1291.8  257.8 1305  241 1305  C 224.2 1305  211 1291.8  211 1275  C 211 1258.2  224.2 1245  241 1245  Z " fill-rule="nonzero" fill="#f0f0f0" stroke="none" />
  <path d="M 241 1245.5  C 257.52 1245.5  270.5 1258.48  270.5 1275  C 270.5 1291.52  257.52 1304.5  241 1304.5  C 224.48 1304.5  211.5 1291.52  211.5 1275  C 211.5 1258.48  224.48 1245.5  241 1245.5  Z " stroke-width="1" stroke="#797979" fill="none" />
  <path d="M 241 1290  C 232.6 1290  226 1283.4  226 1275  C 226 1266.6  232.6 1260  241 1260  C 249.4 1260  256 1266.6  256 1275  C 256 1283.4  249.4 1290  241 1290  " fill-rule="nonzero" fill="#797979" stroke="none" />
</svg>