<?xml version="1.0" encoding="utf-8"?>
<svg version="1.1" xmlns:xlink="http://www.w3.org/1999/xlink" width="60px" height="60px" viewBox="211 754  60 60" xmlns="http://www.w3.org/2000/svg">
  <path d="M 241 754  C 257.8 754  271 767.2  271 784  C 271 800.8  257.8 814  241 814  C 224.2 814  211 800.8  211 784  C 211 767.2  224.2 754  241 754  Z " fill-rule="nonzero" fill="#ffffff" stroke="none" />
  <path d="M 241 754.5  C 257.52 754.5  270.5 767.48  270.5 784  C 270.5 800.52  257.52 813.5  241 813.5  C 224.48 813.5  211.5 800.52  211.5 784  C 211.5 767.48  224.48 754.5  241 754.5  Z " stroke-width="1" stroke="#797979" fill="none" />
  <path d="M 241 799  C 232.6 799  226 792.4  226 784  C 226 775.6  232.6 769  241 769  C 249.4 769  256 775.6  256 784  C 256 792.4  249.4 799  241 799  " fill-rule="nonzero" fill="#797979" stroke="none" />
</svg>