<?xml version="1.0" encoding="utf-8"?>
<svg version="1.1" xmlns:xlink="http://www.w3.org/1999/xlink" width="60px" height="60px" viewBox="2713 679  60 60" xmlns="http://www.w3.org/2000/svg">
  <path d="M 2743 679  C 2759.8 679  2773 692.2  2773 709  C 2773 725.8  2759.8 739  2743 739  C 2726.2 739  2713 725.8  2713 709  C 2713 692.2  2726.2 679  2743 679  Z " fill-rule="nonzero" fill="#ffffff" stroke="none" />
  <path d="M 2743 679.5  C 2759.52 679.5  2772.5 692.48  2772.5 709  C 2772.5 725.52  2759.52 738.5  2743 738.5  C 2726.48 738.5  2713.5 725.52  2713.5 709  C 2713.5 692.48  2726.48 679.5  2743 679.5  Z " stroke-width="1" stroke="#797979" fill="none" />
  <path d="M 2743 724  C 2734.6 724  2728 717.4  2728 709  C 2728 700.6  2734.6 694  2743 694  C 2751.4 694  2758 700.6  2758 709  C 2758 717.4  2751.4 724  2743 724  " fill-rule="nonzero" fill="#797979" stroke="none" />
</svg>