<?xml version="1.0" encoding="utf-8"?>
<svg version="1.1" xmlns:xlink="http://www.w3.org/1999/xlink" width="60px" height="60px" viewBox="2713 612  60 60" xmlns="http://www.w3.org/2000/svg">
  <path d="M 2743 612  C 2759.8 612  2773 625.2  2773 642  C 2773 658.8  2759.8 672  2743 672  C 2726.2 672  2713 658.8  2713 642  C 2713 625.2  2726.2 612  2743 612  Z " fill-rule="nonzero" fill="#f0f0f0" stroke="none" />
  <path d="M 2743 612.5  C 2759.52 612.5  2772.5 625.48  2772.5 642  C 2772.5 658.52  2759.52 671.5  2743 671.5  C 2726.48 671.5  2713.5 658.52  2713.5 642  C 2713.5 625.48  2726.48 612.5  2743 612.5  Z " stroke-width="1" stroke="#797979" fill="none" />
  <path d="M 2743 657  C 2734.6 657  2728 650.4  2728 642  C 2728 633.6  2734.6 627  2743 627  C 2751.4 627  2758 633.6  2758 642  C 2758 650.4  2751.4 657  2743 657  " fill-rule="nonzero" fill="#797979" stroke="none" />
</svg>