<?xml version="1.0" encoding="utf-8"?>
<svg version="1.1" xmlns:xlink="http://www.w3.org/1999/xlink" width="60px" height="60px" viewBox="2713 821  60 60" xmlns="http://www.w3.org/2000/svg">
  <path d="M 2743 821  C 2759.8 821  2773 834.2  2773 851  C 2773 867.8  2759.8 881  2743 881  C 2726.2 881  2713 867.8  2713 851  C 2713 834.2  2726.2 821  2743 821  Z " fill-rule="nonzero" fill="#ffffff" stroke="none" />
  <path d="M 2743 821.5  C 2759.52 821.5  2772.5 834.48  2772.5 851  C 2772.5 867.52  2759.52 880.5  2743 880.5  C 2726.48 880.5  2713.5 867.52  2713.5 851  C 2713.5 834.48  2726.48 821.5  2743 821.5  Z " stroke-width="1" stroke="#797979" fill="none" />
  <path d="M 2743 866  C 2734.6 866  2728 859.4  2728 851  C 2728 842.6  2734.6 836  2743 836  C 2751.4 836  2758 842.6  2758 851  C 2758 859.4  2751.4 866  2743 866  " fill-rule="nonzero" fill="#797979" stroke="none" />
</svg>