<?xml version="1.0" encoding="utf-8"?>
<svg version="1.1" xmlns:xlink="http://www.w3.org/1999/xlink" width="60px" height="60px" viewBox="2713 750  60 60" xmlns="http://www.w3.org/2000/svg">
  <path d="M 2743 750  C 2759.8 750  2773 763.2  2773 780  C 2773 796.8  2759.8 810  2743 810  C 2726.2 810  2713 796.8  2713 780  C 2713 763.2  2726.2 750  2743 750  Z " fill-rule="nonzero" fill="#ffffff" stroke="none" />
  <path d="M 2743 750.5  C 2759.52 750.5  2772.5 763.48  2772.5 780  C 2772.5 796.52  2759.52 809.5  2743 809.5  C 2726.48 809.5  2713.5 796.52  2713.5 780  C 2713.5 763.48  2726.48 750.5  2743 750.5  Z " stroke-width="1" stroke="#797979" fill="none" />
  <path d="M 2743 795  C 2734.6 795  2728 788.4  2728 780  C 2728 771.6  2734.6 765  2743 765  C 2751.4 765  2758 771.6  2758 780  C 2758 788.4  2751.4 795  2743 795  " fill-rule="nonzero" fill="#797979" stroke="none" />
</svg>