<?xml version="1.0" encoding="utf-8"?>
<svg version="1.1" xmlns:xlink="http://www.w3.org/1999/xlink" width="60px" height="60px" viewBox="2713 961  60 60" xmlns="http://www.w3.org/2000/svg">
  <path d="M 2743 961  C 2759.8 961  2773 974.2  2773 991  C 2773 1007.8  2759.8 1021  2743 1021  C 2726.2 1021  2713 1007.8  2713 991  C 2713 974.2  2726.2 961  2743 961  Z " fill-rule="nonzero" fill="#ffffff" stroke="none" />
  <path d="M 2743 961.5  C 2759.52 961.5  2772.5 974.48  2772.5 991  C 2772.5 1007.52  2759.52 1020.5  2743 1020.5  C 2726.48 1020.5  2713.5 1007.52  2713.5 991  C 2713.5 974.48  2726.48 961.5  2743 961.5  Z " stroke-width="1" stroke="#797979" fill="none" />
  <path d="M 2743 1006  C 2734.6 1006  2728 999.4  2728 991  C 2728 982.6  2734.6 976  2743 976  C 2751.4 976  2758 982.6  2758 991  C 2758 999.4  2751.4 1006  2743 1006  " fill-rule="nonzero" fill="#797979" stroke="none" />
</svg>