<?xml version="1.0" encoding="utf-8"?>
<svg version="1.1" xmlns:xlink="http://www.w3.org/1999/xlink" width="60px" height="60px" viewBox="2713 1661  60 60" xmlns="http://www.w3.org/2000/svg">
  <path d="M 2743 1661  C 2759.8 1661  2773 1674.2  2773 1691  C 2773 1707.8  2759.8 1721  2743 1721  C 2726.2 1721  2713 1707.8  2713 1691  C 2713 1674.2  2726.2 1661  2743 1661  Z " fill-rule="nonzero" fill="#ffffff" stroke="none" />
  <path d="M 2743 1661.5  C 2759.52 1661.5  2772.5 1674.48  2772.5 1691  C 2772.5 1707.52  2759.52 1720.5  2743 1720.5  C 2726.48 1720.5  2713.5 1707.52  2713.5 1691  C 2713.5 1674.48  2726.48 1661.5  2743 1661.5  Z " stroke-width="1" stroke="#797979" fill="none" />
  <path d="M 2743 1706  C 2734.6 1706  2728 1699.4  2728 1691  C 2728 1682.6  2734.6 1676  2743 1676  C 2751.4 1676  2758 1682.6  2758 1691  C 2758 1699.4  2751.4 1706  2743 1706  " fill-rule="nonzero" fill="#797979" stroke="none" />
</svg>