<?xml version="1.0" encoding="utf-8"?>
<svg version="1.1" xmlns:xlink="http://www.w3.org/1999/xlink" width="60px" height="60px" viewBox="2713 1241  60 60" xmlns="http://www.w3.org/2000/svg">
  <path d="M 2743 1241  C 2759.8 1241  2773 1254.2  2773 1271  C 2773 1287.8  2759.8 1301  2743 1301  C 2726.2 1301  2713 1287.8  2713 1271  C 2713 1254.2  2726.2 1241  2743 1241  Z " fill-rule="nonzero" fill="#ffffff" stroke="none" />
  <path d="M 2743 1241.5  C 2759.52 1241.5  2772.5 1254.48  2772.5 1271  C 2772.5 1287.52  2759.52 1300.5  2743 1300.5  C 2726.48 1300.5  2713.5 1287.52  2713.5 1271  C 2713.5 1254.48  2726.48 1241.5  2743 1241.5  Z " stroke-width="1" stroke="#797979" fill="none" />
  <path d="M 2743 1286  C 2734.6 1286  2728 1279.4  2728 1271  C 2728 1262.6  2734.6 1256  2743 1256  C 2751.4 1256  2758 1262.6  2758 1271  C 2758 1279.4  2751.4 1286  2743 1286  " fill-rule="nonzero" fill="#797979" stroke="none" />
</svg>