<?xml version="1.0" encoding="utf-8"?>
<svg version="1.1" xmlns:xlink="http://www.w3.org/1999/xlink" width="60px" height="60px" viewBox="2713 1731  60 60" xmlns="http://www.w3.org/2000/svg">
  <path d="M 2743 1731  C 2759.8 1731  2773 1744.2  2773 1761  C 2773 1777.8  2759.8 1791  2743 1791  C 2726.2 1791  2713 1777.8  2713 1761  C 2713 1744.2  2726.2 1731  2743 1731  Z " fill-rule="nonzero" fill="#f0f0f0" stroke="none" />
  <path d="M 2743 1731.5  C 2759.52 1731.5  2772.5 1744.48  2772.5 1761  C 2772.5 1777.52  2759.52 1790.5  2743 1790.5  C 2726.48 1790.5  2713.5 1777.52  2713.5 1761  C 2713.5 1744.48  2726.48 1731.5  2743 1731.5  Z " stroke-width="1" stroke="#797979" fill="none" />
  <path d="M 2743 1776  C 2734.6 1776  2728 1769.4  2728 1761  C 2728 1752.6  2734.6 1746  2743 1746  C 2751.4 1746  2758 1752.6  2758 1761  C 2758 1769.4  2751.4 1776  2743 1776  " fill-rule="nonzero" fill="#797979" stroke="none" />
</svg>