<?xml version="1.0" encoding="utf-8"?>
<svg version="1.1" xmlns:xlink="http://www.w3.org/1999/xlink" width="60px" height="60px" viewBox="2713 1521  60 60" xmlns="http://www.w3.org/2000/svg">
  <path d="M 2743 1521  C 2759.8 1521  2773 1534.2  2773 1551  C 2773 1567.8  2759.8 1581  2743 1581  C 2726.2 1581  2713 1567.8  2713 1551  C 2713 1534.2  2726.2 1521  2743 1521  Z " fill-rule="nonzero" fill="#ffffff" stroke="none" />
  <path d="M 2743 1521.5  C 2759.52 1521.5  2772.5 1534.48  2772.5 1551  C 2772.5 1567.52  2759.52 1580.5  2743 1580.5  C 2726.48 1580.5  2713.5 1567.52  2713.5 1551  C 2713.5 1534.48  2726.48 1521.5  2743 1521.5  Z " stroke-width="1" stroke="#797979" fill="none" />
  <path d="M 2743 1566  C 2734.6 1566  2728 1559.4  2728 1551  C 2728 1542.6  2734.6 1536  2743 1536  C 2751.4 1536  2758 1542.6  2758 1551  C 2758 1559.4  2751.4 1566  2743 1566  " fill-rule="nonzero" fill="#797979" stroke="none" />
</svg>