<?xml version="1.0" encoding="utf-8"?>
<svg version="1.1" xmlns:xlink="http://www.w3.org/1999/xlink" width="60px" height="60px" viewBox="2713 1171  60 60" xmlns="http://www.w3.org/2000/svg">
  <path d="M 2743 1171  C 2759.8 1171  2773 1184.2  2773 1201  C 2773 1217.8  2759.8 1231  2743 1231  C 2726.2 1231  2713 1217.8  2713 1201  C 2713 1184.2  2726.2 1171  2743 1171  Z " fill-rule="nonzero" fill="#f0f0f0" stroke="none" />
  <path d="M 2743 1171.5  C 2759.52 1171.5  2772.5 1184.48  2772.5 1201  C 2772.5 1217.52  2759.52 1230.5  2743 1230.5  C 2726.48 1230.5  2713.5 1217.52  2713.5 1201  C 2713.5 1184.48  2726.48 1171.5  2743 1171.5  Z " stroke-width="1" stroke="#797979" fill="none" />
  <path d="M 2743 1216  C 2734.6 1216  2728 1209.4  2728 1201  C 2728 1192.6  2734.6 1186  2743 1186  C 2751.4 1186  2758 1192.6  2758 1201  C 2758 1209.4  2751.4 1216  2743 1216  " fill-rule="nonzero" fill="#797979" stroke="none" />
</svg>