<?xml version="1.0" encoding="utf-8"?>
<svg version="1.1" xmlns:xlink="http://www.w3.org/1999/xlink" width="60px" height="60px" viewBox="2713 1031  60 60" xmlns="http://www.w3.org/2000/svg">
  <path d="M 2743 1031  C 2759.8 1031  2773 1044.2  2773 1061  C 2773 1077.8  2759.8 1091  2743 1091  C 2726.2 1091  2713 1077.8  2713 1061  C 2713 1044.2  2726.2 1031  2743 1031  Z " fill-rule="nonzero" fill="#ffffff" stroke="none" />
  <path d="M 2743 1031.5  C 2759.52 1031.5  2772.5 1044.48  2772.5 1061  C 2772.5 1077.52  2759.52 1090.5  2743 1090.5  C 2726.48 1090.5  2713.5 1077.52  2713.5 1061  C 2713.5 1044.48  2726.48 1031.5  2743 1031.5  Z " stroke-width="1" stroke="#797979" fill="none" />
  <path d="M 2743 1076  C 2734.6 1076  2728 1069.4  2728 1061  C 2728 1052.6  2734.6 1046  2743 1046  C 2751.4 1046  2758 1052.6  2758 1061  C 2758 1069.4  2751.4 1076  2743 1076  " fill-rule="nonzero" fill="#797979" stroke="none" />
</svg>