<?xml version="1.0" encoding="utf-8"?>
<svg version="1.1" xmlns:xlink="http://www.w3.org/1999/xlink" width="60px" height="60px" viewBox="2713 1451  60 60" xmlns="http://www.w3.org/2000/svg">
  <path d="M 2743 1451  C 2759.8 1451  2773 1464.2  2773 1481  C 2773 1497.8  2759.8 1511  2743 1511  C 2726.2 1511  2713 1497.8  2713 1481  C 2713 1464.2  2726.2 1451  2743 1451  Z " fill-rule="nonzero" fill="#f0f0f0" stroke="none" />
  <path d="M 2743 1451.5  C 2759.52 1451.5  2772.5 1464.48  2772.5 1481  C 2772.5 1497.52  2759.52 1510.5  2743 1510.5  C 2726.48 1510.5  2713.5 1497.52  2713.5 1481  C 2713.5 1464.48  2726.48 1451.5  2743 1451.5  Z " stroke-width="1" stroke="#797979" fill="none" />
  <path d="M 2743 1496  C 2734.6 1496  2728 1489.4  2728 1481  C 2728 1472.6  2734.6 1466  2743 1466  C 2751.4 1466  2758 1472.6  2758 1481  C 2758 1489.4  2751.4 1496  2743 1496  " fill-rule="nonzero" fill="#797979" stroke="none" />
</svg>