<?xml version="1.0" encoding="utf-8"?>
<svg version="1.1" xmlns:xlink="http://www.w3.org/1999/xlink" width="60px" height="60px" viewBox="2713 1311  60 60" xmlns="http://www.w3.org/2000/svg">
  <path d="M 2743 1311  C 2759.8 1311  2773 1324.2  2773 1341  C 2773 1357.8  2759.8 1371  2743 1371  C 2726.2 1371  2713 1357.8  2713 1341  C 2713 1324.2  2726.2 1311  2743 1311  Z " fill-rule="nonzero" fill="#ffffff" stroke="none" />
  <path d="M 2743 1311.5  C 2759.52 1311.5  2772.5 1324.48  2772.5 1341  C 2772.5 1357.52  2759.52 1370.5  2743 1370.5  C 2726.48 1370.5  2713.5 1357.52  2713.5 1341  C 2713.5 1324.48  2726.48 1311.5  2743 1311.5  Z " stroke-width="1" stroke="#797979" fill="none" />
  <path d="M 2743 1356  C 2734.6 1356  2728 1349.4  2728 1341  C 2728 1332.6  2734.6 1326  2743 1326  C 2751.4 1326  2758 1332.6  2758 1341  C 2758 1349.4  2751.4 1356  2743 1356  " fill-rule="nonzero" fill="#797979" stroke="none" />
</svg>