<?xml version="1.0" encoding="utf-8"?>
<svg version="1.1" xmlns:xlink="http://www.w3.org/1999/xlink" width="26px" height="24px" xmlns="http://www.w3.org/2000/svg">
  <g transform="matrix(1 0 0 1 -1994 -1221 )">
    <path d="M 8.68651685393258 5.14719101123595  C 8.54831460674157 5.32584269662921  8.67303370786517 5.58539325842697  8.89887640449438 5.58539325842697  L 11.3898876404494 5.58539325842697  L 11.3898876404494 16.9887640449438  C 11.3898876404494 17.1370786516854  11.5112359550562 17.2584269662921  11.6595505617978 17.2584269662921  L 13.6820224719101 17.2584269662921  C 13.8303370786517 17.2584269662921  13.9516853932584 17.1370786516854  14 16.9887640449438  L 14 5.58539325842697  L 16.4494382022472 5.58539325842697  C 16.6752808988764 5.58539325842697  16.8 5.32584269662921  16.661797752809 5.15056179775281  L 12.8865168539326 0.370786516853933  C 12.7786516853933 0.232584269662922  12.5696629213483 0.232584269662922  12.461797752809 0.370786516853933  L 8.68651685393258 5.14719101123595  Z M 25.2808988764045 16.247191011236  C 25.2808988764045 16.0988764044944  25.1595505617977 15.9775280898876  25.0112359550562 15.9775280898876  L 22.9887640449438 15.9775280898876  C 22.8404494382022 15.9775280898876  22.7191011235955 16.0988764044944  22.7191011235955 16.247191011236  L 22.7191011235955 21  L 2.62921348314607 21  L 2.62921348314607 16.247191011236  C 2.62921348314607 16.0988764044944  2.50786516853933 15.9775280898876  2.35955056179775 15.9775280898876  L 0.337078651685392 15.9775280898876  C 0.18876404494382 15.9775280898876  0.0674157303370784 16.0988764044944  0.0674157303370784 16.247191011236  L 0.0674157303370784 22.9213483146067  C 0.0674157303370784 23.5179775280899  0.549438202247192 24  1.14606741573034 24  L 24.2022471910112 24  C 24.7988764044944 24  25.2808988764045 23.5179775280899  25.2808988764045 22.9213483146067  L 25.2808988764045 16.247191011236  Z " fill-rule="nonzero" fill="#ffffff" stroke="none" transform="matrix(1 0 0 1 1994 1221 )" />
  </g>
</svg>