<?xml version="1.0" encoding="utf-8"?>
<svg version="1.1" xmlns:xlink="http://www.w3.org/1999/xlink" width="30px" height="30px" xmlns="http://www.w3.org/2000/svg">
  <g transform="matrix(1 0 0 1 -588 -2506 )">
    <path d="M 10.1368006993007 15.3068181818182  L 14.5423951048951 21.3494318181818  C 14.6682692307692 21.5241477272727  14.9121503496504 21.5241477272727  15.0380244755245 21.3494318181818  L 19.4436188811189 15.3110795454545  C 19.6048951048951 15.0894886363636  19.4593531468532 14.7613636363636  19.1958041958042 14.7613636363636  L 16 14.7613636363636  L 16 0.340909090909092  C 16.2810314685315 0.153409090909089  16.1394230769231 0  15.9663461538462 0  L 13.6062062937063 0  C 13.4331293706294 0  13.291520979021 0.153409090909089  13.291520979021 0.340909090909092  L 13.291520979021 14.7571022727273  L 10.3846153846154 14.7571022727273  C 10.1210664335664 14.7571022727273  9.97552447552448 15.0852272727273  10.1368006993007 15.3068181818182  Z M 29.5017482517483 20.1988636363636  C 29.5017482517483 20.0113636363636  29.3601398601399 19.8579545454546  29.1870629370629 19.8579545454546  L 26.8269230769231 19.8579545454546  C 26.6538461538462 19.8579545454546  26.5122377622378 20.0113636363636  26.5122377622378 20.1988636363636  L 26.5122377622378 26.7613636363636  L 3.06818181818182 26.7613636363636  L 3.06818181818182 20.1988636363636  C 3.06818181818182 20.0113636363636  2.92657342657343 19.8579545454546  2.7534965034965 19.8579545454546  L 0.393356643356642 19.8579545454546  C 0.220279720279721 19.8579545454546  0.0786713286713268 20.0113636363636  0.0786713286713268 20.1988636363636  L 0.0786713286713268 28.6363636363636  C 0.0786713286713268 29.390625  0.641171328671328 30  1.33741258741259 30  L 28.243006993007 30  C 28.9392482517483 30  29.5017482517483 29.390625  29.5017482517483 28.6363636363636  L 29.5017482517483 20.1988636363636  Z " fill-rule="nonzero" fill="#666666" stroke="none" transform="matrix(1 0 0 1 588 2506 )" />
  </g>
</svg>