<?xml version="1.0" encoding="utf-8"?>
<svg version="1.1" xmlns:xlink="http://www.w3.org/1999/xlink" width="30px" height="30px" xmlns="http://www.w3.org/2000/svg">
  <g transform="matrix(1 0 0 1 -658 -2506 )">
    <path d="M 4.57125 23.62875  C 4.81875 23.86875  5.13 24  5.46375 24  C 5.53875 24  5.61375 23.9925  5.68875 23.98125  L 11.99625 22.875  C 12.07125 22.86  12.1425 22.82625  12.195 22.77  L 28.09125 6.87375  C 28.2375 6.72750000000001  28.2375 6.49125  28.09125 6.345  L 21.85875 0.10875  C 21.7875 0.0375000000000014  21.69375 0  21.5925 0  C 21.49125 0  21.3975 0.0375000000000014  21.32625 0.10875  L 5.43 16.005  C 5.37375 16.06125  5.34 16.12875  5.325 16.20375  L 4.21875 22.51125  C 4.1475 22.9275  4.275 23.3325  4.57125 23.62875  Z M 7.40625 20.7975  L 7.99125 17.46  L 21.5925 3.8625  L 24.34125 6.61125  L 10.74 20.20875  L 7.40625 20.7975  Z M 30 28.35  C 30 27.68625  29.46375 27.15  28.8 27  L 1.2 27  C 0.536249999999998 27.15  0 27.68625  0 28.35  L 0 29.7  C 0 29.865  0.135000000000001 30  0.299999999999998 30  L 29.7 30  C 29.865 30  30 29.865  30 29.7  L 30 28.35  Z " fill-rule="nonzero" fill="#007ce4" stroke="none" transform="matrix(1 0 0 1 658 2506 )" />
  </g>
</svg>