<?xml version="1.0" encoding="utf-8"?>
<svg version="1.1" xmlns:xlink="http://www.w3.org/1999/xlink" width="105px" height="122px" xmlns="http://www.w3.org/2000/svg">
  <g transform="matrix(1 0 0 1 -1921 -1161 )">
    <path d="M 100.830078125 84.6692708333333  C 103.610026041667 77.1501736111111  105 69.2604166666667  105 61  C 105 52.7395833333333  103.610026041667 44.8498263888889  100.830078125 37.3307291666667  C 98.0501302083333 29.8116319444444  94.3131510416667 23.3250868055556  89.619140625 17.87109375  C 84.9251302083333 12.4171006944444  79.3424479166667 8.07508680555556  72.87109375 4.84505208333333  C 66.3997395833333 1.61501736111111  59.609375 0  52.5 0  C 44.6614583333333 0  37.2102864583333 1.91948784722223  30.146484375 5.75846354166667  C 23.0826822916667 9.59743923611111  17.0670572916667 15.01171875  12.099609375 22.0013020833333  C 11.7805989583333 22.5308159722222  11.6324869791667 23.1265190972222  11.6552734375 23.7884114583333  C 11.6780598958333 24.4503038194444  11.8717447916667 24.9930555555556  12.236328125 25.4166666666667  L 21.6015625 36.3776041666667  C 22.0572916666667 36.8541666666667  22.626953125 37.0924479166667  23.310546875 37.0924479166667  C 24.0397135416667 36.9865451388889  24.5638020833333 36.6688368055556  24.8828125 36.1393229166667  C 28.2096354166667 31.1089409722222  32.2884114583333 27.2170138888889  37.119140625 24.4635416666667  C 41.9498697916667 21.7100694444444  47.0768229166667 20.3333333333333  52.5 20.3333333333333  C 57.2395833333333 20.3333333333333  61.7626953125 21.4055989583333  66.0693359375 23.5501302083333  C 70.3759765625 25.6946614583333  74.1015625 28.59375  77.24609375 32.2473958333333  C 80.390625 35.9010416666667  82.8857421875 40.2298177083333  84.7314453125 45.2337239583333  C 86.5771484375 50.2376302083333  87.5 55.4930555555556  87.5 61  C 87.5 66.5069444444445  86.5771484375 71.7623697916667  84.7314453125 76.7662760416667  C 82.8857421875 81.7701822916667  80.390625 86.0989583333333  77.24609375 89.7526041666667  C 74.1015625 93.40625  70.3759765625 96.3053385416667  66.0693359375 98.4498697916667  C 61.7626953125 100.594401041667  57.2395833333333 101.666666666667  52.5 101.666666666667  C 48.0338541666667 101.666666666667  43.75 100.726779513889  39.6484375 98.8470052083333  C 35.546875 96.9672309027778  31.9010416666667 94.2799479166667  28.7109375 90.78515625  L 38.076171875 79.82421875  C 39.4889322916667 78.2356770833333  39.8079427083333 76.4088541666667  39.033203125 74.34375  C 38.2584635416667 72.2256944444444  36.9140625 71.1666666666667  35 71  L 4.375 71  C 3.19010416666667 71.1666666666667  2.16471354166667 71.6697048611111  1.298828125 72.67578125  C 0.432942708333333 73.6818576388889  0 74.8732638888889  0 76.25  L 0 111.833333333333  C 0 114.057291666667  0.911458333333333 115.619357638889  2.734375 116.51953125  C 4.51171875 117.419704861111  6.083984375 117.049045138889  7.451171875 115.407552083333  L 16.337890625 105.161458333333  C 21.2141927083333 110.509548611111  26.7854817708333 114.652994791667  33.0517578125 117.591796875  C 39.3180338541667 120.530598958333  45.80078125 122  52.5 122  C 59.609375 122  66.3997395833333 120.384982638889  72.87109375 117.154947916667  C 79.3424479166667 113.924913194444  84.9251302083333 109.582899305556  89.619140625 104.12890625  C 94.3131510416667 98.6749131944445  98.0501302083333 92.1883680555556  100.830078125 84.6692708333333  Z " fill-rule="nonzero" fill="#0000ff" stroke="none" transform="matrix(1 0 0 1 1921 1161 )" />
  </g>
</svg>