<?xml version="1.0" encoding="utf-8"?>
<svg version="1.1" xmlns:xlink="http://www.w3.org/1999/xlink" width="71px" height="52px" xmlns="http://www.w3.org/2000/svg">
  <g transform="matrix(1 0 0 1 -1596 -1231 )">
    <path d="M 52.8108723958333 21.98828125  C 53.1036241319445 22.2026909722222  53.25 22.4565972222222  53.25 22.75  L 53.25 29.25  C 53.25 29.5434027777778  53.1036241319445 29.7973090277778  52.8108723958333 30.01171875  C 52.5181206597222 30.2261284722222  52.1714409722222 30.3333333333333  51.7708333333333 30  L 35.5 30  L 35.5 36.8333333333333  C 35.5 37.1493055555556  35.361328125 37.4088541666667  35.083984375 37.6119791666667  C 34.806640625 37.8151041666667  34.4522569444444 37.9166666666667  34.0208333333333 37.9166666666667  C 33.6510416666667 37.9166666666667  33.28125 37.8038194444444  32.9114583333333 37.578125  L 18.166015625 26.7786458333333  C 17.888671875 26.5755208333333  17.75 26.3159722222222  17.75 26  C 17.75 25.6840277777778  17.888671875 25.4244791666667  18.166015625 25.2213541666667  L 32.9576822916667 14.3880208333333  C 33.2350260416667 14.1848958333333  33.5894097222222 14.0833333333333  34.0208333333333 14.0833333333333  C 34.4214409722222 14.0833333333333  34.7681206597222 14.1905381944444  35.0608723958333 14.4049479166667  C 35.3536241319444 14.6193576388889  35.5 14.8732638888889  35.5 15.1666666666667  L 35.5 22  L 51.7708333333333 22  C 52.1714409722222 21.6666666666667  52.5181206597222 21.7738715277778  52.8108723958333 21.98828125  Z M 57.271484375 35.2421875  C 59.5210503472222 32.4210069444444  60.6458333333333 29.3402777777778  60.6458333333333 26  C 60.6458333333333 22.6597222222222  59.5210503472222 19.5789930555556  57.271484375 16.7578125  C 55.0219184027778 13.9366319444444  51.9711371527778 11.7022569444444  48.119140625 10.0546875  C 44.2671440972222 8.40711805555556  40.0607638888889 7.58333333333334  35.5 7.58333333333334  C 30.9392361111111 7.58333333333334  26.7328559027778 8.40711805555556  22.880859375 10.0546875  C 19.0288628472222 11.7022569444444  15.9780815972222 13.9366319444444  13.728515625 16.7578125  C 11.4789496527778 19.5789930555556  10.3541666666667 22.6597222222222  10.3541666666667 26  C 10.3541666666667 29.3402777777778  11.4789496527778 32.4210069444444  13.728515625 35.2421875  C 15.9780815972222 38.0633680555556  19.0288628472222 40.2977430555556  22.880859375 41.9453125  C 26.7328559027778 43.5928819444444  30.9392361111111 44.4166666666667  35.5 44.4166666666667  C 40.0607638888889 44.4166666666667  44.2671440972222 43.5928819444444  48.119140625 41.9453125  C 51.9711371527778 40.2977430555556  55.0219184027778 38.0633680555556  57.271484375 35.2421875  Z M 66.2389322916667 12.94921875  C 69.4129774305555 16.9327256944444  71 21.2829861111111  71 26  C 71 30.7170138888889  69.4129774305555 35.0672743055556  66.2389322916667 39.05078125  C 63.0648871527778 43.0342881944444  58.7583550347222 46.1883680555556  53.3193359375 48.5130208333333  C 47.8803168402778 50.8376736111111  41.9405381944444 52  35.5 52  C 29.0594618055556 52  23.1196831597222 50.8376736111111  17.6806640625 48.5130208333333  C 12.2416449652778 46.1883680555556  7.93511284722222 43.0342881944444  4.76106770833333 39.05078125  C 1.58702256944444 35.0672743055556  0 30.7170138888889  0 26  C 0 21.2829861111111  1.58702256944444 16.9327256944444  4.76106770833333 12.94921875  C 7.93511284722222 8.96571180555556  12.2416449652778 5.81163194444444  17.6806640625 3.48697916666666  C 23.1196831597222 1.16232638888888  29.0594618055556 0  35.5 0  C 41.9405381944444 0  47.8803168402778 1.16232638888888  53.3193359375 3.48697916666666  C 58.7583550347222 5.81163194444444  63.0648871527778 8.96571180555556  66.2389322916667 12.94921875  Z " fill-rule="nonzero" fill="#000000" stroke="none" transform="matrix(1 0 0 1 1596 1231 )" />
  </g>
</svg>