<?xml version="1.0" encoding="utf-8"?>
<svg version="1.1" xmlns:xlink="http://www.w3.org/1999/xlink" width="60px" height="60px" viewBox="406 1692  60 60" xmlns="http://www.w3.org/2000/svg">
  <path d="M 436 1692  C 452.8 1692  466 1705.2  466 1722  C 466 1738.8  452.8 1752  436 1752  C 419.2 1752  406 1738.8  406 1722  C 406 1705.2  419.2 1692  436 1692  Z " fill-rule="nonzero" fill="#f0f0f0" stroke="none" />
  <path d="M 436 1692.5  C 452.52 1692.5  465.5 1705.48  465.5 1722  C 465.5 1738.52  452.52 1751.5  436 1751.5  C 419.48 1751.5  406.5 1738.52  406.5 1722  C 406.5 1705.48  419.48 1692.5  436 1692.5  Z " stroke-width="1" stroke="#797979" fill="none" />
  <path d="M 436 1737  C 427.6 1737  421 1730.4  421 1722  C 421 1713.6  427.6 1707  436 1707  C 444.4 1707  451 1713.6  451 1722  C 451 1730.4  444.4 1737  436 1737  " fill-rule="nonzero" fill="#797979" stroke="none" />
</svg>