<?xml version="1.0" encoding="utf-8"?>
<svg version="1.1" xmlns:xlink="http://www.w3.org/1999/xlink" width="60px" height="60px" viewBox="406 1972  60 60" xmlns="http://www.w3.org/2000/svg">
  <path d="M 436 1972  C 452.8 1972  466 1985.2  466 2002  C 466 2018.8  452.8 2032  436 2032  C 419.2 2032  406 2018.8  406 2002  C 406 1985.2  419.2 1972  436 1972  Z " fill-rule="nonzero" fill="#ffffff" stroke="none" />
  <path d="M 436 1972.5  C 452.52 1972.5  465.5 1985.48  465.5 2002  C 465.5 2018.52  452.52 2031.5  436 2031.5  C 419.48 2031.5  406.5 2018.52  406.5 2002  C 406.5 1985.48  419.48 1972.5  436 1972.5  Z " stroke-width="1" stroke="#797979" fill="none" />
  <path d="M 436 2017  C 427.6 2017  421 2010.4  421 2002  C 421 1993.6  427.6 1987  436 1987  C 444.4 1987  451 1993.6  451 2002  C 451 2010.4  444.4 2017  436 2017  " fill-rule="nonzero" fill="#797979" stroke="none" />
</svg>