<?xml version="1.0" encoding="utf-8"?>
<svg version="1.1" xmlns:xlink="http://www.w3.org/1999/xlink" width="60px" height="60px" viewBox="406 1833  60 60" xmlns="http://www.w3.org/2000/svg">
  <path d="M 436 1833  C 452.8 1833  466 1846.2  466 1863  C 466 1879.8  452.8 1893  436 1893  C 419.2 1893  406 1879.8  406 1863  C 406 1846.2  419.2 1833  436 1833  Z " fill-rule="nonzero" fill="#ffffff" stroke="none" />
  <path d="M 436 1833.5  C 452.52 1833.5  465.5 1846.48  465.5 1863  C 465.5 1879.52  452.52 1892.5  436 1892.5  C 419.48 1892.5  406.5 1879.52  406.5 1863  C 406.5 1846.48  419.48 1833.5  436 1833.5  Z " stroke-width="1" stroke="#797979" fill="none" />
  <path d="M 436 1878  C 427.6 1878  421 1871.4  421 1863  C 421 1854.6  427.6 1848  436 1848  C 444.4 1848  451 1854.6  451 1863  C 451 1871.4  444.4 1878  436 1878  " fill-rule="nonzero" fill="#797979" stroke="none" />
</svg>