<?xml version="1.0" encoding="utf-8"?>
<svg version="1.1" xmlns:xlink="http://www.w3.org/1999/xlink" width="60px" height="60px" viewBox="406 1621  60 60" xmlns="http://www.w3.org/2000/svg">
  <path d="M 436 1621  C 452.8 1621  466 1634.2  466 1651  C 466 1667.8  452.8 1681  436 1681  C 419.2 1681  406 1667.8  406 1651  C 406 1634.2  419.2 1621  436 1621  Z " fill-rule="nonzero" fill="#ffffff" stroke="none" />
  <path d="M 436 1621.5  C 452.52 1621.5  465.5 1634.48  465.5 1651  C 465.5 1667.52  452.52 1680.5  436 1680.5  C 419.48 1680.5  406.5 1667.52  406.5 1651  C 406.5 1634.48  419.48 1621.5  436 1621.5  Z " stroke-width="1" stroke="#797979" fill="none" />
  <path d="M 436 1666  C 427.6 1666  421 1659.4  421 1651  C 421 1642.6  427.6 1636  436 1636  C 444.4 1636  451 1642.6  451 1651  C 451 1659.4  444.4 1666  436 1666  " fill-rule="nonzero" fill="#797979" stroke="none" />
</svg>