<?xml version="1.0" encoding="utf-8"?>
<svg version="1.1" xmlns:xlink="http://www.w3.org/1999/xlink" width="60px" height="60px" viewBox="406 2042  60 60" xmlns="http://www.w3.org/2000/svg">
  <path d="M 436 2042  C 452.8 2042  466 2055.2  466 2072  C 466 2088.8  452.8 2102  436 2102  C 419.2 2102  406 2088.8  406 2072  C 406 2055.2  419.2 2042  436 2042  Z " fill-rule="nonzero" fill="#ffffff" stroke="none" />
  <path d="M 436 2042.5  C 452.52 2042.5  465.5 2055.48  465.5 2072  C 465.5 2088.52  452.52 2101.5  436 2101.5  C 419.48 2101.5  406.5 2088.52  406.5 2072  C 406.5 2055.48  419.48 2042.5  436 2042.5  Z " stroke-width="1" stroke="#797979" fill="none" />
  <path d="M 436 2087  C 427.6 2087  421 2080.4  421 2072  C 421 2063.6  427.6 2057  436 2057  C 444.4 2057  451 2063.6  451 2072  C 451 2080.4  444.4 2087  436 2087  " fill-rule="nonzero" fill="#797979" stroke="none" />
</svg>