<?xml version="1.0" encoding="utf-8"?>
<svg version="1.1" xmlns:xlink="http://www.w3.org/1999/xlink" width="60px" height="60px" viewBox="2999 1636  60 60" xmlns="http://www.w3.org/2000/svg">
  <path d="M 3029 1636  C 3045.8 1636  3059 1649.2  3059 1666  C 3059 1682.8  3045.8 1696  3029 1696  C 3012.2 1696  2999 1682.8  2999 1666  C 2999 1649.2  3012.2 1636  3029 1636  Z " fill-rule="nonzero" fill="#ffffff" stroke="none" />
  <path d="M 3029 1636.5  C 3045.52 1636.5  3058.5 1649.48  3058.5 1666  C 3058.5 1682.52  3045.52 1695.5  3029 1695.5  C 3012.48 1695.5  2999.5 1682.52  2999.5 1666  C 2999.5 1649.48  3012.48 1636.5  3029 1636.5  Z " stroke-width="1" stroke="#797979" fill="none" />
  <path d="M 3029 1681  C 3020.6 1681  3014 1674.4  3014 1666  C 3014 1657.6  3020.6 1651  3029 1651  C 3037.4 1651  3044 1657.6  3044 1666  C 3044 1674.4  3037.4 1681  3029 1681  " fill-rule="nonzero" fill="#797979" stroke="none" />
</svg>