<?xml version="1.0" encoding="utf-8"?>
<svg version="1.1" xmlns:xlink="http://www.w3.org/1999/xlink" width="60px" height="60px" viewBox="2999 1707  60 60" xmlns="http://www.w3.org/2000/svg">
  <path d="M 3029 1707  C 3045.8 1707  3059 1720.2  3059 1737  C 3059 1753.8  3045.8 1767  3029 1767  C 3012.2 1767  2999 1753.8  2999 1737  C 2999 1720.2  3012.2 1707  3029 1707  Z " fill-rule="nonzero" fill="#ffffff" stroke="none" />
  <path d="M 3029 1707.5  C 3045.52 1707.5  3058.5 1720.48  3058.5 1737  C 3058.5 1753.52  3045.52 1766.5  3029 1766.5  C 3012.48 1766.5  2999.5 1753.52  2999.5 1737  C 2999.5 1720.48  3012.48 1707.5  3029 1707.5  Z " stroke-width="1" stroke="#797979" fill="none" />
  <path d="M 3029 1752  C 3020.6 1752  3014 1745.4  3014 1737  C 3014 1728.6  3020.6 1722  3029 1722  C 3037.4 1722  3044 1728.6  3044 1737  C 3044 1745.4  3037.4 1752  3029 1752  " fill-rule="nonzero" fill="#797979" stroke="none" />
</svg>