<?xml version="1.0" encoding="utf-8"?>
<svg version="1.1" xmlns:xlink="http://www.w3.org/1999/xlink" width="60px" height="60px" viewBox="2999 1918  60 60" xmlns="http://www.w3.org/2000/svg">
  <path d="M 3029 1918  C 3045.8 1918  3059 1931.2  3059 1948  C 3059 1964.8  3045.8 1978  3029 1978  C 3012.2 1978  2999 1964.8  2999 1948  C 2999 1931.2  3012.2 1918  3029 1918  Z " fill-rule="nonzero" fill="#f0f0f0" stroke="none" />
  <path d="M 3029 1918.5  C 3045.52 1918.5  3058.5 1931.48  3058.5 1948  C 3058.5 1964.52  3045.52 1977.5  3029 1977.5  C 3012.48 1977.5  2999.5 1964.52  2999.5 1948  C 2999.5 1931.48  3012.48 1918.5  3029 1918.5  Z " stroke-width="1" stroke="#797979" fill="none" />
  <path d="M 3029 1963  C 3020.6 1963  3014 1956.4  3014 1948  C 3014 1939.6  3020.6 1933  3029 1933  C 3037.4 1933  3044 1939.6  3044 1948  C 3044 1956.4  3037.4 1963  3029 1963  " fill-rule="nonzero" fill="#797979" stroke="none" />
</svg>