<?xml version="1.0" encoding="utf-8"?>
<svg version="1.1" xmlns:xlink="http://www.w3.org/1999/xlink" width="60px" height="60px" viewBox="2999 1987  60 60" xmlns="http://www.w3.org/2000/svg">
  <path d="M 3029 1987  C 3045.8 1987  3059 2000.2  3059 2017  C 3059 2033.8  3045.8 2047  3029 2047  C 3012.2 2047  2999 2033.8  2999 2017  C 2999 2000.2  3012.2 1987  3029 1987  Z " fill-rule="nonzero" fill="#f0f0f0" stroke="none" />
  <path d="M 3029 1987.5  C 3045.52 1987.5  3058.5 2000.48  3058.5 2017  C 3058.5 2033.52  3045.52 2046.5  3029 2046.5  C 3012.48 2046.5  2999.5 2033.52  2999.5 2017  C 2999.5 2000.48  3012.48 1987.5  3029 1987.5  Z " stroke-width="1" stroke="#797979" fill="none" />
  <path d="M 3029 2032  C 3020.6 2032  3014 2025.4  3014 2017  C 3014 2008.6  3020.6 2002  3029 2002  C 3037.4 2002  3044 2008.6  3044 2017  C 3044 2025.4  3037.4 2032  3029 2032  " fill-rule="nonzero" fill="#797979" stroke="none" />
</svg>