<?xml version="1.0" encoding="utf-8"?>
<svg version="1.1" xmlns:xlink="http://www.w3.org/1999/xlink" width="60px" height="60px" viewBox="2999 1774  60 60" xmlns="http://www.w3.org/2000/svg">
  <path d="M 3029 1774  C 3045.8 1774  3059 1787.2  3059 1804  C 3059 1820.8  3045.8 1834  3029 1834  C 3012.2 1834  2999 1820.8  2999 1804  C 2999 1787.2  3012.2 1774  3029 1774  Z " fill-rule="nonzero" fill="#ffffff" stroke="none" />
  <path d="M 3029 1774.5  C 3045.52 1774.5  3058.5 1787.48  3058.5 1804  C 3058.5 1820.52  3045.52 1833.5  3029 1833.5  C 3012.48 1833.5  2999.5 1820.52  2999.5 1804  C 2999.5 1787.48  3012.48 1774.5  3029 1774.5  Z " stroke-width="1" stroke="#797979" fill="none" />
  <path d="M 3029 1819  C 3020.6 1819  3014 1812.4  3014 1804  C 3014 1795.6  3020.6 1789  3029 1789  C 3037.4 1789  3044 1795.6  3044 1804  C 3044 1812.4  3037.4 1819  3029 1819  " fill-rule="nonzero" fill="#797979" stroke="none" />
</svg>