<?xml version="1.0" encoding="utf-8"?>
<svg version="1.1" xmlns:xlink="http://www.w3.org/1999/xlink" width="60px" height="60px" viewBox="2999 2057  60 60" xmlns="http://www.w3.org/2000/svg">
  <path d="M 3029 2057  C 3045.8 2057  3059 2070.2  3059 2087  C 3059 2103.8  3045.8 2117  3029 2117  C 3012.2 2117  2999 2103.8  2999 2087  C 2999 2070.2  3012.2 2057  3029 2057  Z " fill-rule="nonzero" fill="#ffffff" stroke="none" />
  <path d="M 3029 2057.5  C 3045.52 2057.5  3058.5 2070.48  3058.5 2087  C 3058.5 2103.52  3045.52 2116.5  3029 2116.5  C 3012.48 2116.5  2999.5 2103.52  2999.5 2087  C 2999.5 2070.48  3012.48 2057.5  3029 2057.5  Z " stroke-width="1" stroke="#797979" fill="none" />
  <path d="M 3029 2102  C 3020.6 2102  3014 2095.4  3014 2087  C 3014 2078.6  3020.6 2072  3029 2072  C 3037.4 2072  3044 2078.6  3044 2087  C 3044 2095.4  3037.4 2102  3029 2102  " fill-rule="nonzero" fill="#797979" stroke="none" />
</svg>