<?xml version="1.0" encoding="utf-8"?>
<svg version="1.1" xmlns:xlink="http://www.w3.org/1999/xlink" width="60px" height="60px" viewBox="3000 2198  60 60" xmlns="http://www.w3.org/2000/svg">
  <path d="M 3030 2198  C 3046.8 2198  3060 2211.2  3060 2228  C 3060 2244.8  3046.8 2258  3030 2258  C 3013.2 2258  3000 2244.8  3000 2228  C 3000 2211.2  3013.2 2198  3030 2198  Z " fill-rule="nonzero" fill="#f0f0f0" stroke="none" />
  <path d="M 3030 2198.5  C 3046.52 2198.5  3059.5 2211.48  3059.5 2228  C 3059.5 2244.52  3046.52 2257.5  3030 2257.5  C 3013.48 2257.5  3000.5 2244.52  3000.5 2228  C 3000.5 2211.48  3013.48 2198.5  3030 2198.5  Z " stroke-width="1" stroke="#797979" fill="none" />
  <path d="M 3030 2243  C 3021.6 2243  3015 2236.4  3015 2228  C 3015 2219.6  3021.6 2213  3030 2213  C 3038.4 2213  3045 2219.6  3045 2228  C 3045 2236.4  3038.4 2243  3030 2243  " fill-rule="nonzero" fill="#797979" stroke="none" />
</svg>